<svg width="20" height="20" viewBox="0 0 20 20" fill="none" xmlns="http://www.w3.org/2000/svg">
<g clip-path="url(#clip0_1019_4349)">
<path d="M10 20C15.5228 20 20 15.5228 20 10C20 4.47715 15.5228 0 10 0C4.47715 0 0 4.47715 0 10C0 15.5228 4.47715 20 10 20Z" fill="#0D4179"/>
<path d="M8.75 5.41602C8.75 5.74754 8.8817 6.06548 9.11612 6.2999C9.35054 6.53432 9.66848 6.66602 10 6.66602C10.3315 6.66602 10.6495 6.53432 10.8839 6.2999C11.1183 6.06548 11.25 5.74754 11.25 5.41602C11.25 5.08449 11.1183 4.76655 10.8839 4.53213C10.6495 4.29771 10.3315 4.16602 10 4.16602C9.66848 4.16602 9.35054 4.29771 9.11612 4.53213C8.8817 4.76655 8.75 5.08449 8.75 5.41602Z" fill="white"/>
<path d="M10 15.834C9.31055 15.834 8.75 15.2734 8.75 14.584V9.58398C8.75 8.89453 9.31055 8.33398 10 8.33398C10.6895 8.33398 11.25 8.89453 11.25 9.58398V14.584C11.25 15.2734 10.6895 15.834 10 15.834Z" fill="white"/>
</g>
<defs>
<clipPath id="clip0_1019_4349">
<rect width="20" height="20" fill="white"/>
</clipPath>
</defs>
</svg>
