<svg width="30" height="31" viewBox="0 0 30 31" fill="none" xmlns="http://www.w3.org/2000/svg">
<path d="M5.5184 18.4793C5.5184 18.2948 5.5184 18.1615 5.5184 18.0287C5.5184 15.4948 5.5172 12.9602 5.51901 10.4263C5.51961 9.58556 5.96855 8.99414 6.76807 8.82463C6.76807 9.14932 6.76143 9.46528 6.76927 9.78062C6.79824 10.9205 7.6243 11.8359 8.71768 11.9481C9.80683 12.0597 10.8037 11.3274 11.0318 10.2113C11.1011 9.87099 11.0764 9.51015 11.0921 9.15804C11.0969 9.04711 11.0927 8.93556 11.0927 8.80469C11.6774 8.80469 12.2271 8.80469 12.8275 8.80469C12.8275 9.12314 12.8215 9.44035 12.8287 9.75819C12.8534 10.8974 13.6499 11.8042 14.7554 11.9562C15.78 12.0971 16.7798 11.4084 17.0737 10.3428C17.1334 10.1265 17.1509 9.89405 17.163 9.66782C17.1781 9.3905 17.1666 9.1113 17.1666 8.80905C17.7507 8.80905 18.3071 8.80905 18.9002 8.80905C18.9002 9.13935 18.893 9.45843 18.9014 9.77751C18.9334 10.9516 19.783 11.8665 20.9319 11.9712C21.9583 12.0647 22.9612 11.2931 23.1742 10.2038C23.2448 9.84232 23.2122 9.4603 23.2273 9.087C23.2303 9.00598 23.2357 8.92559 23.2405 8.84457C23.8669 8.88757 24.4202 9.48896 24.4685 10.1732C24.483 10.3801 24.4757 10.5883 24.4757 10.7958C24.4763 13.2051 24.4763 15.6151 24.4763 18.0244C24.4763 18.1577 24.4763 18.2917 24.4763 18.4469C24.5735 18.46 24.6489 18.478 24.7249 18.4787C25.3688 18.4812 26.012 18.4849 26.6558 18.4787C27.2327 18.4731 27.6557 18.0593 27.6611 17.4647C27.6726 16.1666 27.6575 14.8685 27.6714 13.5703C27.6744 13.3136 27.5115 13.2986 27.3594 13.2344C26.5351 12.8842 26.0452 11.9893 26.19 11.0993C26.3402 10.1782 27.0619 9.48896 27.9332 9.43599C28.8697 9.37928 29.6723 9.95263 29.9239 10.8588C30.1978 11.8459 29.7133 12.873 28.7744 13.2388C28.5511 13.3254 28.498 13.4376 28.5005 13.6663C28.5113 14.8915 28.5065 16.1174 28.5053 17.3426C28.5035 18.5697 27.7528 19.3449 26.5647 19.348C26.0319 19.3493 25.4985 19.3449 24.9657 19.3493C24.4178 19.3543 24.4775 19.277 24.4769 19.8404C24.4751 22.9564 24.4504 26.0724 24.4896 29.1872C24.5041 30.3301 23.7329 31.0051 22.7373 31.0001C17.5588 30.9739 12.3798 30.9864 7.20131 30.9907C6.75057 30.9913 6.34266 30.8947 6.00596 30.5725C5.65297 30.2348 5.51478 29.811 5.51599 29.3149C5.52263 26.1372 5.51961 22.9589 5.51901 19.7812C5.51901 19.3493 5.51841 19.3487 5.093 19.3487C4.49985 19.348 3.9061 19.3536 3.31294 19.3468C2.28956 19.3343 1.51237 18.5603 1.49668 17.5021C1.47798 16.2252 1.48582 14.9476 1.49427 13.67C1.49608 13.4451 1.45143 13.3273 1.22394 13.24C0.333913 12.8973 -0.139763 11.9843 0.0364322 11.0139C0.202973 10.0978 0.986802 9.43412 1.907 9.43163C2.83866 9.42851 3.61042 10.0847 3.79145 11.0345C3.97006 11.9681 3.48431 12.8929 2.60937 13.2375C2.39516 13.3217 2.32215 13.422 2.32456 13.6594C2.33723 14.8953 2.32878 16.1311 2.3318 17.3669C2.33361 18.0636 2.73005 18.4768 3.39561 18.4799C4.08712 18.4818 4.77983 18.4793 5.5184 18.4793ZM14.9962 17.3513C17.0477 17.3513 19.0993 17.3494 21.1509 17.3538C21.4557 17.3544 21.7109 17.2709 21.8654 16.9867C22.1327 16.4944 21.7604 15.9765 21.1377 15.9759C17.0447 15.9746 12.9518 15.9746 8.85888 15.9759C8.75932 15.9759 8.65613 15.9796 8.56019 16.0039C8.24642 16.0837 8.04005 16.366 8.05031 16.6863C8.06057 17.0029 8.28926 17.2796 8.60183 17.337C8.70923 17.3569 8.82207 17.3513 8.93249 17.3513C10.9533 17.3519 12.9747 17.3519 14.9962 17.3513ZM14.9968 20.453C14.9968 20.4536 14.9968 20.4536 14.9968 20.4542C13.1467 20.4542 11.296 20.4542 9.446 20.4542C9.18472 20.4542 8.92224 20.4424 8.66217 20.4617C8.31943 20.4866 8.06238 20.7745 8.05091 21.1173C8.03945 21.4513 8.25788 21.7368 8.58916 21.8066C8.69596 21.829 8.80879 21.8284 8.91862 21.8284C12.9711 21.8296 17.0236 21.8296 21.0761 21.8278C21.1956 21.8278 21.3193 21.8253 21.4345 21.7972C21.7405 21.7237 21.9402 21.4588 21.9432 21.1472C21.9462 20.8394 21.7453 20.5571 21.449 20.4829C21.3241 20.4517 21.1901 20.4542 21.0598 20.4542C19.039 20.4524 17.0176 20.453 14.9968 20.453ZM15.0118 24.9338C13.9764 24.9338 12.9403 24.9338 11.9049 24.9338C10.8489 24.9338 9.79356 24.9301 8.73759 24.9363C8.33874 24.9388 8.05453 25.2267 8.05031 25.6069C8.04609 25.9739 8.31159 26.2606 8.69294 26.2961C8.77259 26.3036 8.85345 26.3011 8.93431 26.3011C12.9759 26.3011 17.0182 26.3017 21.0598 26.3005C21.1799 26.3005 21.3024 26.2992 21.4194 26.2762C21.6946 26.2213 21.863 26.0338 21.9257 25.7614C21.9897 25.4835 21.907 25.2261 21.6723 25.0815C21.519 24.9874 21.3157 24.9413 21.1346 24.9407C19.0939 24.9301 17.0532 24.9332 15.0118 24.9338Z" fill="#2867AA"/>
<path d="M14.1578 8.91321C14.1572 8.64336 14.165 8.37351 14.1553 8.10367C14.1439 7.78396 14.2344 7.51848 14.4649 7.29412C14.5325 7.22806 14.5735 7.09906 14.5747 6.99873C14.5838 6.05457 14.5753 5.11042 14.5862 4.16627C14.5886 3.97432 14.5174 3.90265 14.3527 3.84033C13.5103 3.5225 12.9974 2.68491 13.0867 1.7981C13.1802 0.865785 13.8452 0.157826 14.7569 0.0194749C15.589 -0.107035 16.4193 0.392773 16.7669 1.22911C17.1893 2.24493 16.6957 3.43338 15.6669 3.82974C15.466 3.90702 15.4153 4.00548 15.4171 4.20989C15.4255 5.12288 15.4122 6.0365 15.4249 6.94887C15.4267 7.08348 15.5239 7.21747 15.5794 7.35084C15.6639 7.55462 15.8135 7.75467 15.8244 7.9622C15.8564 8.6041 15.8431 9.24849 15.8334 9.89163C15.8262 10.3952 15.4593 10.761 14.9905 10.7573C14.5228 10.7535 14.1704 10.3852 14.1596 9.87792C14.1529 9.55697 14.1584 9.2354 14.1578 8.91321Z" fill="white"/>
<path d="M20.2285 8.94071C20.2291 8.61913 20.2194 8.29694 20.2309 7.97599C20.249 7.47493 20.5893 7.11971 21.0437 7.10911C21.5071 7.09852 21.8896 7.45935 21.9029 7.9629C21.9204 8.60605 21.9192 9.25044 21.9029 9.89296C21.8896 10.4071 21.524 10.7636 21.0563 10.758C20.5875 10.7524 20.2466 10.394 20.2297 9.87427C20.2194 9.56391 20.2278 9.25169 20.2285 8.94071Z" fill="white"/>
<path d="M9.76604 8.94161C9.76604 9.25321 9.77449 9.56482 9.76423 9.87579C9.74673 10.3887 9.39494 10.7508 8.92851 10.752C8.47294 10.7533 8.11451 10.4074 8.09882 9.90571C8.07891 9.25259 8.07529 8.5976 8.09279 7.94386C8.10606 7.44655 8.47052 7.10254 8.92911 7.10254C9.39374 7.10254 9.73165 7.44281 9.7594 7.94511C9.76846 8.11088 9.76302 8.27728 9.76302 8.44305C9.76363 8.60882 9.76302 8.77522 9.76302 8.94099C9.76423 8.94161 9.76484 8.94161 9.76604 8.94161Z" fill="white"/>
<path d="M14.996 17.5065C12.9746 17.5071 10.9532 17.5071 8.93235 17.5065C8.82193 17.5065 8.70909 17.5121 8.60169 17.4921C8.28912 17.4348 8.06043 17.1581 8.05017 16.8415C8.03991 16.5212 8.24628 16.2389 8.56005 16.1591C8.65599 16.1348 8.75918 16.1311 8.85874 16.1311C12.9517 16.1298 17.0446 16.1292 21.1375 16.1311C21.7602 16.1311 22.1325 16.6496 21.8652 17.1419C21.7108 17.4261 21.4555 17.5096 21.1508 17.509C19.0992 17.504 17.0476 17.5058 14.996 17.5065Z" fill="white"/>
<path d="M14.9969 20.6074C17.0184 20.6074 19.0392 20.6067 21.0606 20.6086C21.1903 20.6086 21.3249 20.6061 21.4498 20.6373C21.7461 20.7108 21.947 20.9937 21.944 21.3016C21.941 21.6138 21.7406 21.8781 21.4353 21.9516C21.3195 21.9796 21.1964 21.9821 21.0769 21.9821C17.0244 21.9834 12.9719 21.9834 8.9194 21.9828C8.80958 21.9828 8.69675 21.9834 8.58994 21.9609C8.25807 21.8912 8.04024 21.6051 8.0517 21.2717C8.06317 20.9295 8.32022 20.641 8.66296 20.6161C8.92302 20.5974 9.18551 20.6092 9.44678 20.6086C11.2968 20.608 13.1475 20.6086 14.9975 20.6086C14.9969 20.608 14.9969 20.6074 14.9969 20.6074Z" fill="white"/>
<path d="M15.0117 25.0883C17.0531 25.0883 19.0938 25.0846 21.1351 25.0939C21.3162 25.0946 21.5201 25.1407 21.6728 25.2348C21.9075 25.3794 21.9902 25.6367 21.9262 25.9147C21.8635 26.187 21.6951 26.3752 21.42 26.4295C21.3029 26.4525 21.1804 26.4538 21.0603 26.4538C17.0187 26.455 12.9764 26.455 8.93481 26.4544C8.85456 26.4544 8.7737 26.4569 8.69345 26.4494C8.31209 26.4139 8.0472 26.1272 8.05082 25.7601C8.05504 25.38 8.33925 25.0914 8.7381 25.0896C9.79407 25.084 10.8494 25.0877 11.9054 25.0871C12.9402 25.0883 13.9763 25.0883 15.0117 25.0883Z" fill="white"/>
</svg>
