<svg width="12" height="20" viewBox="0 0 12 20" fill="none" xmlns="http://www.w3.org/2000/svg">
<g clip-path="url(#clip0_1202_3718)">
<path d="M0.00293513 20.0001C0.00491378 18.795 0.00788175 17.5904 0.00788175 16.3853C0.00788175 13.5783 0.0182696 10.7707 -3.28412e-05 7.96373C-0.00497946 7.20141 0.0766397 6.4678 0.274999 5.73419C0.589109 4.57191 0.872056 3.40023 1.14214 2.22542C1.21684 1.90117 1.20298 1.55395 1.22376 1.21665C1.24849 0.814082 1.26581 0.411513 1.28708 -0.000976562H10.7613C10.7663 0.0700343 10.7757 0.133213 10.7737 0.196392C10.7401 1.45579 10.9181 2.68021 11.2609 3.88739C11.5192 4.79591 11.7269 5.7201 11.9495 6.63958C11.9841 6.78213 11.993 6.93564 11.993 7.08392C11.9955 11.3044 11.995 15.5248 11.995 19.7458C11.995 19.8304 11.9975 19.915 11.999 19.9995H0.00293513V20.0001ZM0.428344 9.10773V16.154H11.578V9.10773H0.428344ZM0.566355 6.34353H11.4207C11.4207 6.31429 11.4247 6.29445 11.4202 6.2767C11.1284 5.08152 10.8345 3.88687 10.5462 2.69065C10.513 2.5528 10.4344 2.54654 10.3275 2.54654C7.44562 2.5481 4.56372 2.54863 1.68182 2.54497C1.54628 2.54497 1.48643 2.58883 1.45378 2.72772C1.341 3.21331 1.21684 3.69629 1.09762 4.18031C0.921522 4.89616 0.745422 5.61201 0.565366 6.34301L0.566355 6.34353ZM11.5726 16.6177H0.433291V19.5484H11.5726V16.6177ZM11.5622 6.82599H0.440711V8.64877H11.5622V6.82599ZM10.3938 0.429266H1.66945C1.64076 0.991609 1.61306 1.54142 1.58486 2.0975H10.3943V0.429266H10.3938Z" fill="#0D4179"/>
<path d="M0.428467 9.10742H11.5781V16.1537H0.428467V9.10742Z" fill="#0D4179"/>
<path d="M0.566406 6.34345C0.746463 5.61193 0.922068 4.89608 1.09866 4.18075C1.21788 3.69673 1.34154 3.21375 1.45482 2.72816C1.48697 2.58927 1.54732 2.54541 1.68286 2.54541C4.56476 2.54959 7.44666 2.54854 10.3286 2.54698C10.4349 2.54698 10.5136 2.55324 10.5472 2.69109C10.8351 3.88731 11.1294 5.08196 11.4213 6.27714C11.4257 6.29489 11.4218 6.31473 11.4218 6.34397H0.566406V6.34345Z" fill="#0D4179"/>
<path d="M11.5726 16.6177V19.5484H0.43335V16.6177H11.5726Z" fill="white"/>
<path d="M11.5622 6.82568V8.64847H0.440674V6.82568H11.5622Z" fill="white"/>
<path d="M10.3939 0.429199V2.09743H1.58447C1.61267 1.54083 1.64086 0.99102 1.66906 0.429199H10.3939Z" fill="white"/>
</g>
<defs>
<clipPath id="clip0_1202_3718">
<rect width="12" height="20" fill="white"/>
</clipPath>
</defs>
</svg>
