<svg width="20" height="20" viewBox="0 0 20 20" fill="none" xmlns="http://www.w3.org/2000/svg">
<g clip-path="url(#clip0_1138_3610)">
<path d="M19.1902 13.9428C21.3686 8.86772 19.0203 2.98764 13.9452 0.809305C8.87008 -1.36903 2.99 0.979259 0.811663 6.05436C-1.36668 11.1295 0.981616 17.0095 6.05672 19.1879C11.1318 21.3662 17.0119 19.0179 19.1902 13.9428Z" fill="#0D4179"/>
<rect x="6" y="6" width="3" height="3" rx="1" fill="white"/>
<rect x="11" y="6" width="3" height="3" rx="1" fill="white"/>
<path d="M11 12C11 11.4477 11.4477 11 12 11H13C13.5523 11 14 11.4477 14 12V13C14 13.5523 13.5523 14 13 14H12C11.4477 14 11 13.5523 11 13V12Z" fill="white"/>
<path d="M6 12C6 11.4477 6.44772 11 7 11H8C8.55228 11 9 11.4477 9 12V13C9 13.5523 8.55228 14 8 14H7C6.44772 14 6 13.5523 6 13V12Z" fill="white"/>
</g>
<defs>
<clipPath id="clip0_1138_3610">
<rect width="20" height="20" fill="white"/>
</clipPath>
</defs>
</svg>
