<svg width="20" height="20" viewBox="0 0 20 20" fill="none" xmlns="http://www.w3.org/2000/svg">
<g clip-path="url(#clip0_1019_4299)">
<path d="M12.7843 12.1145H3.44852C3.19391 12.1145 3.02417 11.9448 3.02417 11.6902C3.02417 11.4356 3.19391 11.2658 3.44852 11.2658H12.3599V4.05186C12.3599 3.79725 12.1902 3.62751 11.9356 3.62751H8.11639C7.86178 3.62751 7.69204 3.45777 7.69204 3.20316C7.69204 2.94855 7.86178 2.77881 8.11639 2.77881H11.9356C12.657 2.77881 13.2086 3.33047 13.2086 4.05186V11.6902C13.2086 11.9448 13.0389 12.1145 12.7843 12.1145Z" fill="#0D4179"/>
<path d="M18.7266 15.0848H3.44995V11.6899H19.5753V14.2361C19.5753 14.7028 19.1934 15.0848 18.7266 15.0848Z" fill="#0D4179"/>
<path d="M18.7252 15.5096H3.44852C3.19391 15.5096 3.02417 15.3399 3.02417 15.0853V11.6905C3.02417 11.4359 3.19391 11.2661 3.44852 11.2661H19.5739C19.8285 11.2661 19.9982 11.4359 19.9982 11.6905V14.2366C19.9982 14.958 19.4466 15.5096 18.7252 15.5096ZM3.87287 14.6609H18.7252C18.9798 14.6609 19.1495 14.4912 19.1495 14.2366V12.1148H3.87287V14.6609Z" fill="#0D4179"/>
<path d="M15.7555 17.6312C16.9274 17.6312 17.8773 16.6813 17.8773 15.5095C17.8773 14.3376 16.9274 13.3877 15.7555 13.3877C14.5837 13.3877 13.6338 14.3376 13.6338 15.5095C13.6338 16.6813 14.5837 17.6312 15.7555 17.6312Z" fill="#FFE9E9"/>
<path d="M15.7549 18.0556C14.3545 18.0556 13.2087 16.9099 13.2087 15.5095C13.2087 14.1091 14.3545 12.9634 15.7549 12.9634C17.1552 12.9634 18.301 14.1091 18.301 15.5095C18.301 16.9099 17.1552 18.0556 15.7549 18.0556ZM15.7549 13.8121C14.8213 13.8121 14.0574 14.5759 14.0574 15.5095C14.0574 16.4431 14.8213 17.2069 15.7549 17.2069C16.6884 17.2069 17.4523 16.4431 17.4523 15.5095C17.4523 14.5759 16.6884 13.8121 15.7549 13.8121Z" fill="#0D4179"/>
<path d="M7.69232 17.6312C8.86413 17.6312 9.81407 16.6813 9.81407 15.5095C9.81407 14.3376 8.86413 13.3877 7.69232 13.3877C6.5205 13.3877 5.57056 14.3376 5.57056 15.5095C5.57056 16.6813 6.5205 17.6312 7.69232 17.6312Z" fill="#FFE9E9"/>
<path d="M7.69382 18.0556C6.29346 18.0556 5.14771 16.9099 5.14771 15.5095C5.14771 14.1092 6.29346 12.9634 7.69382 12.9634C9.09418 12.9634 10.2399 14.1092 10.2399 15.5095C10.2399 16.9099 9.09418 18.0556 7.69382 18.0556ZM7.69382 13.8121C6.76024 13.8121 5.99641 14.576 5.99641 15.5095C5.99641 16.4431 6.76024 17.2069 7.69382 17.2069C8.62739 17.2069 9.39122 16.4431 9.39122 15.5095C9.39122 14.576 8.62739 13.8121 7.69382 13.8121ZM19.5757 12.1147H12.786C12.5314 12.1147 12.3617 11.945 12.3617 11.6904V7.0225C12.3617 6.76789 12.5314 6.59814 12.786 6.59814H16.1809C18.3026 6.59814 20 8.29555 20 10.4173V11.6904C20 11.945 19.8303 12.1147 19.5757 12.1147ZM13.2104 11.266H19.1513V10.4173C19.1513 8.76234 17.8358 7.44685 16.1809 7.44685H13.2104V11.266Z" fill="#0D4179"/>
<path d="M5.57178 9.99226H0.0552112C-0.1994 9.99226 -0.369141 9.82252 -0.369141 9.56791C-0.369141 9.3133 -0.1994 9.14355 0.0552112 9.14355H5.57178C5.8264 9.14355 5.99614 9.3133 5.99614 9.56791C5.99614 9.82252 5.8264 9.99226 5.57178 9.99226Z" fill="#0D4179"/>
<path d="M5.5729 7.44685H1.32938C1.07477 7.44685 0.905029 7.27711 0.905029 7.0225C0.905029 6.76789 1.07477 6.59814 1.32938 6.59814H5.5729C5.82751 6.59814 5.99725 6.76789 5.99725 7.0225C5.99725 7.27711 5.82751 7.44685 5.5729 7.44685Z" fill="#0D4179"/>
<path d="M5.573 4.90095H3.02689C2.77228 4.90095 2.60254 4.73121 2.60254 4.4766C2.60254 4.22199 2.77228 4.05225 3.02689 4.05225H5.573C5.82761 4.05225 5.99735 4.22199 5.99735 4.4766C5.99735 4.73121 5.82761 4.90095 5.573 4.90095Z" fill="#0D4179"/>
</g>
<defs>
<clipPath id="clip0_1019_4299">
<rect width="20" height="20" fill="white"/>
</clipPath>
</defs>
</svg>
