<svg width="26" height="26" viewBox="0 0 26 26" fill="none" xmlns="http://www.w3.org/2000/svg">
<rect width="26" height="26" fill="#EAF1FF"/>
<path d="M18.5905 9.26471L16.7067 7.37414C16.4609 7.14237 16.1387 7.00938 15.8015 7.00048C15.4643 6.99157 15.1356 7.10737 14.878 7.32584L8.6904 13.5358C8.46817 13.7607 8.3298 14.0555 8.29852 14.3706L8.00289 17.2479C7.99363 17.349 8.00669 17.4508 8.04116 17.5462C8.07562 17.6417 8.13063 17.7283 8.20227 17.7999C8.26651 17.8638 8.34269 17.9144 8.42646 17.9488C8.51022 17.9831 8.59992 18.0005 8.6904 18H8.75227L11.6192 17.7378C11.9332 17.7064 12.227 17.5675 12.4511 17.3445L18.6386 11.1346C18.8788 10.88 19.0086 10.5402 18.9996 10.1897C18.9905 9.83917 18.8434 9.50656 18.5905 9.26471ZM11.4954 16.3578L9.43291 16.551L9.61853 14.481L13.503 10.6309L15.3592 12.4939L11.4954 16.3578ZM16.253 11.5693L14.4105 9.72011L15.7511 8.34013L17.628 10.2238L16.253 11.5693Z" fill="black"/>
</svg>
