<svg width="61" height="59" viewBox="0 0 61 59" fill="none" xmlns="http://www.w3.org/2000/svg">
<path d="M31.5856 0H35.6607V5.48837C42.5283 5.48837 49.3954 5.50209 56.2624 5.46752C57.4221 5.51526 58.6981 5.43349 59.7064 6.12612C60.4127 7.14147 60.3309 8.43124 60.3787 9.59752C60.3447 21.5073 60.3584 33.4105 60.3655 45.3131C60.3315 47.3098 60.5505 49.347 60.1323 51.3163C59.8578 52.7433 58.1427 52.7773 56.9967 52.8256C49.8893 52.8459 42.7753 52.8119 35.6607 52.8256V59H31.4001C20.9447 57.0994 10.4685 55.3436 0 53.5116V5.49551C10.5311 3.66349 21.0616 1.85946 31.5856 0Z" fill="#207245"/>
<path d="M35.6606 7.54639H58.3002V50.7673H35.6606V46.651H41.149V41.8487H35.6606V39.1045H41.149V34.3022H35.6606V31.558H41.149V26.7557H35.6606V24.0115H41.149V19.2092H35.6606V16.465H41.149V11.6627H35.6606V7.54639Z" fill="white"/>
<path d="M43.8931 11.6626H53.4977V16.4649H43.8931V11.6626Z" fill="#207245"/>
<path d="M20.3207 18.0906C21.8712 17.9808 23.4288 17.8848 24.9858 17.8096C23.1569 21.5656 21.3115 25.3137 19.4497 29.0536C21.3366 32.8955 23.2636 36.7099 25.157 40.5517C23.5055 40.457 21.8546 40.3518 20.2043 40.2362C19.0381 37.3751 17.6177 34.6106 16.7807 31.6194C15.8482 34.4048 14.5167 37.032 13.4471 39.7631C11.9443 39.7422 10.4416 39.6807 8.93945 39.6187C10.7023 36.1682 12.4037 32.6896 14.2215 29.2594C12.6781 25.726 10.9833 22.2617 9.39169 18.7492C10.901 18.6597 12.4103 18.5708 13.9196 18.4885C14.9415 21.1712 16.0595 23.8188 16.9042 26.5701C17.8092 23.6547 19.161 20.9105 20.3207 18.0906Z" fill="white"/>
<path d="M43.8931 19.2095H53.4977V24.0118H43.8931V19.2095ZM43.8931 26.756H53.4977V31.5583H43.8931V26.756ZM43.8931 34.3025H53.4977V39.1048H43.8931V34.3025ZM43.8931 41.849H53.4977V46.6513H43.8931V41.849Z" fill="#207245"/>
</svg>
