<svg width="18" height="14" viewBox="0 0 18 14" fill="none" xmlns="http://www.w3.org/2000/svg">
<path d="M8.99123 1.99267C6.35976 1.99267 3.72892 1.9933 1.09745 1.99205C0.431927 1.99205 -0.0205028 1.5575 0.00386842 0.951631C0.0238653 0.44893 0.426303 0.0362645 0.929351 0.00437675C0.983717 0.00062525 1.03808 0 1.09308 0C6.36289 0 11.6333 0 16.9038 0.00062525C17.4762 0.00062525 17.858 0.283238 17.9755 0.785314C18.1098 1.35929 17.6855 1.94078 17.0962 1.98642C16.995 1.99455 16.8931 1.99267 16.7919 1.99267C14.1917 1.9933 11.5915 1.99267 8.99123 1.99267Z" fill="white"/>
<path d="M8.99123 7.99267C6.35976 7.99267 3.72892 7.9933 1.09745 7.99205C0.431927 7.99205 -0.0205028 7.5575 0.00386842 6.95163C0.0238653 6.44893 0.426303 6.03626 0.929351 6.00438C0.983717 6.00063 1.03808 6 1.09308 6C6.36289 6 11.6333 6 16.9038 6.00063C17.4762 6.00063 17.858 6.28324 17.9755 6.78531C18.1098 7.35929 17.6855 7.94078 17.0962 7.98642C16.995 7.99455 16.8931 7.99267 16.7919 7.99267C14.1917 7.9933 11.5915 7.99267 8.99123 7.99267Z" fill="white"/>
<path d="M8.9883 13.9927C6.35683 13.9927 3.72599 13.9933 1.09452 13.992C0.428998 13.992 -0.0234325 13.5575 0.000938733 12.9516C0.0209356 12.4489 0.423374 12.0363 0.926421 12.0044C0.980788 12.0006 1.03515 12 1.09015 12C6.35996 12 11.6304 12 16.9008 12.0006C17.4732 12.0006 17.8551 12.2832 17.9725 12.7853C18.1069 13.3593 17.6826 13.9408 17.0933 13.9864C16.9921 13.9945 16.8902 13.9927 16.789 13.9927C14.1888 13.9933 11.5885 13.9927 8.9883 13.9927Z" fill="white"/>
</svg>
