<svg width="23" height="30" viewBox="0 0 23 30" fill="none" xmlns="http://www.w3.org/2000/svg">
<path d="M7.36288 0.0988255C6.98368 0.230825 6.69058 0.460627 6.44938 0.817026C6.20248 1.17883 6.12778 1.48333 6.15628 1.97173C6.19648 2.60353 6.54688 3.15523 7.09258 3.44233L7.35118 3.58032V5.76913V7.96363L7.02358 8.09563C1.03768 10.474 -1.68542 17.3791 1.08928 23.1352C2.20378 25.4389 3.96178 27.1966 6.26518 28.3111C11.7342 30.9481 18.312 28.6327 20.9601 23.1409C23.3556 18.1774 21.6954 12.1972 17.0883 9.16393C16.554 8.81353 15.6177 8.32513 15.0375 8.09533L14.7042 7.96333V5.76883V3.58003L14.9628 3.44203C15.2673 3.28123 15.5661 2.97103 15.75 2.62063C15.8589 2.41393 15.882 2.28733 15.882 1.82773C15.882 1.36813 15.8589 1.24183 15.75 1.03482C15.549 0.655624 15.2445 0.351126 14.8884 0.178926L14.5608 0.0181274L11.1141 0.00672722C7.89118 -0.0103722 7.64998 0.00102425 7.36288 0.0988255ZM14.331 1.27633C14.532 1.36242 14.7045 1.61533 14.7045 1.82773C14.7045 2.04013 14.5323 2.29303 14.331 2.37913C14.0382 2.49973 8.01748 2.49973 7.72468 2.37913C7.52368 2.29303 7.35118 2.04013 7.35118 1.82773C7.35118 1.62103 7.52368 1.36243 7.71298 1.28203C7.98898 1.16143 14.0439 1.15573 14.331 1.27633ZM13.5096 6.25693L13.5267 8.84773L14.2104 9.10063C15.5202 9.58303 16.5312 10.1692 17.502 11.0137C18.9495 12.2662 20.1618 14.2768 20.5638 16.0804C20.6328 16.3963 20.6328 16.4137 20.4489 16.7698C19.329 18.9757 16.767 20.5441 14.5782 20.3602C12.987 20.2279 11.6139 19.51 9.44818 17.683C6.61018 15.2935 4.24348 14.6788 1.90528 15.73C1.70998 15.8218 1.54918 15.8737 1.54918 15.8449C1.54918 15.8218 1.64098 15.529 1.75588 15.2014C2.47408 13.1275 3.78388 11.4388 5.61628 10.2094C6.31708 9.73843 6.91468 9.44533 7.84528 9.10063L8.52898 8.84773L8.54608 6.25693L8.55748 3.66613H11.0277H13.4982L13.5096 6.25693ZM5.16838 16.5976C6.19678 16.8388 7.35718 17.5282 8.84488 18.7747C10.4937 20.1592 11.5392 20.8024 12.8547 21.2449C15.1467 22.0147 17.5422 21.469 19.6623 19.711C19.9092 19.5043 20.2539 19.1653 20.4321 18.9526C20.6103 18.7456 20.7708 18.5677 20.7996 18.5563C20.8629 18.5275 20.8056 19.2571 20.6733 20.0614C20.3343 22.1698 19.128 24.3181 17.5023 25.7314C16.1409 26.9149 14.4633 27.7192 12.717 28.0294C11.7576 28.2016 10.2984 28.2016 9.33898 28.0294C5.26588 27.3055 2.08918 24.1231 1.37098 20.0443C1.28488 19.5847 1.25038 19.0963 1.24468 18.4702L1.23328 17.5684L1.40578 17.4247C1.71028 17.1778 2.68108 16.7065 3.11188 16.5916C3.69178 16.4425 4.53058 16.4425 5.16838 16.5976Z" fill="black"/>
</svg>
