<svg width="20" height="21" viewBox="0 0 20 21" fill="none" xmlns="http://www.w3.org/2000/svg">
<path d="M14.4632 18.8572H12.8914C12.6294 18.8572 12.3782 18.7462 12.1936 18.5488C12.009 18.3514 11.9063 18.0839 11.9082 17.8058V15.1849C11.9082 14.8636 11.788 14.5555 11.574 14.3283C11.3599 14.1011 11.0697 13.9735 10.767 13.9735H8.46322C7.83298 13.9735 7.32207 14.5158 7.32207 15.1849L14.4632 18.8572ZM14.4632 18.8572C15.1973 18.8592 15.9019 18.5511 16.4217 18.0008C16.9414 17.4504 17.2335 16.7032 17.2335 15.9239V8.45738C17.2335 7.82789 16.9707 7.23079 16.5158 6.82693L14.4632 18.8572ZM6.82207 15.1849V17.4523L6.80295 17.4591L6.80055 17.81C6.79829 18.1412 6.55208 18.3572 6.31011 18.3572H4.77423C3.54809 18.3572 2.50391 17.2929 2.50391 15.9163V8.46322C2.51632 7.96501 2.73876 7.50757 3.09672 7.21302L3.09678 7.2131L3.10416 7.20678L8.32903 2.73447L8.33583 2.72865L8.34241 2.72259C9.05917 2.06319 10.107 2.04387 10.8441 2.67379L10.8456 2.67505L16.1878 7.20435C16.5293 7.50963 16.7335 7.96704 16.7335 8.45738V15.9239C16.7335 16.5797 16.4874 17.2029 16.0582 17.6575C15.6299 18.1109 15.0558 18.3588 14.4646 18.3572H14.4632H12.8914C12.7727 18.3572 12.6522 18.3072 12.5588 18.2073C12.4644 18.1064 12.4071 17.9635 12.4082 17.8092V17.8058V15.1849C12.4082 14.7403 12.2421 14.3084 11.9379 13.9854C11.6327 13.6615 11.2123 13.4735 10.767 13.4735H8.46322C7.52911 13.4735 6.82207 14.2683 6.82207 15.1849Z" fill="#495ECA" stroke="black"/>
<rect x="8" y="7" width="3" height="3" fill="white"/>
</svg>
