<svg width="40" height="40" viewBox="0 0 40 40" fill="none" xmlns="http://www.w3.org/2000/svg">
<path d="M16.8683 39.7307C15.9292 39.6202 15.0166 39.3894 14.1174 39.109C10.2101 37.8905 6.96258 35.6857 4.39921 32.5001C2.18732 29.7513 0.799709 26.6219 0.254689 23.129C-0.360951 19.1821 0.135551 15.3759 1.78732 11.7412C3.48006 8.017 6.08656 5.07948 9.57339 2.93511C12.2095 1.31376 15.0726 0.366394 18.1551 0.0892484C22.4264 -0.294657 26.4469 0.553494 30.1181 2.75933C35.3359 5.8942 38.5376 10.4908 39.6718 16.4861C40.198 19.2678 40.0794 22.043 39.4028 24.7924C39.371 24.9212 39.3764 25.0609 39.2999 25.1779C39.123 24.8226 38.8039 24.5918 38.5333 24.3227C37.1661 22.9618 35.8044 21.5955 34.4405 20.2324C33.2222 19.0149 32.0071 17.7937 30.7892 16.5751C29.565 15.3506 28.3385 14.1277 27.1137 12.9043C26.0409 11.8329 24.9725 10.7572 23.9002 9.68527C22.9185 8.70394 21.9471 7.71182 20.9245 6.72456C20.9245 7.30096 20.925 7.84608 20.9239 8.39174C20.9239 8.48988 20.9352 8.59125 20.8899 8.68345C20.856 8.75354 20.8107 8.73952 20.7687 8.68561C20.6775 8.44081 20.7261 8.18739 20.7201 7.93828C20.7115 7.59751 20.7218 7.2562 20.7169 6.91489C20.7126 6.63775 20.6835 6.60486 20.4042 6.60324C19.4619 6.59785 18.5196 6.60324 17.5772 6.60054C16.9939 6.59893 16.4107 6.61295 15.8284 6.59138C15.7842 6.59138 15.739 6.59623 15.6942 6.58976C15.4926 6.56172 15.4236 6.65123 15.4263 6.84911C15.4338 7.37914 15.4263 7.90917 15.4301 8.43919C15.4311 8.61874 15.381 8.7708 15.2689 8.91099C13.7702 10.7825 12.2731 12.6551 10.7723 14.5256C10.7163 14.579 10.6974 14.6464 10.7017 14.7219C10.6952 15.934 10.7119 17.1455 10.6952 18.3571C10.6947 18.3922 10.6947 18.4272 10.6958 18.4623C10.7146 18.7583 10.7033 19.0543 10.7033 19.3503C10.7044 22.4011 10.7039 25.4518 10.7039 28.5026C10.7039 28.6104 10.7076 28.7177 10.6958 28.825C10.7092 30.1892 10.6979 31.5533 10.7022 32.9169C10.7028 33.0604 10.6968 33.2043 10.7146 33.3461C10.7319 33.5154 10.8661 33.6055 10.9718 33.7117C12.8694 35.6118 14.7686 37.5093 16.6646 39.411C16.753 39.4989 16.8975 39.563 16.8683 39.7307Z" fill="#FCB22E"/>
<path d="M20.8549 8.73035C20.8549 8.02994 20.8549 7.32953 20.8549 6.5752C21.0258 6.73264 21.1681 6.85396 21.2997 6.98606C22.2382 7.93073 23.1714 8.88132 24.1132 9.82276C25.0296 10.7394 25.9569 11.6447 26.8733 12.5608C27.8216 13.5087 28.7601 14.4668 29.7079 15.4153C30.4782 16.1863 31.2588 16.9477 32.0297 17.7182C32.8389 18.5275 33.6394 19.3454 34.4481 20.1548C35.2125 20.9194 35.985 21.6758 36.75 22.4399C37.4206 23.1096 38.0853 23.7857 38.7532 24.4575C38.8794 24.5842 39.0072 24.7104 39.1419 24.8274C39.2514 24.9229 39.3123 25.0318 39.3004 25.1779C38.8373 26.9907 38.1139 28.6967 37.1349 30.2873C34.281 34.9265 30.2238 37.9703 24.9558 39.3668C22.3547 40.0559 19.7131 40.1664 17.0511 39.7771C16.9897 39.7679 16.9298 39.7469 16.8694 39.7313C16.8048 39.6574 16.7444 39.5797 16.6754 39.5102C14.7406 37.5734 12.8047 35.6377 10.8694 33.7015C10.7998 33.6319 10.7362 33.5564 10.6699 33.4836C10.7486 33.3882 10.8602 33.3893 10.9664 33.3893C14.1692 33.3893 17.3719 33.3763 20.5746 33.3947C21.0301 33.3806 21.4857 33.3914 21.9412 33.3914C23.1067 33.386 24.2722 33.3833 25.4377 33.3914C26.5332 33.3839 27.6286 33.3909 28.724 33.3866C29.1849 33.385 29.2858 33.2814 29.2879 32.8069C29.2917 31.9987 29.289 31.1904 29.289 30.3822C29.289 25.6761 29.289 20.97 29.289 16.2634C29.289 15.7156 29.2884 15.7156 28.7445 15.7156C27.8108 15.7156 26.8766 15.7161 25.9429 15.7151C25.8178 15.7151 25.6906 15.7242 25.573 15.6655C25.4561 15.5754 25.4755 15.4428 25.4695 15.3204C25.4588 15.0966 25.4846 14.8723 25.448 14.6502C25.2873 14.3035 25.0119 14.0409 24.7779 13.7492C23.8711 12.6174 22.9682 11.4829 22.0593 10.3528C21.7115 9.92035 21.3714 9.48145 21.0167 9.05494C20.9396 8.96059 20.8366 8.87485 20.8549 8.73035Z" fill="#EF9A00"/>
<path d="M10.6259 28.8471C10.6222 28.7845 10.6152 28.722 10.6152 28.6595C10.6146 25.3208 10.6146 21.9815 10.6152 18.6429C10.6152 18.5712 10.6211 18.4994 10.6243 18.4283C10.7203 18.3377 10.8416 18.356 10.9564 18.356C14.0578 18.3544 17.1586 18.3544 20.26 18.356C20.3748 18.356 20.495 18.3409 20.598 18.4153C20.6886 18.5313 20.6762 18.6693 20.6762 18.8025C20.6778 22.0204 20.6778 25.2383 20.6762 28.4562C20.6762 28.5894 20.6886 28.7269 20.6056 28.846C20.4902 28.9377 20.3516 28.9253 20.2185 28.9253C17.1408 28.9269 14.0626 28.9269 10.985 28.9253C10.861 28.9247 10.7311 28.9388 10.6259 28.8471Z" fill="#F5F5F5"/>
<path d="M10.627 28.8474C13.8847 28.848 17.1424 28.8485 20.4007 28.8485C20.4632 28.8485 20.5258 28.841 20.5883 28.8372C20.9414 28.6949 21.2983 28.7261 21.6557 28.8183C21.6826 28.8485 21.6832 28.8793 21.6568 28.91C21.5193 29.0022 21.3624 28.9752 21.2126 28.9769C20.6557 28.9828 20.6762 28.9386 20.6762 29.5274C20.6756 30.7028 20.6772 31.8782 20.6745 33.0537C20.674 33.1939 20.7015 33.3443 20.5904 33.4635C20.4832 33.4672 20.3759 33.4743 20.2686 33.4743C17.1764 33.4748 14.0842 33.4748 10.992 33.4753C10.8847 33.4753 10.7774 33.4807 10.6696 33.484C10.6162 33.4495 10.6162 33.3945 10.6162 33.3411C10.6194 31.8432 10.6232 30.3453 10.627 28.8474Z" fill="#2867AA"/>
<path d="M20.8546 8.73025C21.95 10.1025 23.046 11.4747 24.1409 12.8475C24.5932 13.4148 25.0417 13.9841 25.4924 14.553C25.3625 14.6651 25.2034 14.6344 25.0541 14.635C23.7533 14.6376 22.4525 14.6371 21.1516 14.636C20.963 14.636 20.7748 14.6409 20.5883 14.6732C20.4638 14.6937 20.3382 14.6916 20.2125 14.6916C17.1812 14.6921 14.1494 14.6926 11.1181 14.6894C10.9553 14.6894 10.772 14.7423 10.6421 14.581C10.6513 14.5357 10.6804 14.5099 10.7235 14.4969C10.8469 14.4667 10.9731 14.4727 11.0987 14.4727C14.0896 14.4727 17.0804 14.4727 20.0708 14.4721C20.1592 14.4721 20.2487 14.4834 20.3748 14.4452C20.0589 14.0456 19.7559 13.6612 19.4492 13.281C18.412 11.9945 17.4001 10.687 16.3354 9.42419C15.9327 8.94646 15.75 8.46389 15.819 7.85729C15.8443 7.63569 15.8195 7.40869 15.8238 7.18384C15.8287 6.95954 15.8254 6.73685 15.7403 6.52441C17.3608 6.52225 18.9807 6.52171 20.6012 6.51416C20.7689 6.51362 20.8142 6.56862 20.8115 6.73038C20.8028 7.30354 20.8061 7.87671 20.8104 8.44987C20.8109 8.54315 20.7721 8.64775 20.8546 8.73025Z" fill="#E3E3E1"/>
<path d="M10.6418 14.5806C10.8655 14.5854 11.0887 14.594 11.3124 14.594C14.4046 14.5967 17.4963 14.5978 20.5885 14.5994C20.6769 14.6825 20.6742 14.7941 20.6748 14.9003C20.6791 15.9674 20.6796 17.035 20.6748 18.102C20.6742 18.2007 20.6699 18.3005 20.6009 18.3819C20.5152 18.4202 20.4241 18.4024 20.3351 18.4029C17.1869 18.404 14.0391 18.404 10.8908 18.4024C10.803 18.4024 10.7113 18.4261 10.6278 18.3759C10.6245 17.1363 10.6213 15.8967 10.6191 14.6571C10.6191 14.6318 10.6337 14.6064 10.6418 14.5806Z" fill="#2867AA"/>
<path d="M10.6272 18.3764C13.9486 18.3747 17.2694 18.3726 20.5907 18.371C20.8047 18.234 21.043 18.3041 21.271 18.2944C21.6133 18.2804 21.6333 18.2712 21.6344 17.9256C21.6371 17.2996 21.6333 16.6741 21.6365 16.0481C21.6371 15.9155 21.6214 15.7775 21.7147 15.6626C21.8187 15.5904 21.9389 15.6065 22.0543 15.6065C23.0964 15.6049 24.1384 15.6044 25.1799 15.606C25.5746 15.6065 25.6333 15.661 25.6344 16.0568C25.6387 17.5843 25.636 19.1113 25.636 20.6388C25.636 20.7019 25.6355 20.7644 25.636 20.8275C25.6387 21.2459 25.6452 21.254 26.0527 21.2546C26.8075 21.2562 27.5616 21.2508 28.3164 21.2584C28.4484 21.2594 28.6123 21.2168 28.6813 21.3985C28.5962 21.4832 28.4856 21.4821 28.3789 21.4821C27.4366 21.4821 26.4948 21.494 25.553 21.4773C24.6554 21.4934 23.7578 21.4794 22.8602 21.4848C22.4667 21.487 22.4559 21.4956 22.4559 21.8951C22.4554 25.3524 22.4554 28.8092 22.4559 32.2665C22.4559 32.6785 22.464 32.6839 22.8791 32.6866C23.7681 32.6914 24.6565 32.6763 25.5455 32.6936C26.4942 32.6785 27.443 32.6882 28.3918 32.6887C28.4813 32.6887 28.5714 32.6946 28.6506 32.7453C28.725 32.8284 28.6474 32.8532 28.5945 32.8753C28.4932 32.9184 28.3832 32.9098 28.2759 32.9098C27.5056 32.9114 26.7347 32.9136 25.9643 32.9082C25.7541 32.9065 25.6177 32.9551 25.6193 33.1999C25.6198 33.3158 25.595 33.4371 25.4446 33.463C24.2754 33.4625 23.1061 33.4625 21.9362 33.4619C21.6662 33.3767 21.6365 33.1594 21.6365 32.9227C21.6349 31.6653 21.6392 30.4074 21.6344 29.15C21.6338 29.0605 21.6252 28.9694 21.6743 28.8874C21.6743 28.8712 21.671 28.855 21.6656 28.8394C21.6252 28.7267 21.6344 28.6097 21.6344 28.4932C21.6349 25.3276 21.6344 22.162 21.6349 18.9959C21.6349 18.9598 21.6354 18.9242 21.6344 18.8881C21.629 18.5419 21.609 18.5295 21.2694 18.5144C21.0414 18.5047 20.8009 18.5759 20.588 18.4324C18.2004 18.4303 15.8133 18.4281 13.4256 18.4265C12.4919 18.426 11.5588 18.4265 10.6251 18.426C10.617 18.4103 10.6181 18.3931 10.6272 18.3764Z" fill="#A6BADF"/>
<path d="M15.7404 6.52476C15.8606 6.57328 15.9048 6.65362 15.9027 6.79112C15.893 7.32977 15.9151 7.86896 15.8919 8.40654C15.88 8.6756 15.9895 8.8627 16.1453 9.05411C16.6962 9.73295 17.2396 10.4188 17.7884 11.0998C18.3658 11.8153 18.9485 12.5265 19.5248 13.2426C19.858 13.6567 20.1836 14.0778 20.514 14.4983C20.4251 14.5765 20.3415 14.5458 20.2666 14.5458C17.1792 14.5479 14.0919 14.5479 11.0045 14.5458C10.9102 14.5458 10.805 14.5808 10.7236 14.4962C11.5371 13.4733 12.3501 12.4494 13.1646 11.4276C13.846 10.5736 14.5285 9.72001 15.2153 8.87025C15.3113 8.75162 15.3539 8.63354 15.3517 8.48041C15.3436 7.95146 15.3485 7.42251 15.3485 6.89356C15.349 6.5048 15.349 6.50481 15.7404 6.52476Z" fill="#F5F5F5"/>
<path d="M28.6723 21.4005C28.5957 21.305 28.489 21.3455 28.3957 21.3449C27.5607 21.3417 26.7262 21.3433 25.8911 21.3428C25.5483 21.3428 25.5483 21.3422 25.5483 20.9874C25.5483 19.3175 25.5434 17.6471 25.5537 15.9772C25.5553 15.74 25.4917 15.6731 25.2534 15.6758C24.0776 15.6877 22.9013 15.6812 21.7256 15.6807C21.752 15.5308 21.8792 15.5464 21.9768 15.5453C23.0846 15.5346 24.1925 15.5362 25.3003 15.5432C25.3909 15.5437 25.4782 15.5621 25.5483 15.6273C26.7062 15.6316 27.8647 15.6435 29.0227 15.6338C29.2842 15.6316 29.372 15.6812 29.3715 15.9686C29.3618 21.6005 29.3645 27.2324 29.3645 32.8642C29.3645 33.3883 29.2788 33.4751 28.7575 33.4741C27.6529 33.4714 26.5488 33.4676 25.4442 33.4638C25.5639 33.3657 25.5558 33.2244 25.5445 33.0966C25.5267 32.8863 25.5989 32.8195 25.8146 32.8227C26.675 32.8346 27.5353 32.8292 28.3957 32.826C28.489 32.8254 28.5957 32.8659 28.6717 32.7704C28.5779 32.6669 28.5877 32.5375 28.5877 32.4129C28.586 28.8613 28.586 25.3096 28.5877 21.7574C28.5877 21.6334 28.5785 21.504 28.6723 21.4005Z" fill="#94A6CC"/>
<path d="M25.5489 15.6278C24.3678 15.6294 23.1866 15.6299 22.0055 15.6348C21.9122 15.6353 21.8071 15.5949 21.7268 15.6812C21.723 16.484 21.7095 17.2874 21.7209 18.0903C21.7241 18.327 21.6599 18.4057 21.4217 18.3858C21.1467 18.362 20.8691 18.3744 20.5925 18.3712C20.5915 17.1138 20.5909 15.8569 20.5898 14.5995C20.6982 14.5359 20.8173 14.5618 20.9316 14.5618C22.4524 14.558 23.9726 14.5559 25.4934 14.5537C25.6158 14.7877 25.5257 15.039 25.5495 15.2811C25.5597 15.3954 25.5495 15.5119 25.5489 15.6278Z" fill="#2867AA"/>
<path d="M21.673 28.8886C21.7312 28.9883 21.7124 29.0983 21.7124 29.2046C21.7134 30.435 21.7178 31.6649 21.7086 32.8953C21.707 33.1261 21.7426 33.3202 21.935 33.4631C21.4859 33.4631 21.0374 33.4636 20.5884 33.4636C20.5884 32.0359 20.5921 30.6075 20.5835 29.1798C20.5824 28.963 20.6315 28.8719 20.8644 28.8881C21.1334 28.9064 21.4035 28.8897 21.673 28.8886Z" fill="#2867AA"/>
<path d="M17.3213 22.2018C17.6933 22.1926 17.972 22.019 18.235 21.8146C18.6766 21.4712 19.1758 21.3795 19.7095 21.4933C20.1725 21.592 20.3078 21.9397 20.0658 22.3479C19.6733 23.0111 18.8388 23.3066 18.1111 23.0397C17.8561 22.9464 17.5585 23.0952 17.5272 23.3891C17.4296 24.3073 17.1283 25.1733 16.8862 26.0549C16.8442 26.2075 16.8722 26.3525 16.9218 26.5024C17.2075 27.3662 16.807 27.9625 15.8986 28.0299C15.6663 28.0472 15.4329 28.0493 15.2016 27.9981C14.4485 27.8315 14.1369 27.3478 14.3649 26.607C14.4593 26.3002 14.4361 26.0317 14.345 25.7432C14.1072 24.99 13.8862 24.2335 13.7978 23.443C13.7574 23.0796 13.4614 22.9216 13.132 23.078C12.4177 23.4177 11.4021 22.7803 11.1762 22.2039C11.0544 21.8918 11.1762 21.6157 11.5018 21.5219C12.0388 21.3671 12.5504 21.4421 13.014 21.7677C13.2566 21.9381 13.4911 22.122 13.7913 22.1824C13.8517 22.1948 13.9121 22.2217 13.9816 22.184C13.7466 21.6146 13.5045 21.0485 13.2797 20.4753C13.1655 20.1836 13.0792 19.8806 12.9854 19.5813C12.9487 19.4643 12.8781 19.3209 13.0183 19.2395C13.1784 19.1467 13.2636 19.3058 13.3412 19.4012C13.732 19.8833 14.0544 20.4133 14.3946 20.9309C14.5477 21.1633 14.7008 21.3968 14.835 21.64C14.9213 21.7958 15.0205 21.8583 15.2 21.8217C15.4927 21.7623 15.7897 21.7629 16.0835 21.8184C16.2749 21.8545 16.3887 21.7996 16.4943 21.6222C16.9127 20.9207 17.3558 20.2343 17.8356 19.5721C17.9035 19.4783 17.9828 19.3915 18.0636 19.3079C18.1256 19.2432 18.1989 19.1742 18.297 19.2357C18.3871 19.2923 18.3881 19.3883 18.3607 19.4772C18.2652 19.7857 18.1704 20.0946 18.0642 20.3993C17.869 20.9589 17.6243 21.4987 17.3811 22.039C17.359 22.0853 17.345 22.1349 17.3213 22.2018Z" fill="#2867AA"/>
<path d="M20.5874 18.4347C20.9017 18.4336 21.216 18.4369 21.5303 18.4298C21.6672 18.4266 21.7324 18.4741 21.72 18.6164C21.7146 18.6789 21.7195 18.742 21.7195 18.8051C21.7195 22.0392 21.72 25.2733 21.7173 28.5074C21.7173 28.619 21.7615 28.7425 21.6645 28.8406C21.3055 28.8395 20.9464 28.8384 20.5874 28.8368C20.5874 25.3698 20.5874 21.9022 20.5874 18.4347Z" fill="#D8D8D8"/>
<path d="M25.5472 32.7718C24.5784 32.7739 23.6091 32.7701 22.6404 32.7831C22.4269 32.7858 22.3687 32.7227 22.3692 32.5103C22.3768 30.2667 22.3735 28.0236 22.3735 25.78C22.3735 24.4073 22.3778 23.0339 22.3687 21.6611C22.3671 21.4487 22.4258 21.3851 22.6398 21.3878C23.6086 21.4007 24.5779 21.3969 25.5466 21.3991C25.6415 21.5015 25.6361 21.6299 25.6361 21.755C25.6377 25.3088 25.6377 28.8621 25.6361 32.4159C25.6361 32.541 25.642 32.6693 25.5472 32.7718Z" fill="#FEFEFE"/>
<path d="M25.5474 32.7716C25.5474 28.9806 25.5474 25.1895 25.5474 21.3984C26.5894 21.399 27.6315 21.3995 28.673 21.4001C28.673 25.19 28.673 28.98 28.673 32.77C27.6309 32.7706 26.5889 32.7711 25.5474 32.7716Z" fill="#E4E4E4"/>
<path d="M15.6092 21.8911C15.9429 21.9041 16.2205 21.9202 16.4939 21.9785C17.0426 22.0955 17.2831 22.3683 17.3602 22.9291C17.4184 23.3539 17.399 23.7729 17.2831 24.1838C17.1149 24.7796 16.9338 25.3721 16.7645 25.9674C16.7321 26.0817 16.7046 26.099 16.5828 26.0553C15.9715 25.8369 15.3526 25.8445 14.7391 26.0494C14.6356 26.0839 14.5833 26.1092 14.5483 25.976C14.3488 25.2125 14.0496 24.4755 13.9359 23.6888C13.8901 23.3728 13.9235 23.0606 13.9849 22.7522C14.0906 22.2195 14.4707 22.0065 14.9672 21.9472C15.1979 21.9192 15.4313 21.9062 15.6092 21.8911Z" fill="#F5F5F5"/>
<path d="M16.6585 26.68C16.6493 26.9016 16.576 27.0536 16.3512 27.066C16.1668 27.0763 16.1237 26.9399 16.1318 26.797C16.1426 26.6061 16.1754 26.3937 16.417 26.3786C16.6148 26.3662 16.6445 26.5409 16.6585 26.68Z" fill="#EFF4F4"/>
<path d="M15.1848 26.81C15.1718 26.928 15.1535 27.072 14.9686 27.0666C14.7438 27.0601 14.6624 26.9081 14.657 26.7075C14.6527 26.5431 14.698 26.3964 14.8904 26.3732C15.0441 26.3549 15.1821 26.5592 15.1848 26.81Z" fill="#EFF4F4"/>
<path d="M16.7432 23.4351C16.9244 23.4485 17.0268 23.5488 17.023 23.7278C17.0198 23.8928 16.9217 23.9964 16.7508 24.0012C16.5686 24.0066 16.4548 23.9058 16.4527 23.7268C16.4505 23.5488 16.5632 23.4529 16.7432 23.4351Z" fill="#2867AA"/>
<path d="M14.5697 24.0064C14.3891 23.9881 14.2834 23.8915 14.2882 23.7136C14.2931 23.5373 14.3998 23.4338 14.5794 23.4392C14.7573 23.444 14.8624 23.5535 14.8602 23.7276C14.8586 23.9061 14.7395 23.9913 14.5697 24.0064Z" fill="#2867AA"/>
</svg>
