<svg width="251" height="114" viewBox="0 0 251 114" fill="none" xmlns="http://www.w3.org/2000/svg">
<path d="M5.55015 98.22L10.4292 103.881V104H8.06615L3.37415 98.441V104H1.43615V92.984H3.37415V98.169L8.01515 92.984H10.2082V93.103L5.55015 98.22ZM15.9411 96.231C16.2585 96.231 16.5871 96.282 16.9271 96.384L16.6211 98.254C16.4398 98.186 16.2698 98.135 16.1111 98.101C15.9525 98.067 15.7768 98.05 15.5841 98.05C15.2555 98.05 14.9438 98.1237 14.6491 98.271C14.3658 98.4183 14.0825 98.696 13.7991 99.104V104H11.9631V96.469L13.7991 96.299V97.37C14.0711 96.996 14.3885 96.7127 14.7511 96.52C15.1251 96.3273 15.5218 96.231 15.9411 96.231ZM19.4107 95.109C19.1954 95.109 18.9914 95.058 18.7987 94.956C18.6174 94.8427 18.4701 94.6953 18.3567 94.514C18.2434 94.3213 18.1867 94.1173 18.1867 93.902C18.1867 93.6867 18.2434 93.4883 18.3567 93.307C18.4701 93.1143 18.6174 92.9613 18.7987 92.848C18.9914 92.7347 19.1954 92.678 19.4107 92.678C19.6374 92.678 19.8471 92.7347 20.0397 92.848C20.2324 92.9613 20.3854 93.1143 20.4987 93.307C20.6121 93.4883 20.6687 93.6867 20.6687 93.902C20.6687 94.1173 20.6121 94.3213 20.4987 94.514C20.3854 94.6953 20.2324 94.8427 20.0397 94.956C19.8471 95.058 19.6374 95.109 19.4107 95.109ZM18.5267 104V96.486L20.3627 96.299V104H18.5267ZM25.3991 104.221C24.7078 104.221 24.0844 104.136 23.5291 103.966C22.9851 103.796 22.4751 103.541 21.9991 103.201L22.7811 101.96C23.5858 102.538 24.4414 102.827 25.3481 102.827C25.7901 102.827 26.1244 102.753 26.3511 102.606C26.5891 102.459 26.7081 102.249 26.7081 101.977C26.7081 101.818 26.6628 101.682 26.5721 101.569C26.4928 101.444 26.3398 101.325 26.1131 101.212C25.8864 101.099 25.5634 100.985 25.1441 100.872L24.6341 100.736C23.8294 100.521 23.2458 100.237 22.8831 99.886C22.5204 99.5347 22.3391 99.07 22.3391 98.492C22.3391 98.05 22.4638 97.659 22.7131 97.319C22.9624 96.979 23.3081 96.7127 23.7501 96.52C24.2034 96.3273 24.7134 96.231 25.2801 96.231C26.3568 96.231 27.3598 96.503 28.2891 97.047L27.5751 98.271C27.0991 98.0217 26.6968 97.8517 26.3681 97.761C26.0394 97.6703 25.6881 97.625 25.3141 97.625C24.9628 97.625 24.6908 97.693 24.4981 97.829C24.3054 97.965 24.2091 98.1463 24.2091 98.373C24.2091 98.509 24.2431 98.628 24.3111 98.73C24.3791 98.8207 24.4981 98.9057 24.6681 98.985C24.8381 99.053 25.0818 99.1267 25.3991 99.206L25.9431 99.342C26.8611 99.5913 27.5241 99.9143 27.9321 100.311C28.3514 100.696 28.5611 101.195 28.5611 101.807C28.5611 102.272 28.4421 102.685 28.2041 103.048C27.9661 103.411 27.6091 103.7 27.1331 103.915C26.6571 104.119 26.0791 104.221 25.3991 104.221ZM34.8296 96.231C35.5663 96.231 36.1386 96.418 36.5466 96.792C36.9546 97.166 37.1586 97.7497 37.1586 98.543V104H35.3226V99.172C35.3226 98.798 35.2829 98.509 35.2036 98.305C35.1243 98.0897 34.9939 97.9367 34.8126 97.846C34.6426 97.7553 34.4046 97.71 34.0986 97.71C33.4979 97.71 32.8689 97.88 32.2116 98.22V104H30.3756V92.304L32.2116 92.117V96.962C33.0843 96.4747 33.9569 96.231 34.8296 96.231ZM44.0502 96.231C44.7869 96.231 45.3536 96.4237 45.7502 96.809C46.1582 97.183 46.3622 97.7723 46.3622 98.577V104H44.5262V99.172C44.5262 98.798 44.4866 98.509 44.4072 98.305C44.3392 98.0897 44.2146 97.9367 44.0332 97.846C43.8632 97.7553 43.6252 97.71 43.3192 97.71C42.7412 97.71 42.1009 97.8857 41.3982 98.237V104H39.5622V96.486L41.3982 96.299V97.03C42.3162 96.4973 43.2002 96.231 44.0502 96.231ZM51.9951 96.231C52.9244 96.231 53.6214 96.4293 54.0861 96.826C54.5507 97.2227 54.7831 97.8573 54.7831 98.73V104H53.1851L53.0491 103.371C52.6297 103.677 52.1991 103.892 51.7571 104.017C51.3264 104.153 50.8787 104.221 50.4141 104.221C49.9607 104.221 49.5584 104.136 49.2071 103.966C48.8671 103.796 48.6007 103.558 48.4081 103.252C48.2154 102.935 48.1191 102.572 48.1191 102.164C48.1191 101.552 48.3344 101.042 48.7651 100.634C49.1957 100.215 49.7737 99.903 50.4991 99.699C51.2244 99.495 52.0404 99.3817 52.9471 99.359V99.07C52.9471 98.5827 52.8564 98.2313 52.6751 98.016C52.4937 97.8007 52.1764 97.693 51.7231 97.693C50.9411 97.693 50.1024 97.982 49.2071 98.56L48.4591 97.387C49.0031 97.0017 49.5641 96.7127 50.1421 96.52C50.7201 96.3273 51.3377 96.231 51.9951 96.231ZM50.0401 101.96C50.0401 102.232 50.1194 102.442 50.2781 102.589C50.4481 102.725 50.6917 102.793 51.0091 102.793C51.6437 102.793 52.2897 102.6 52.9471 102.215V100.583C52.0404 100.628 51.3264 100.77 50.8051 101.008C50.2951 101.235 50.0401 101.552 50.0401 101.96ZM73.1238 92.984V104H71.2198V96.265C71.0272 96.775 70.7948 97.2963 70.5228 97.829L68.1938 102.402H66.5278L64.2328 97.829C63.8702 97.1263 63.6208 96.5937 63.4848 96.231V104H61.6148V92.984H63.7058L66.2048 97.829C66.7828 98.9737 67.1738 99.852 67.3778 100.464C67.5932 99.7953 67.9842 98.917 68.5508 97.829L71.0668 92.984H73.1238ZM76.6781 95.109C76.4628 95.109 76.2588 95.058 76.0661 94.956C75.8848 94.8427 75.7375 94.6953 75.6241 94.514C75.5108 94.3213 75.4541 94.1173 75.4541 93.902C75.4541 93.6867 75.5108 93.4883 75.6241 93.307C75.7375 93.1143 75.8848 92.9613 76.0661 92.848C76.2588 92.7347 76.4628 92.678 76.6781 92.678C76.9048 92.678 77.1145 92.7347 77.3071 92.848C77.4998 92.9613 77.6528 93.1143 77.7661 93.307C77.8795 93.4883 77.9361 93.6867 77.9361 93.902C77.9361 94.1173 77.8795 94.3213 77.7661 94.514C77.6528 94.6953 77.4998 94.8427 77.3071 94.956C77.1145 95.058 76.9048 95.109 76.6781 95.109ZM75.7941 104V96.486L77.6301 96.299V104H75.7941ZM80.1165 104V92.304L81.9525 92.117V104H80.1165ZM88.2809 99.954L91.3919 103.881V104H89.1989L86.2749 100.141V104H84.4389V92.304L86.2749 92.117V99.886L89.2499 96.469H91.2389V96.571L88.2809 99.954ZM101.112 92.984C102.03 92.984 102.8 93.1313 103.424 93.426C104.047 93.7093 104.512 94.1117 104.818 94.633C105.135 95.143 105.294 95.738 105.294 96.418C105.294 97.1207 105.135 97.7497 104.818 98.305C104.5 98.8603 104.019 99.3023 103.373 99.631C102.727 99.9483 101.939 100.107 101.01 100.107H99.2927V104H97.3547V92.984H101.112ZM100.84 98.509C102.472 98.509 103.288 97.8347 103.288 96.486C103.288 95.8627 103.101 95.3923 102.727 95.075C102.353 94.7463 101.803 94.582 101.078 94.582H99.2927V98.509H100.84ZM111.079 96.231C111.397 96.231 111.725 96.282 112.065 96.384L111.759 98.254C111.578 98.186 111.408 98.135 111.249 98.101C111.091 98.067 110.915 98.05 110.722 98.05C110.394 98.05 110.082 98.1237 109.787 98.271C109.504 98.4183 109.221 98.696 108.937 99.104V104H107.101V96.469L108.937 96.299V97.37C109.209 96.996 109.527 96.7127 109.889 96.52C110.263 96.3273 110.66 96.231 111.079 96.231ZM116.512 104.221C115.696 104.221 115.01 104.045 114.455 103.694C113.9 103.331 113.48 102.85 113.197 102.249C112.925 101.637 112.789 100.957 112.789 100.209C112.789 99.2683 112.965 98.5033 113.316 97.914C113.679 97.3247 114.16 96.8997 114.761 96.639C115.362 96.367 116.036 96.231 116.784 96.231C117.611 96.231 118.303 96.4067 118.858 96.758C119.413 97.098 119.827 97.5683 120.099 98.169C120.382 98.7697 120.524 99.4553 120.524 100.226C120.524 101.155 120.343 101.92 119.98 102.521C119.629 103.11 119.153 103.541 118.552 103.813C117.951 104.085 117.271 104.221 116.512 104.221ZM116.648 102.793C117.351 102.793 117.849 102.566 118.144 102.113C118.45 101.648 118.603 101.014 118.603 100.209C118.603 99.4043 118.444 98.781 118.127 98.339C117.821 97.8857 117.345 97.659 116.699 97.659C115.985 97.659 115.469 97.88 115.152 98.322C114.846 98.764 114.693 99.393 114.693 100.209C114.693 101.002 114.852 101.631 115.169 102.096C115.498 102.561 115.991 102.793 116.648 102.793ZM125.564 104.221C124.487 104.221 123.609 103.926 122.929 103.337C122.26 102.736 121.926 101.762 121.926 100.413C121.926 99.461 122.113 98.6733 122.487 98.05C122.861 97.4153 123.342 96.9563 123.932 96.673C124.521 96.3783 125.144 96.231 125.802 96.231C126.221 96.231 126.623 96.2877 127.009 96.401C127.394 96.503 127.813 96.673 128.267 96.911L127.604 98.203C127.23 98.0217 126.907 97.897 126.635 97.829C126.363 97.7497 126.085 97.71 125.802 97.71C125.19 97.71 124.708 97.9423 124.357 98.407C124.005 98.8717 123.83 99.5347 123.83 100.396C123.83 101.937 124.481 102.708 125.785 102.708C126.136 102.708 126.459 102.651 126.754 102.538C127.06 102.425 127.388 102.266 127.74 102.062L128.42 103.303C127.989 103.575 127.541 103.796 127.077 103.966C126.612 104.136 126.108 104.221 125.564 104.221ZM136.693 96.299V104H135.095L134.959 103.422C134.075 103.955 133.186 104.221 132.29 104.221C131.576 104.221 131.004 104.017 130.573 103.609C130.154 103.201 129.944 102.617 129.944 101.858V96.486L131.78 96.299V101.314C131.78 101.654 131.814 101.926 131.882 102.13C131.962 102.334 132.092 102.487 132.273 102.589C132.455 102.68 132.704 102.725 133.021 102.725C133.52 102.725 134.132 102.532 134.857 102.147V96.486L136.693 96.299ZM143.177 96.231C143.495 96.231 143.823 96.282 144.163 96.384L143.857 98.254C143.676 98.186 143.506 98.135 143.347 98.101C143.189 98.067 143.013 98.05 142.82 98.05C142.492 98.05 142.18 98.1237 141.885 98.271C141.602 98.4183 141.319 98.696 141.035 99.104V104H139.199V96.469L141.035 96.299V97.37C141.307 96.996 141.625 96.7127 141.987 96.52C142.361 96.3273 142.758 96.231 143.177 96.231ZM151.84 99.461C151.84 99.8123 151.823 100.192 151.789 100.6H146.723C146.768 101.348 146.978 101.898 147.352 102.249C147.737 102.6 148.213 102.776 148.78 102.776C149.188 102.776 149.556 102.725 149.885 102.623C150.214 102.51 150.588 102.334 151.007 102.096L151.653 103.286C151.245 103.569 150.786 103.796 150.276 103.966C149.777 104.136 149.233 104.221 148.644 104.221C147.919 104.221 147.273 104.091 146.706 103.83C146.151 103.569 145.709 103.15 145.38 102.572C145.051 101.994 144.887 101.246 144.887 100.328C144.887 99.5347 145.029 98.832 145.312 98.22C145.595 97.5967 146.015 97.1093 146.57 96.758C147.125 96.4067 147.794 96.231 148.576 96.231C149.279 96.231 149.874 96.3727 150.361 96.656C150.848 96.928 151.217 97.3133 151.466 97.812C151.715 98.2993 151.84 98.849 151.84 99.461ZM148.593 97.557C148.094 97.557 147.698 97.71 147.403 98.016C147.108 98.322 146.91 98.7583 146.808 99.325H150.072V99.274C150.072 98.6847 149.936 98.254 149.664 97.982C149.403 97.6987 149.046 97.557 148.593 97.557ZM162.747 96.231C163.427 96.231 163.954 96.4237 164.328 96.809C164.713 97.183 164.906 97.761 164.906 98.543V104H163.07V99.172C163.07 98.798 163.036 98.509 162.968 98.305C162.9 98.0897 162.792 97.9367 162.645 97.846C162.498 97.7553 162.294 97.71 162.033 97.71C161.478 97.71 160.877 97.88 160.231 98.22C160.242 98.288 160.248 98.3957 160.248 98.543V104H158.412V99.172C158.412 98.798 158.378 98.509 158.31 98.305C158.242 98.0897 158.134 97.9367 157.987 97.846C157.84 97.7553 157.636 97.71 157.375 97.71C157.103 97.71 156.814 97.7553 156.508 97.846C156.202 97.9367 155.902 98.0613 155.607 98.22V104H153.771V96.486L155.607 96.299V96.962C156.457 96.4747 157.284 96.231 158.089 96.231C158.95 96.231 159.551 96.5143 159.891 97.081C160.322 96.8317 160.781 96.6277 161.268 96.469C161.755 96.3103 162.248 96.231 162.747 96.231ZM173.733 99.461C173.733 99.8123 173.716 100.192 173.682 100.6H168.616C168.661 101.348 168.871 101.898 169.245 102.249C169.63 102.6 170.106 102.776 170.673 102.776C171.081 102.776 171.449 102.725 171.778 102.623C172.107 102.51 172.481 102.334 172.9 102.096L173.546 103.286C173.138 103.569 172.679 103.796 172.169 103.966C171.67 104.136 171.126 104.221 170.537 104.221C169.812 104.221 169.166 104.091 168.599 103.83C168.044 103.569 167.602 103.15 167.273 102.572C166.944 101.994 166.78 101.246 166.78 100.328C166.78 99.5347 166.922 98.832 167.205 98.22C167.488 97.5967 167.908 97.1093 168.463 96.758C169.018 96.4067 169.687 96.231 170.469 96.231C171.172 96.231 171.767 96.3727 172.254 96.656C172.741 96.928 173.11 97.3133 173.359 97.812C173.608 98.2993 173.733 98.849 173.733 99.461ZM170.486 97.557C169.987 97.557 169.591 97.71 169.296 98.016C169.001 98.322 168.803 98.7583 168.701 99.325H171.965V99.274C171.965 98.6847 171.829 98.254 171.557 97.982C171.296 97.6987 170.939 97.557 170.486 97.557ZM180.152 96.231C180.889 96.231 181.455 96.4237 181.852 96.809C182.26 97.183 182.464 97.7723 182.464 98.577V104H180.628V99.172C180.628 98.798 180.588 98.509 180.509 98.305C180.441 98.0897 180.316 97.9367 180.135 97.846C179.965 97.7553 179.727 97.71 179.421 97.71C178.843 97.71 178.203 97.8857 177.5 98.237V104H175.664V96.486L177.5 96.299V97.03C178.418 96.4973 179.302 96.231 180.152 96.231ZM189.547 103.711C188.89 104.051 188.21 104.221 187.507 104.221C187.065 104.221 186.669 104.136 186.317 103.966C185.966 103.796 185.688 103.53 185.484 103.167C185.28 102.804 185.178 102.351 185.178 101.807V97.914H183.733V96.469H185.178V94.769L187.014 94.497V96.469H189.36L189.173 97.914H187.014V101.518C187.014 101.937 187.088 102.243 187.235 102.436C187.394 102.629 187.621 102.725 187.915 102.725C188.085 102.725 188.255 102.702 188.425 102.657C188.595 102.612 188.799 102.544 189.037 102.453L189.547 103.711ZM198.789 104.221C197.95 104.221 197.185 104.108 196.494 103.881C195.802 103.654 195.19 103.337 194.658 102.929L195.559 101.569C196.057 101.92 196.579 102.181 197.123 102.351C197.667 102.51 198.188 102.589 198.687 102.589C199.435 102.589 200.007 102.464 200.404 102.215C200.8 101.954 200.999 101.569 200.999 101.059C200.999 100.753 200.931 100.498 200.795 100.294C200.659 100.09 200.426 99.903 200.098 99.733C199.769 99.563 199.293 99.3647 198.67 99.138L198.347 99.019C197.621 98.747 197.038 98.4863 196.596 98.237C196.165 97.9877 195.814 97.6647 195.542 97.268C195.27 96.86 195.134 96.35 195.134 95.738C195.134 95.0807 195.315 94.531 195.678 94.089C196.052 93.6357 196.533 93.3013 197.123 93.086C197.712 92.8707 198.341 92.763 199.01 92.763C200.392 92.763 201.656 93.1483 202.801 93.919L201.917 95.279C201.407 94.9617 200.925 94.7293 200.472 94.582C200.03 94.4347 199.537 94.361 198.993 94.361C198.415 94.361 197.956 94.4743 197.616 94.701C197.276 94.9163 197.106 95.2393 197.106 95.67C197.106 95.908 197.168 96.1177 197.293 96.299C197.417 96.469 197.633 96.639 197.939 96.809C198.245 96.979 198.681 97.166 199.248 97.37L199.588 97.489C200.324 97.7497 200.919 98.0047 201.373 98.254C201.826 98.492 202.211 98.832 202.529 99.274C202.846 99.7047 203.005 100.266 203.005 100.957C203.005 101.66 202.823 102.26 202.461 102.759C202.109 103.246 201.616 103.615 200.982 103.864C200.358 104.102 199.627 104.221 198.789 104.221ZM211.203 96.469V96.571L208.602 104.17C208.342 104.941 208.053 105.558 207.735 106.023C207.418 106.499 207.05 106.845 206.63 107.06C206.211 107.275 205.712 107.383 205.134 107.383C204.624 107.383 204.097 107.292 203.553 107.111L204.029 105.768C204.347 105.87 204.664 105.921 204.981 105.921C205.253 105.921 205.491 105.881 205.695 105.802C205.899 105.723 206.092 105.558 206.273 105.309C206.466 105.071 206.653 104.714 206.834 104.238L206.919 104H206.426L203.57 96.571V96.469H205.508L207.072 100.94C207.254 101.439 207.395 101.892 207.497 102.3C207.679 101.643 207.809 101.189 207.888 100.94L209.316 96.469H211.203ZM215.232 104.221C214.541 104.221 213.917 104.136 213.362 103.966C212.818 103.796 212.308 103.541 211.832 103.201L212.614 101.96C213.419 102.538 214.274 102.827 215.181 102.827C215.623 102.827 215.957 102.753 216.184 102.606C216.422 102.459 216.541 102.249 216.541 101.977C216.541 101.818 216.496 101.682 216.405 101.569C216.326 101.444 216.173 101.325 215.946 101.212C215.719 101.099 215.396 100.985 214.977 100.872L214.467 100.736C213.662 100.521 213.079 100.237 212.716 99.886C212.353 99.5347 212.172 99.07 212.172 98.492C212.172 98.05 212.297 97.659 212.546 97.319C212.795 96.979 213.141 96.7127 213.583 96.52C214.036 96.3273 214.546 96.231 215.113 96.231C216.19 96.231 217.193 96.503 218.122 97.047L217.408 98.271C216.932 98.0217 216.53 97.8517 216.201 97.761C215.872 97.6703 215.521 97.625 215.147 97.625C214.796 97.625 214.524 97.693 214.331 97.829C214.138 97.965 214.042 98.1463 214.042 98.373C214.042 98.509 214.076 98.628 214.144 98.73C214.212 98.8207 214.331 98.9057 214.501 98.985C214.671 99.053 214.915 99.1267 215.232 99.206L215.776 99.342C216.694 99.5913 217.357 99.9143 217.765 100.311C218.184 100.696 218.394 101.195 218.394 101.807C218.394 102.272 218.275 102.685 218.037 103.048C217.799 103.411 217.442 103.7 216.966 103.915C216.49 104.119 215.912 104.221 215.232 104.221ZM224.938 103.711C224.281 104.051 223.601 104.221 222.898 104.221C222.456 104.221 222.06 104.136 221.708 103.966C221.357 103.796 221.079 103.53 220.875 103.167C220.671 102.804 220.569 102.351 220.569 101.807V97.914H219.124V96.469H220.569V94.769L222.405 94.497V96.469H224.751L224.564 97.914H222.405V101.518C222.405 101.937 222.479 102.243 222.626 102.436C222.785 102.629 223.012 102.725 223.306 102.725C223.476 102.725 223.646 102.702 223.816 102.657C223.986 102.612 224.19 102.544 224.428 102.453L224.938 103.711ZM232.766 99.461C232.766 99.8123 232.749 100.192 232.715 100.6H227.649C227.694 101.348 227.904 101.898 228.278 102.249C228.663 102.6 229.139 102.776 229.706 102.776C230.114 102.776 230.482 102.725 230.811 102.623C231.14 102.51 231.514 102.334 231.933 102.096L232.579 103.286C232.171 103.569 231.712 103.796 231.202 103.966C230.703 104.136 230.159 104.221 229.57 104.221C228.845 104.221 228.199 104.091 227.632 103.83C227.077 103.569 226.635 103.15 226.306 102.572C225.977 101.994 225.813 101.246 225.813 100.328C225.813 99.5347 225.955 98.832 226.238 98.22C226.521 97.5967 226.941 97.1093 227.496 96.758C228.051 96.4067 228.72 96.231 229.502 96.231C230.205 96.231 230.8 96.3727 231.287 96.656C231.774 96.928 232.143 97.3133 232.392 97.812C232.641 98.2993 232.766 98.849 232.766 99.461ZM229.519 97.557C229.02 97.557 228.624 97.71 228.329 98.016C228.034 98.322 227.836 98.7583 227.734 99.325H230.998V99.274C230.998 98.6847 230.862 98.254 230.59 97.982C230.329 97.6987 229.972 97.557 229.519 97.557ZM243.673 96.231C244.353 96.231 244.88 96.4237 245.254 96.809C245.639 97.183 245.832 97.761 245.832 98.543V104H243.996V99.172C243.996 98.798 243.962 98.509 243.894 98.305C243.826 98.0897 243.718 97.9367 243.571 97.846C243.424 97.7553 243.22 97.71 242.959 97.71C242.404 97.71 241.803 97.88 241.157 98.22C241.168 98.288 241.174 98.3957 241.174 98.543V104H239.338V99.172C239.338 98.798 239.304 98.509 239.236 98.305C239.168 98.0897 239.06 97.9367 238.913 97.846C238.766 97.7553 238.562 97.71 238.301 97.71C238.029 97.71 237.74 97.7553 237.434 97.846C237.128 97.9367 236.828 98.0613 236.533 98.22V104H234.697V96.486L236.533 96.299V96.962C237.383 96.4747 238.21 96.231 239.015 96.231C239.876 96.231 240.477 96.5143 240.817 97.081C241.248 96.8317 241.707 96.6277 242.194 96.469C242.681 96.3103 243.174 96.231 243.673 96.231Z" fill="#325FAC"/>
<path fill-rule="evenodd" clip-rule="evenodd" d="M219.157 19.2197C214.221 19.2197 211.798 21.2951 211.798 25.4459C211.798 27.431 212.606 28.8747 214.131 29.9575C215.657 31.0403 218.528 31.9427 222.566 32.845C237.552 35.552 245 44.034 245 58.2909C245 66.6826 242.667 73.1794 238.001 77.8715C233.335 82.4735 227.322 84.8195 219.874 84.8195C212.068 84.8195 205.966 82.3832 201.389 77.6008C196.813 72.8185 194.39 65.8705 194.121 56.9374H211.081C211.439 62.5318 214.401 65.3291 219.874 65.3291C222.297 65.3291 224.271 64.7877 225.617 63.6146C227.053 62.4416 227.771 60.9979 227.771 59.103C227.771 57.0276 226.963 55.3132 225.259 54.0499C223.554 52.7866 220.772 51.7941 216.734 50.982C209.735 49.5382 204.261 46.9214 200.492 43.1316C196.723 39.2516 194.839 33.6571 194.839 26.1677C194.839 18.0467 197.082 11.6401 201.658 6.94798C206.145 2.34607 212.068 0 219.336 0C226.425 0 232.168 2.43631 236.565 7.21868C240.962 12.0011 243.385 18.4979 243.833 26.7994H227.143C226.605 21.656 223.912 19.2197 219.157 19.2197ZM165.944 46.9214H157.689V85H143.78H143.69H111.476V46.2898L111.655 31.2208L99.8999 48.4554H91.8239L79.8892 31.1306L80.1584 46.2898V85H63.0192V0.721868H76.928L95.8619 28.3333L114.616 0.721868H143.6H143.69H165.855C172.944 0.721868 178.507 2.79724 182.725 7.03822C186.942 11.2792 189.096 16.8737 189.096 23.9119C189.096 30.9501 186.942 36.5446 182.725 40.6953C178.597 44.8461 172.944 46.9214 165.944 46.9214ZM136.242 9.65499C135.704 7.57962 134.627 5.86518 133.191 4.24098C133.102 4.15074 132.922 4.06051 132.653 3.78981C132.563 5.14331 132.025 6.13588 131.307 7.12845C131.038 7.48938 130.768 7.85032 130.499 8.21125C129.871 9.20382 129.512 10.1964 129.871 11.2792C130.589 13.1741 132.743 13.9862 134.537 12.9936C135.973 12.362 136.601 11.0085 136.242 9.65499ZM141.088 24.9045C141.537 23.8217 142.524 22.6486 142.434 21.5658C142.344 20.1221 141.178 19.8514 140.011 19.7611C140.46 19.2197 140.998 18.7686 141.626 18.4076C142.165 18.0467 142.613 17.5053 142.793 16.7834C142.793 16.603 142.972 16.3323 143.062 16.1518C143.87 15.1592 144.677 14.1667 146.023 13.896C146.113 13.896 146.292 13.7155 146.292 13.6253C146.292 13.535 146.203 13.3546 146.113 13.3546C146.023 13.2643 145.934 13.2643 145.754 13.1741C144.946 12.9936 144.229 13.1741 143.6 13.8057C142.883 14.5276 142.254 15.3397 141.537 16.1518C141.178 16.5127 140.729 16.8737 140.28 17.0541C140.011 17.1444 139.652 17.0541 139.293 17.1444C139.293 16.8737 139.293 16.5127 139.383 16.242C139.473 15.7909 139.652 15.4299 139.742 14.9788C139.832 14.5276 139.562 14.3471 139.203 14.5276C138.845 14.7081 138.486 14.8885 138.306 15.2495C138.037 15.6104 137.857 16.1518 137.678 16.5127C137.319 17.2346 136.87 17.9565 136.422 18.6783C136.153 19.1295 135.614 19.31 134.986 19.31C134.089 19.2197 133.371 18.8588 132.922 18.1369C132.294 17.2346 132.114 16.3323 132.114 15.2495C132.114 14.7081 131.935 14.5276 131.397 14.6178C130.858 14.7983 130.32 14.9788 129.781 15.3397C128.794 15.9713 128.346 15.8811 127.987 14.7983V14.7081C127.718 13.9862 127.359 13.7155 126.641 13.7155C126.282 13.7155 125.923 13.8057 125.564 13.8057C124.936 13.896 124.487 13.8057 124.128 13.2643C123.59 12.6327 122.872 12.4522 122.154 12.7229C121.795 12.8132 121.346 12.9936 121.436 13.3546C121.526 13.8057 121.975 13.7155 122.423 13.7155C122.872 13.7155 123.321 13.6253 123.769 13.6253C124.218 13.6253 124.487 13.8057 124.577 14.2569C124.667 14.7983 124.756 15.3397 124.846 15.8811C124.936 16.6932 125.295 17.3248 126.013 17.6858C127 18.2272 127.807 18.8588 128.435 19.7611C127.179 19.7611 125.923 20.2123 125.923 21.5658C125.923 22.6486 126.82 23.7314 127.359 24.9045C127.628 24.9045 127.807 24.9045 128.076 24.9045C126.282 30.3185 124.308 35.7325 122.603 41.2367C121.705 44.2144 120.539 47.3726 120.449 50.4406C120.18 61.9002 120.359 67.5849 120.449 79.0446H148.267C148.267 71.6454 147.997 69.2994 148.446 61.9904C148.895 52.4257 147.638 43.3121 143.959 34.4692C142.883 31.9427 142.165 29.3259 141.357 26.7994C141.088 26.0775 140.908 25.4459 140.729 24.724C140.639 24.8142 140.819 24.8142 141.088 24.9045ZM169.982 18.4979C168.636 17.1444 166.752 16.4225 164.329 16.4225H157.509V31.672H164.329C166.752 31.672 168.636 30.9501 169.982 29.5966C171.328 28.2431 172.046 26.3482 172.046 24.0924C172.046 21.7463 171.328 19.8514 169.982 18.4979ZM145.305 49.3577C145.305 54.4108 145.305 63.9756 145.305 69.0287C145.305 73.811 145.305 75.2548 145.305 75.2548L122.872 75.4352C122.782 66.9533 123.051 62.3514 123.051 53.8694C123.051 51.3429 126.013 49.1773 128.256 50.5308C132.025 52.7866 134.717 52.4257 137.857 49.1773C139.203 47.7335 141.985 47.914 144.229 47.4628C145.395 47.2824 145.305 48.4554 145.305 49.3577ZM133.55 12.0011C133.371 12.0011 133.191 11.7304 133.191 11.5499C133.191 11.4597 133.281 11.189 133.46 11.0987C133.909 10.7378 134.448 10.3769 134.896 10.1062C135.255 10.828 135.255 11.4597 134.627 11.9108C134.268 12.0011 133.909 12.0011 133.55 12.0011ZM19.229 60.0955V85H2V0.721868H19.229V25.4459L35.0222 0.721868H53.6869V2.61677L33.9453 45.5679L54.9431 83.1051V85H35.4708L19.229 60.0955Z" fill="#01A5E8"/>
</svg>
