<svg width="95" height="25" viewBox="0 0 95 25" fill="none" xmlns="http://www.w3.org/2000/svg">
<path d="M4.27798 14.478C4.26291 14.9471 4.10798 15.2828 3.90785 15.597C3.83253 15.7132 3.75507 15.8294 3.69266 15.9563C3.53127 16.2791 3.41291 16.6191 3.53127 17.0065C3.72924 17.6585 4.31456 17.9253 4.82456 17.6025C5.19253 17.368 5.36469 16.9225 5.27431 16.4577C5.13659 15.7476 4.82456 15.1601 4.43722 14.6243C4.40279 14.577 4.35545 14.549 4.27798 14.478ZM4.88697 16.5847C4.98595 16.8279 4.97519 17.043 4.8095 17.1808C4.73848 17.241 4.63089 17.2582 4.54051 17.2539C4.49962 17.2518 4.44368 17.1571 4.43076 17.0947C4.42216 17.0517 4.46089 16.9699 4.49532 16.9355C4.62443 16.8106 4.76 16.6987 4.88697 16.5847ZM24.6414 10.4173C24.5274 9.71152 24.0668 9.10254 23.4062 8.83355C22.78 8.57747 22.0742 8.53658 21.6718 8.52152C21.3877 8.52152 21.222 8.53013 20.981 8.53013C19.5027 8.53013 16.4298 8.5538 14.9492 8.53013C13.8927 8.51291 13.0879 7.66506 13.1847 6.69241C13.1976 6.55253 13.4063 6.32228 13.5247 6.32228C15.4399 6.30722 18.1147 6.30507 20.527 6.30507C23.3675 6.30507 21.958 4.50392 21.9085 4.44367C19.6339 1.73013 16.221 0 12.4014 0C5.5519 0 0 5.54544 0 12.3863C0 19.2272 5.5519 24.7727 12.4014 24.7727C12.5994 24.7727 12.7995 24.7512 12.991 24.7017C14.8137 24.2476 14.8201 23.3029 14.62 22.7241C14.5361 22.4809 14.3919 22.2614 14.2176 22.072L5.76279 12.9824L5.75418 12.9738L5.73051 12.9867C5.6681 13.0211 5.60785 13.0556 5.54545 13.09C5.54545 14.3446 5.5519 15.6013 5.5433 16.8558C5.53684 17.5875 5.07633 18.091 4.44152 18.1018C3.87342 18.1104 3.3957 17.6434 3.32038 17.0495C3.1181 15.4184 3.70342 13.359 5.00317 11.8871C6.5181 10.172 8.05671 8.47418 9.58671 6.77203C9.9633 6.35241 11.418 6.09418 11.8979 6.37393C12.2292 6.56544 12.2508 6.84519 12.0098 7.12709C11.73 7.45418 11.4309 7.76836 11.1404 8.08684C9.95254 9.38659 8.76469 10.6842 7.54241 12.0205L7.43266 12.0786L12.2142 17.028C17.3185 22.6724 20.0062 21.9042 20.8906 21.3533C21.1187 21.2113 21.6675 20.6217 21.8719 20.3785C22.4077 19.7458 22.8811 19.0594 23.2836 18.3256C24.2519 16.5632 24.8006 14.5382 24.8006 12.3863C24.8028 11.7149 24.7468 11.0586 24.6414 10.4173ZM5.50671 8.59469C5.46798 9.17355 5.30228 9.79975 5.00317 10.2882C4.58355 10.9747 3.98532 11.5535 3.35912 12.3024V6.42557C4.47165 6.23621 5.59064 7.32722 5.50671 8.59469ZM18.8011 17.4541C17.5487 17.4541 16.2942 17.4691 15.0418 17.4455C13.7765 17.4218 13.0599 16.5675 13.26 15.2871H21.7987C21.2027 16.9376 20.4796 17.4541 18.8011 17.4541ZM18.7818 13.1696C17.5272 13.1696 16.2705 13.1804 15.016 13.1632C13.9249 13.1481 13.1675 12.3928 13.1696 11.3835C13.1718 11.0887 13.2428 10.936 13.5763 10.9381C16.2748 10.9467 18.9733 10.9424 21.6718 10.9467C21.7213 10.9467 21.7708 10.9768 21.8203 10.9919C21.2048 12.6618 20.4925 13.1718 18.7818 13.1696Z" fill="url(#paint0_linear_1019_3394)"/>
<path d="M33.959 19.2553V17.4886H31.2003V16.3352H34.1914V14.5341H29.156V22.2207H34.2797V20.3872H31.2025V19.2553H33.959ZM40.0166 18.3989L37.1912 14.5341H35.6311V22.2207H37.6754V20.355L37.6431 18.3795L40.447 22.2228H42.0308V14.5362H39.9865V16.6666L40.0166 18.3989ZM43.1175 16.4213H45.0521V22.2185H47.1308V16.4213H49.0546V14.5319H43.1175V16.4213ZM54.9573 19.2553V17.4886H52.1985V16.3352H55.1897V14.5341H50.1542V22.2207H55.2779V20.3872H52.2007V19.2553H54.9573ZM62.0585 18.5022C62.3146 18.1105 62.4437 17.6393 62.4437 17.0905C62.4437 16.3008 62.1877 15.6767 61.6734 15.2184C61.1612 14.76 60.4532 14.5319 59.5516 14.5319H56.6272V22.2185H58.6822V19.4964L60.507 22.2185H62.7708V21.9883L60.9568 19.3651C61.4345 19.1822 61.8025 18.8938 62.0585 18.5022ZM59.4956 16.4213C59.7732 16.4213 59.9927 16.4923 60.1498 16.6365C60.3069 16.7785 60.3865 16.9851 60.3865 17.2562C60.3865 17.5188 60.3091 17.7232 60.1563 17.8652C60.0013 18.0072 59.7818 18.0783 59.4956 18.0783H58.6715V16.4213H59.4956ZM63.7284 22.2185H65.7943V20.0774H66.7949C67.6449 20.0774 68.3249 19.8277 68.8349 19.3242C69.3449 18.8228 69.5988 18.1514 69.5988 17.31C69.5988 16.4686 69.3449 15.7951 68.8349 15.2894C68.3249 14.7837 67.6449 14.5319 66.7949 14.5319H63.7284V22.2185ZM65.7749 16.4105H66.5991C66.8917 16.4105 67.122 16.4923 67.2855 16.658C67.4512 16.8237 67.533 17.0475 67.533 17.3337C67.533 17.6113 67.4512 17.8329 67.2855 17.9986C67.1198 18.1643 66.8917 18.2461 66.5991 18.2461H65.7749V16.4105ZM76.0739 18.5022C76.33 18.1105 76.4591 17.6393 76.4591 17.0905C76.4591 16.3008 76.203 15.6767 75.6887 15.2184C75.1765 14.76 74.4686 14.5319 73.5669 14.5319H70.6425V22.2185H72.6975V19.4964L74.5224 22.2185H76.7862V21.9883L74.9721 19.3651C75.452 19.1822 75.8178 18.8938 76.0739 18.5022ZM73.5131 16.4213C73.7907 16.4213 74.0102 16.4923 74.1673 16.6365C74.3244 16.7785 74.404 16.9851 74.404 17.2562C74.404 17.5188 74.3265 17.7232 74.1737 17.8652C74.0188 18.0072 73.7993 18.0783 73.5131 18.0783H72.6889V16.4213H73.5131ZM81.7248 16.3115V14.5319H77.4489V16.3115H78.5486V20.4066H77.4274V22.2185H81.7484V20.4066H80.6273V16.3115H81.7248ZM87.8813 21.6805C88.4387 21.248 88.7163 20.6412 88.7163 19.8579C88.7163 18.5323 87.8189 17.7426 86.0221 17.4865C85.5379 17.4069 85.2022 17.3165 85.0172 17.2175C84.83 17.1185 84.7374 16.9786 84.7374 16.7957C84.7374 16.4084 85.0301 16.2147 85.6175 16.2147C86.1899 16.2147 86.5084 16.445 86.573 16.9055H88.5743C88.5226 16.1372 88.2343 15.5304 87.7049 15.0828C87.1777 14.6374 86.4891 14.4136 85.6391 14.4136C84.7675 14.4136 84.0596 14.6288 83.5173 15.0613C82.975 15.4938 82.7039 16.0899 82.7039 16.8517C82.7039 17.5467 82.932 18.074 83.386 18.4333C83.8401 18.7927 84.4899 19.038 85.3313 19.1693C85.8069 19.2424 86.1469 19.3371 86.3492 19.4555C86.5515 19.5717 86.6505 19.7309 86.6505 19.9267C86.6505 20.1032 86.5665 20.2431 86.3965 20.3485C86.2287 20.454 85.9963 20.5077 85.7036 20.5077C85.043 20.5077 84.6922 20.2474 84.6492 19.7288H82.6156C82.6522 20.5637 82.9427 21.205 83.4893 21.6547C84.0359 22.1045 84.774 22.3304 85.7036 22.3304C86.5988 22.3283 87.324 22.1131 87.8813 21.6805ZM94.6534 19.2553V17.4886H91.8946V16.3352H94.8858V14.5341H89.8503V22.2207H94.974V20.3872H91.8968V19.2553H94.6534Z" fill="#325FAC"/>
<path d="M37.4972 2.35407H34.4974L31.9646 6.30065V2.35407H29.1995V12.5863H31.9646V8.60964L34.5706 12.5863H37.7038V12.2786L34.3231 7.36584L37.4993 2.65964V2.35407H37.4972ZM46.236 7.63913C46.5782 7.11837 46.7482 6.49217 46.7482 5.76052C46.7482 4.70824 46.406 3.87761 45.7239 3.26862C45.0417 2.65964 44.0992 2.35407 42.8984 2.35407H39.0057V12.5863H41.7429V8.9604L44.1724 12.5863H47.1872V12.2786L44.7728 8.78394C45.4054 8.54293 45.8939 8.15989 46.236 7.63913ZM42.8253 4.86964C43.1954 4.86964 43.4859 4.96432 43.6968 5.15369C43.9055 5.34305 44.011 5.6185 44.011 5.98001C44.011 6.33077 43.9077 6.60191 43.7033 6.79128C43.4988 6.98065 43.2062 7.07533 42.8253 7.07533H41.7278V4.86748H42.8253V4.86964ZM61.9535 11.8719C62.6959 11.2974 63.0661 10.4882 63.0661 9.44457C63.0661 7.68002 61.8718 6.62774 59.481 6.28774C58.8376 6.18014 58.39 6.06179 58.1425 5.93052C57.8929 5.79926 57.7702 5.61204 57.7702 5.36673C57.7702 4.85027 58.1597 4.59204 58.9409 4.59204C59.7026 4.59204 60.1266 4.89976 60.2148 5.51305H62.8788C62.81 4.48875 62.4248 3.68179 61.7233 3.08571C61.0218 2.49179 60.1029 2.19482 58.971 2.19482C57.809 2.19482 56.8686 2.48318 56.1455 3.05773C55.4225 3.63229 55.0631 4.42634 55.0631 5.43989C55.0631 6.36521 55.3644 7.06673 55.9712 7.54445C56.5759 8.02217 57.4388 8.34926 58.5621 8.52356C59.1969 8.6204 59.6467 8.74736 59.9157 8.90445C60.1847 9.05939 60.3181 9.27027 60.3181 9.5328C60.3181 9.76736 60.2062 9.95457 59.9824 10.0966C59.7586 10.2386 59.4509 10.3096 59.0614 10.3096C58.1834 10.3096 57.7143 9.96318 57.6562 9.27242H54.9491C54.9986 10.3828 55.3859 11.2393 56.1133 11.8375C56.8406 12.4379 57.824 12.737 59.0614 12.737C60.2471 12.7348 61.2133 12.4465 61.9535 11.8719ZM67.3268 6.09622V2.35407H64.5745V12.5863H67.3268V8.7409H70.3718V12.5863H73.1369V2.35407H70.3718V6.09622H67.3268ZM81.099 7.50141L77.3375 2.35622H75.2587V12.5885H77.9809V10.1031L77.9378 7.47128L81.6692 12.5885H83.7759V2.35622H81.0538V5.19242L81.099 7.50141ZM85.0197 12.2808V12.5885H87.8452L88.3573 11.009H91.6648L92.1468 12.5885H95.0002V12.2808L91.2689 2.35407H88.7361L85.0197 12.2808ZM90.0121 5.93698L91.0214 8.83128H89.0007L90.0121 5.93698Z" fill="#21A3DD"/>
<path d="M50.2385 2.96524C50.1654 2.80816 50.0341 2.65107 50.0319 2.49183C50.0298 2.28524 50.2256 2.23145 50.4236 2.2336C50.9659 2.2379 51.5081 2.2379 52.0504 2.2336C52.2592 2.23145 52.4916 2.24221 52.5045 2.48752C52.5131 2.64246 52.3775 2.80385 52.3065 2.96094C52.2721 2.95233 52.2376 2.94373 52.2032 2.93297C52.2333 3.03195 52.2592 3.13309 52.2914 3.23208C52.4184 3.60006 52.5238 3.97664 52.6788 4.3317C53.2254 5.59917 53.4126 6.91183 53.3394 8.28474C53.2835 9.34132 53.3287 10.4022 53.3287 11.4609C53.3287 12.2614 52.8768 12.709 52.0698 12.7112C51.5081 12.7112 50.9465 12.7155 50.3849 12.7112C49.6898 12.7047 49.2142 12.2421 49.2099 11.5535C49.2035 9.91158 49.1862 8.26753 49.2228 6.62778C49.2336 6.18449 49.3971 5.73689 49.5349 5.30436C49.7845 4.51891 50.0685 3.74208 50.3375 2.96094C50.3074 2.96524 50.273 2.96524 50.2385 2.96524ZM53.0252 9.28322C53.0252 8.55373 53.0252 7.82423 53.0252 7.09689C53.0252 6.96993 53.0425 6.80638 52.8488 6.83866C52.5066 6.89676 52.0633 6.87955 51.8503 7.08398C51.3554 7.5617 50.9228 7.6155 50.3332 7.2841C49.9803 7.08613 49.5176 7.39385 49.5155 7.75968C49.5112 8.98411 49.5069 10.2085 49.5176 11.433C49.5219 12.042 49.9028 12.4035 50.5247 12.4121C50.9981 12.4185 51.4716 12.4164 51.945 12.4121C52.6551 12.4078 53.0188 12.0506 53.0231 11.3512C53.0274 10.6626 53.0252 9.97398 53.0252 9.28322Z" fill="#21A3DD"/>
<defs>
<linearGradient id="paint0_linear_1019_3394" x1="-0.000172152" y1="12.3863" x2="24.8023" y2="12.3863" gradientUnits="userSpaceOnUse">
<stop stop-color="#1D9ED9"/>
<stop offset="1" stop-color="#2F3590"/>
</linearGradient>
</defs>
</svg>
