<svg width="12" height="20" viewBox="0 0 12 20" fill="none" xmlns="http://www.w3.org/2000/svg">
<path d="M10.1736 19.2102C9.9899 19.8076 9.7487 19.9891 9.12772 19.9908C6.92688 19.9951 4.72551 19.9983 2.52467 20.0004C2.39091 20.0004 2.25715 19.9908 2.12339 19.9854C1.73716 19.8731 1.48629 19.6346 1.41915 19.2263C1.41861 16.6694 1.42613 14.1124 1.41055 11.5554C1.40786 11.0891 1.4272 10.6594 1.80162 10.3268C1.80538 10.3188 1.81344 10.3102 1.8129 10.3027C1.78765 10.0776 1.20857 9.53557 0.988862 9.52698C0.668701 9.51462 0.347466 9.55813 0.0289163 9.50226L0.0299905 9.49904C-0.0436036 8.68951 -0.0398431 8.7357 0.741221 8.675C1.36006 8.62666 1.77207 8.87161 2.14971 9.30834C2.43926 9.64301 2.45859 9.62635 2.71644 9.26161C2.82334 8.84046 2.74706 8.41286 2.76371 7.98848C2.7664 7.91757 2.72504 7.87675 2.65359 7.8601C2.55744 7.83754 2.47578 7.78059 2.39145 7.73225C2.34149 7.67799 2.29153 7.6232 2.24157 7.56894C1.83224 7.07957 2.096 6.60201 2.26843 6.12338C2.28347 6.08202 2.31409 6.04764 2.33827 6.01004C2.48223 5.79141 2.71805 5.72533 2.94421 5.64314C3.0221 5.57492 3.11557 5.60823 3.20152 5.60823C4.92749 5.60608 6.65399 5.60608 8.37996 5.60823C8.48203 5.60823 8.59913 5.56955 8.67649 5.68021C8.78124 5.71996 8.88599 5.76025 8.99074 5.8C9.0638 5.87306 9.13631 5.94611 9.20937 6.01917C9.29801 6.25929 9.40114 6.49458 9.47152 6.74007C9.60044 7.19238 9.43284 7.51845 8.93809 7.83002C8.83442 7.87299 8.80541 7.94766 8.80917 8.06047C8.81884 8.32852 8.82153 8.59765 8.80917 8.8657C8.80058 9.05157 8.83442 9.21702 8.94615 9.36582C9.05036 9.59036 9.14384 9.60809 9.33615 9.41578C10.2134 8.53748 9.84002 8.71261 11.0675 8.68682C11.2367 8.68306 11.4059 8.69327 11.5757 8.69703C11.624 8.96616 11.6262 9.23528 11.5741 9.50441L11.5805 9.49851C11.2662 9.56619 10.9482 9.52268 10.6324 9.52429C10.4691 9.52536 10.3412 9.55813 10.2359 9.68706C10.1634 9.77569 10.0748 9.85143 9.99312 9.93309C9.73151 10.1952 9.73151 10.1952 9.91254 10.4971C10.0141 10.6443 10.1242 10.7867 10.1736 10.9623C10.2365 11.0316 10.208 11.1165 10.208 11.1939C10.2096 13.789 10.2096 16.3841 10.208 18.9798C10.2075 19.0561 10.2354 19.1409 10.1736 19.2102Z" fill="#0D4179"/>
<path d="M8.14587 1.20306C7.85095 1.54847 7.4674 1.5764 7.21708 1.27343C7.06882 1.09347 7.09299 0.900087 7.14724 0.693809C7.19022 0.531043 7.3315 0.411788 7.33848 0.236129C7.62373 -0.0808088 7.66025 -0.0824203 7.89393 0.253856C8.09107 0.538026 8.30917 0.821121 8.14587 1.20306Z" fill="#0D4179"/>
<path d="M6.18333 3.68363C5.579 4.40721 4.80384 4.11283 4.51269 3.61755C4.33005 3.30706 4.40149 3.01322 4.49067 2.70756C4.6674 2.30951 4.88388 1.93563 5.14495 1.58539C5.26367 1.42638 5.36251 1.43175 5.48177 1.57465C5.75036 1.89642 5.98672 2.2386 6.1699 2.61678C6.34126 2.97078 6.38961 3.32532 6.18333 3.68363Z" fill="#0D4179"/>
</svg>
