<svg width="18" height="23" viewBox="0 0 18 23" fill="none" xmlns="http://www.w3.org/2000/svg">
<path d="M17.9983 23C17.6328 23 17.3548 23 17.0768 23C12.1948 23 7.31276 23 2.42904 22.9983C0.8017 22.9983 0.00318965 22.1903 0.00318965 20.5281C-0.000179596 14.5442 -0.00186422 8.56042 0.00318965 2.57659C0.00318965 0.799149 0.771377 0.0066913 2.50822 0.00497231C7.41889 -0.00362268 12.3296 0.00153431 17.2402 0.00153431C17.4626 0.00153431 17.685 0.00153431 17.9848 0.00153431C17.9848 0.431284 17.9848 0.806025 17.9848 1.28219C17.6917 1.28219 17.4205 1.28219 17.1493 1.28219C12.6598 1.28219 8.17023 1.28219 3.68072 1.28219C3.51226 1.28219 3.34379 1.27875 3.17533 1.28906C2.24205 1.35095 1.58842 2.02479 1.57494 2.93586C1.56146 3.81427 2.22689 4.58954 3.12985 4.6497C3.91151 4.70299 4.69991 4.66689 5.48663 4.66689C9.41517 4.66689 13.3437 4.66517 17.2722 4.66517C17.4929 4.66517 17.7136 4.66517 18 4.66517C17.9983 10.7728 17.9983 16.8236 17.9983 23ZM8.95527 8.50713C8.99738 8.59652 9.0395 8.68763 9.07993 8.77701C8.94685 8.80968 8.81376 8.8389 8.68236 8.87672C7.44585 9.22739 6.78379 9.99235 6.72146 11.1389C6.66081 12.2528 7.26222 13.1347 8.44988 13.5971C9.04961 13.8309 9.70324 13.9374 10.276 14.2211C10.5927 14.3775 11.0476 14.8571 10.9903 15.0565C10.8791 15.4433 10.5068 15.8971 10.1412 16.0312C9.28208 16.344 8.60487 15.9521 8.22583 15.0015C7.89396 14.1678 7.27907 14.558 6.79895 14.6336C6.23292 14.7213 6.50077 15.1872 6.58501 15.5275C6.83938 16.5486 7.44753 17.2448 8.43809 17.5594C8.81376 17.678 9.20459 17.7158 9.19448 18.2831C9.1928 18.3828 9.51456 18.565 9.69145 18.5684C9.86833 18.5736 10.2053 18.4 10.2019 18.3106C10.1884 17.702 10.6567 17.721 11.0122 17.5319C11.4704 17.2878 11.9707 17.0076 12.279 16.6036C13.4229 15.1064 12.7945 13.157 10.9768 12.4557C10.2979 12.1927 9.58195 12.0276 8.90641 11.7595C8.47347 11.5876 8.18371 11.2438 8.54254 10.7556C8.96706 10.1763 10.34 10.2072 10.6113 10.8759C11.0678 12.0087 11.8309 11.4638 12.5941 11.5068C12.4845 9.89608 11.6557 9.0744 10.2204 8.78217C10.2979 8.71513 10.3771 8.64809 10.4546 8.58105C10.2103 8.29054 9.96773 7.99831 9.72346 7.7078C9.46908 7.97252 9.21302 8.23897 8.95527 8.50713Z" fill="#2867AA"/>
</svg>
