<svg width="16" height="33" viewBox="0 0 16 33" fill="none" xmlns="http://www.w3.org/2000/svg">
<path d="M13.0971 31.9825C12.8606 32.7515 12.5501 32.9853 11.7506 32.9874C8.91738 32.9929 6.08342 32.997 3.25015 32.9998C3.07796 32.9998 2.90576 32.9874 2.73357 32.9804C2.23634 32.8359 1.91339 32.5289 1.82695 32.0033C1.82626 28.7115 1.83594 25.4198 1.81588 22.128C1.81243 21.5277 1.83732 20.9745 2.31933 20.5464C2.32417 20.5361 2.33454 20.525 2.33385 20.5153C2.30135 20.2256 1.55586 19.5278 1.27302 19.5167C0.860858 19.5008 0.447313 19.5568 0.0372256 19.4849L0.0386085 19.4808C-0.0561334 18.4386 -0.0512923 18.4981 0.954217 18.4199C1.75088 18.3577 2.2813 18.673 2.76745 19.2353C3.1402 19.6661 3.16509 19.6447 3.49703 19.1751C3.63465 18.6329 3.53645 18.0825 3.55789 17.5361C3.56135 17.4448 3.5081 17.3923 3.41612 17.3709C3.29234 17.3418 3.18722 17.2685 3.07865 17.2063C3.01433 17.1364 2.95002 17.0659 2.88571 16.996C2.35875 16.366 2.6983 15.7513 2.92028 15.1351C2.93965 15.0818 2.97907 15.0376 3.01019 14.9892C3.19552 14.7077 3.49911 14.6226 3.79025 14.5168C3.89052 14.429 4.01085 14.4719 4.1215 14.4719C6.34344 14.4691 8.56607 14.4691 10.788 14.4719C10.9194 14.4719 11.0702 14.4221 11.1697 14.5646C11.3046 14.6157 11.4394 14.6676 11.5743 14.7188C11.6684 14.8128 11.7617 14.9069 11.8558 15.0009C11.9699 15.31 12.1026 15.6129 12.1932 15.929C12.3592 16.5113 12.1434 16.931 11.5065 17.3321C11.3731 17.3875 11.3357 17.4836 11.3406 17.6288C11.353 17.9739 11.3565 18.3203 11.3406 18.6654C11.3295 18.9047 11.3731 19.1177 11.5169 19.3093C11.6511 19.5983 11.7714 19.6211 12.019 19.3736C13.1483 18.2429 12.6676 18.4683 14.2478 18.4351C14.4657 18.4303 14.6835 18.4434 14.902 18.4483C14.9643 18.7947 14.967 19.1412 14.9 19.4877L14.9082 19.4801C14.5037 19.5672 14.0943 19.5112 13.6877 19.5133C13.4774 19.5146 13.3128 19.5568 13.1773 19.7228C13.0839 19.8369 12.9698 19.9344 12.8647 20.0395C12.5279 20.377 12.5279 20.377 12.761 20.7657C12.8917 20.9551 13.0335 21.1384 13.0971 21.3645C13.178 21.4537 13.1413 21.563 13.1413 21.6626C13.1434 25.0035 13.1434 28.3443 13.1413 31.6859C13.1407 31.7841 13.1766 31.8933 13.0971 31.9825Z" fill="#ECECEC"/>
<path d="M8.47965 7.24888C8.82888 6.63755 9.21753 6.05873 9.77976 5.61545C10.0764 5.3817 10.3856 5.17562 10.7908 5.06636C10.232 4.482 9.67672 3.9502 9.18849 3.35685C8.89596 3.0014 8.6145 2.63765 8.42018 2.21788C8.16223 1.66049 8.07717 1.09965 8.43747 0.546408C9.01214 0.010459 9.66358 -0.157587 10.4008 0.160525C10.5356 0.218615 10.75 0.258033 10.7417 0.449591C10.7348 0.610722 10.5743 0.697165 10.4174 0.743498C10.0764 0.40879 9.50521 0.356924 9.05917 0.620403C8.68296 0.84239 8.5495 1.24833 8.70855 1.73794C8.88628 2.28496 9.23067 2.73308 9.6041 3.1563C11.1788 4.94119 12.9533 6.51031 14.8135 7.98814C15.0763 8.1963 15.4166 8.3436 15.5196 8.71357C15.5327 9.2267 15.5466 9.73706 15.3903 10.2398C15.189 10.8871 14.79 11.3836 14.2797 11.8062C14.0141 11.9853 13.7534 12.1699 13.4477 12.282C13.0452 12.4293 12.7555 12.3082 12.427 12.0295C11.3938 11.1527 10.3185 10.3249 9.26041 9.47773C9.07231 9.32698 8.89804 9.15271 8.69334 9.02961C8.17883 8.7198 8.1643 8.2696 8.30331 7.76892C8.35171 7.59119 8.42018 7.42107 8.47965 7.24888Z" fill="#FEFEFE"/>
<path d="M8.26937 10.3544C7.88971 10.7991 7.39594 10.8351 7.07368 10.445C6.88282 10.2134 6.91394 9.9644 6.98378 9.69884C7.03911 9.48931 7.22098 9.33578 7.22997 9.10965C7.59718 8.70163 7.64421 8.69956 7.94503 9.13247C8.19883 9.4983 8.4796 9.86274 8.26937 10.3544Z" fill="#FEFEFE"/>
<path d="M7.63066 13.1644C6.85267 14.0959 5.85477 13.7169 5.47995 13.0793C5.24483 12.6796 5.3368 12.3013 5.4516 11.9079C5.67912 11.3954 5.95781 10.9141 6.2939 10.4632C6.44673 10.2585 6.57398 10.2654 6.7275 10.4494C7.07327 10.8636 7.37756 11.3041 7.61337 11.791C7.83398 12.2467 7.89621 12.7031 7.63066 13.1644Z" fill="#FEFEFE"/>
<path d="M8.61014 8.15128C8.62121 8.09941 8.63642 7.98531 8.67169 7.87673C9.00363 6.86293 9.62533 6.08079 10.5596 5.56005C10.7574 5.4501 11.0084 5.31801 11.2034 5.49021C11.3915 5.65618 11.2505 5.89753 11.1903 6.10499C10.8729 7.19418 10.1689 7.95903 9.18689 8.48806C8.80931 8.69207 8.60115 8.58903 8.61014 8.15128Z" fill="#2867AA"/>
<path d="M7.00783 23.876V25H6.82346V24.2302L6.48061 25H6.35285L6.00838 24.2302V25H5.82401V23.876H6.02293L6.41754 24.7574L6.81053 23.876H7.00783ZM7.34395 23.9908C7.31053 23.9908 7.28249 23.9795 7.25985 23.9569C7.23721 23.9342 7.22589 23.9062 7.22589 23.8728C7.22589 23.8394 7.23721 23.8113 7.25985 23.7887C7.28249 23.766 7.31053 23.7547 7.34395 23.7547C7.37629 23.7547 7.40379 23.766 7.42643 23.7887C7.44907 23.8113 7.46039 23.8394 7.46039 23.8728C7.46039 23.9062 7.44907 23.9342 7.42643 23.9569C7.40379 23.9795 7.37629 23.9908 7.34395 23.9908ZM7.43451 24.1089V25H7.25015V24.1089H7.43451ZM7.86093 23.8032V25H7.67657V23.8032H7.86093ZM8.45555 24.5553L8.86633 25H8.61727L8.28735 24.6167V25H8.10299V23.8032H8.28735V24.4987L8.6108 24.1089H8.86633L8.45555 24.5553ZM3.80317 25.876C3.92285 25.876 4.02743 25.8992 4.11692 25.9456C4.20748 25.9908 4.27702 26.0566 4.32554 26.1429C4.37514 26.228 4.39993 26.3278 4.39993 26.4421C4.39993 26.5563 4.37514 26.6555 4.32554 26.7396C4.27702 26.8237 4.20748 26.8884 4.11692 26.9337C4.02743 26.9779 3.92285 27 3.80317 27H3.43606V25.876H3.80317ZM3.80317 26.8496C3.93471 26.8496 4.03552 26.814 4.1056 26.7429C4.17568 26.6717 4.21072 26.5714 4.21072 26.4421C4.21072 26.3116 4.17568 26.2097 4.1056 26.1364C4.03552 26.0631 3.93471 26.0264 3.80317 26.0264H3.62043V26.8496H3.80317ZM5.39936 26.5326C5.39936 26.566 5.3972 26.5962 5.39289 26.6232H4.71204C4.71743 26.6943 4.74384 26.7515 4.79128 26.7946C4.83872 26.8377 4.89694 26.8593 4.96594 26.8593C5.06513 26.8593 5.13521 26.8178 5.17618 26.7348H5.3751C5.34815 26.8167 5.29909 26.8841 5.22793 26.9369C5.15785 26.9887 5.07052 27.0146 4.96594 27.0146C4.88077 27.0146 4.80422 26.9957 4.73629 26.958C4.66945 26.9191 4.61662 26.8652 4.5778 26.7962C4.54007 26.7261 4.5212 26.6453 4.5212 26.5536C4.5212 26.462 4.53953 26.3817 4.57619 26.3127C4.61392 26.2426 4.66621 26.1887 4.73306 26.151C4.80098 26.1132 4.87861 26.0943 4.96594 26.0943C5.05004 26.0943 5.12497 26.1127 5.19074 26.1493C5.25651 26.186 5.30772 26.2377 5.34437 26.3046C5.38103 26.3704 5.39936 26.4464 5.39936 26.5326ZM5.20691 26.4744C5.20583 26.4065 5.18157 26.352 5.13413 26.3111C5.0867 26.2701 5.02794 26.2496 4.95786 26.2496C4.89424 26.2496 4.8398 26.2701 4.79451 26.3111C4.74923 26.3509 4.72228 26.4054 4.71365 26.4744H5.20691ZM5.51934 26.5504C5.51934 26.4609 5.53767 26.3817 5.57433 26.3127C5.61206 26.2437 5.66273 26.1903 5.72635 26.1526C5.79104 26.1138 5.86273 26.0943 5.94144 26.0943C5.99966 26.0943 6.0568 26.1073 6.11287 26.1332C6.17001 26.158 6.21529 26.1914 6.24871 26.2334V25.8032H6.4347V27H6.24871V26.8658C6.21853 26.9089 6.17648 26.9445 6.12257 26.9725C6.06974 27.0005 6.00882 27.0146 5.93982 27.0146C5.86219 27.0146 5.79104 26.9951 5.72635 26.9563C5.66273 26.9164 5.61206 26.8615 5.57433 26.7914C5.53767 26.7202 5.51934 26.6399 5.51934 26.5504ZM6.24871 26.5536C6.24871 26.4922 6.23578 26.4388 6.2099 26.3935C6.1851 26.3483 6.15222 26.3138 6.11125 26.29C6.07028 26.2663 6.02607 26.2545 5.97864 26.2545C5.9312 26.2545 5.88699 26.2663 5.84602 26.29C5.80505 26.3127 5.77163 26.3466 5.74575 26.3919C5.72096 26.4361 5.70856 26.489 5.70856 26.5504C5.70856 26.6119 5.72096 26.6658 5.74575 26.7121C5.77163 26.7585 5.80505 26.7941 5.84602 26.8189C5.88807 26.8426 5.93227 26.8544 5.97864 26.8544C6.02607 26.8544 6.07028 26.8426 6.11125 26.8189C6.15222 26.7951 6.1851 26.7606 6.2099 26.7154C6.23578 26.669 6.24871 26.6151 6.24871 26.5536ZM7.48385 26.1089V27H7.29949V26.8949C7.27038 26.9315 7.2321 26.9606 7.18466 26.9822C7.1383 27.0027 7.08871 27.0129 7.03588 27.0129C6.9658 27.0129 6.90273 26.9984 6.84666 26.9693C6.79168 26.9402 6.74801 26.897 6.71567 26.8399C6.6844 26.7828 6.66877 26.7137 6.66877 26.6329V26.1089H6.85151V26.6054C6.85151 26.6852 6.87146 26.7466 6.91135 26.7898C6.95124 26.8318 7.00569 26.8528 7.07469 26.8528C7.14369 26.8528 7.19814 26.8318 7.23803 26.7898C7.279 26.7466 7.29949 26.6852 7.29949 26.6054V26.1089H7.48385ZM7.66565 26.5536C7.66565 26.462 7.68398 26.3817 7.72064 26.3127C7.75837 26.2426 7.81013 26.1887 7.87589 26.151C7.94166 26.1132 8.01713 26.0943 8.10231 26.0943C8.21012 26.0943 8.29907 26.1202 8.36915 26.172C8.44031 26.2226 8.48829 26.2954 8.51309 26.3903H8.31417C8.29799 26.3461 8.27212 26.3116 8.23654 26.2868C8.20096 26.262 8.15622 26.2496 8.10231 26.2496C8.02684 26.2496 7.96646 26.2766 7.92118 26.3305C7.87697 26.3833 7.85487 26.4577 7.85487 26.5536C7.85487 26.6496 7.87697 26.7245 7.92118 26.7784C7.96646 26.8323 8.02684 26.8593 8.10231 26.8593C8.20904 26.8593 8.27966 26.8124 8.31417 26.7186H8.51309C8.48721 26.8092 8.43869 26.8814 8.36753 26.9353C8.29638 26.9881 8.20797 27.0146 8.10231 27.0146C8.01713 27.0146 7.94166 26.9957 7.87589 26.958C7.81013 26.9191 7.75837 26.8652 7.72064 26.7962C7.68398 26.7261 7.66565 26.6453 7.66565 26.5536ZM8.91191 26.2593V26.7526C8.91191 26.786 8.91946 26.8102 8.93455 26.8253C8.95072 26.8394 8.97768 26.8464 9.01541 26.8464H9.12862V27H8.98307C8.90005 27 8.83644 26.9806 8.79224 26.9418C8.74803 26.903 8.72593 26.8399 8.72593 26.7526V26.2593H8.62081V26.1089H8.72593V25.8873H8.91191V26.1089H9.12862V26.2593H8.91191ZM9.39234 25.9908C9.35892 25.9908 9.33089 25.9795 9.30825 25.9569C9.28561 25.9342 9.27429 25.9062 9.27429 25.8728C9.27429 25.8394 9.28561 25.8113 9.30825 25.7887C9.33089 25.766 9.35892 25.7547 9.39234 25.7547C9.42469 25.7547 9.45218 25.766 9.47482 25.7887C9.49746 25.8113 9.50878 25.8394 9.50878 25.8728C9.50878 25.9062 9.49746 25.9342 9.47482 25.9569C9.45218 25.9795 9.42469 25.9908 9.39234 25.9908ZM9.48291 26.1089V27H9.29854V26.1089H9.48291ZM10.1115 27.0146C10.0274 27.0146 9.95138 26.9957 9.88345 26.958C9.81553 26.9191 9.76216 26.8652 9.72335 26.7962C9.68453 26.7261 9.66513 26.6453 9.66513 26.5536C9.66513 26.4631 9.68507 26.3828 9.72496 26.3127C9.76486 26.2426 9.8193 26.1887 9.88831 26.151C9.95731 26.1132 10.0344 26.0943 10.1196 26.0943C10.2047 26.0943 10.2818 26.1132 10.3508 26.151C10.4198 26.1887 10.4743 26.2426 10.5142 26.3127C10.5541 26.3828 10.574 26.4631 10.574 26.5536C10.574 26.6442 10.5535 26.7245 10.5126 26.7946C10.4716 26.8647 10.4155 26.9191 10.3444 26.958C10.2743 26.9957 10.1967 27.0146 10.1115 27.0146ZM10.1115 26.8544C10.1589 26.8544 10.2031 26.8431 10.2441 26.8205C10.2861 26.7978 10.3201 26.7639 10.346 26.7186C10.3719 26.6733 10.3848 26.6183 10.3848 26.5536C10.3848 26.489 10.3724 26.4345 10.3476 26.3903C10.3228 26.345 10.2899 26.3111 10.2489 26.2884C10.208 26.2658 10.1638 26.2545 10.1163 26.2545C10.0689 26.2545 10.0247 26.2658 9.98372 26.2884C9.94383 26.3111 9.91202 26.345 9.88831 26.3903C9.86459 26.4345 9.85273 26.489 9.85273 26.5536C9.85273 26.6496 9.87698 26.724 9.9255 26.7768C9.9751 26.8286 10.0371 26.8544 10.1115 26.8544ZM11.2059 26.0943C11.2759 26.0943 11.3385 26.1089 11.3935 26.138C11.4495 26.1671 11.4932 26.2102 11.5245 26.2674C11.5557 26.3245 11.5714 26.3935 11.5714 26.4744V27H11.3886V26.5019C11.3886 26.4221 11.3687 26.3612 11.3288 26.3191C11.2889 26.276 11.2344 26.2545 11.1654 26.2545C11.0964 26.2545 11.0414 26.276 11.0005 26.3191C10.9606 26.3612 10.9406 26.4221 10.9406 26.5019V27H10.7563V26.1089H10.9406V26.2108C10.9708 26.1741 11.0091 26.1456 11.0555 26.1251C11.1029 26.1046 11.153 26.0943 11.2059 26.0943Z" fill="#2867AA"/>
</svg>
