<svg width="185" height="116" viewBox="0 0 185 116" fill="none" xmlns="http://www.w3.org/2000/svg">
<g clip-path="url(#clip0_1558_4126)">
<path fill-rule="evenodd" clip-rule="evenodd" d="M158.326 19.6848C153.253 19.6848 150.716 21.8058 150.716 26.0479C150.716 28.0945 151.537 29.5458 153.141 30.6621C154.708 31.7784 157.692 32.7087 161.833 33.6018C177.278 36.3554 184.963 45.0629 184.963 59.6497C184.963 68.2455 182.538 74.8691 177.725 79.7066C172.913 84.4324 166.72 86.8139 159.035 86.8139C150.977 86.8139 144.672 84.3208 139.972 79.4089C135.234 74.497 132.734 67.3896 132.473 58.2729H149.97C150.343 64.0034 153.402 66.8687 159.035 66.8687C161.535 66.8687 163.586 66.3105 164.967 65.1198C166.459 63.929 167.205 62.4405 167.205 60.5056C167.205 58.3845 166.384 56.6356 164.631 55.3332C162.878 54.0308 160.005 53.0261 155.827 52.2074C148.589 50.719 142.956 48.0398 139.076 44.1698C135.159 40.1882 133.219 34.4577 133.219 26.7921C133.219 18.494 135.532 11.9076 140.27 7.10736C144.896 2.41873 151.014 0 158.513 0C165.825 0 171.756 2.49316 176.308 7.40505C180.859 12.3169 183.359 18.9405 183.806 27.4619H166.571C166.011 22.1779 163.213 19.6848 158.326 19.6848ZM17.7949 61.5103V87H0V0.744226H17.7949V26.0479L34.0603 0.744226H53.3475V2.67921L32.9784 46.6257L54.6532 85.0278V86.9628H34.5453L17.7949 61.5103ZM87.5943 12.2797C87.4077 12.2797 87.2212 12.0192 87.2212 11.8332C87.2212 11.7588 87.2958 11.4611 87.4824 11.3867C87.93 11.0145 88.4896 10.6424 88.9746 10.3819C89.3477 11.1262 89.3477 11.7588 88.7135 12.2425C88.3404 12.2797 87.9673 12.2797 87.5943 12.2797Z" fill="#01A5E8"/>
<path d="M115.35 77.5858C121.916 71.4087 125.161 53.7705 125.161 43.7979C125.161 33.8253 121.916 16.1871 115.35 10.0101C108.784 3.83298 100.353 0.632812 89.9073 0.632812H62.9724V86.8886H89.9073C100.353 87.0002 108.896 83.8373 115.35 77.5858Z" fill="#01A5E8"/>
<path fill-rule="evenodd" clip-rule="evenodd" d="M100.912 31.6671C100.241 29.7322 99.5694 27.7972 98.9352 25.8622C98.6368 25.118 98.4502 24.4854 98.2637 23.7411C98.5622 23.8156 100.539 21.6201 100.427 20.5038C100.316 19.0153 99.0844 18.7548 97.8533 18.6432C98.3383 18.085 98.8979 17.6385 99.5694 17.2664C100.129 16.8943 100.614 16.3361 100.801 15.5919C100.801 15.4058 100.987 15.1453 101.099 14.9593C101.957 13.9546 102.815 12.9127 104.233 12.6522C104.345 12.6522 104.531 12.4661 104.531 12.3917C104.531 12.3173 104.419 12.1312 104.345 12.1312C104.233 12.0568 104.158 12.0568 103.972 11.9452C103.113 11.7591 102.367 11.9452 101.696 12.5778C100.95 13.322 100.278 14.1406 99.5321 14.9965C99.159 15.3686 98.6741 15.7407 98.1891 15.9268C97.8907 16.0012 97.5176 15.9268 97.1445 16.0012C97.1445 15.7407 97.1445 15.3686 97.2565 15.0709C97.3684 14.6244 97.5549 14.2523 97.6295 13.7685C97.7414 13.322 97.443 13.1359 97.0699 13.322C96.6969 13.508 96.3238 13.6941 96.1373 14.0662C95.8388 14.4383 95.6523 14.9965 95.4658 15.3686C95.0927 16.1128 94.6077 16.857 94.1228 17.6013C93.8243 18.0478 93.2647 18.2339 92.5932 18.2339C91.6606 18.1594 90.8771 17.7873 90.4295 17.0431C89.758 16.1128 89.5714 15.1825 89.5714 14.1034C89.5714 13.5452 89.3849 13.3592 88.8253 13.4708C88.2657 13.6569 87.7061 13.8429 87.1092 14.215C86.0647 14.8476 85.5797 14.7732 85.2066 13.6569V13.5825C84.9082 12.8382 84.5351 12.5778 83.789 12.5778C83.416 12.5778 83.0429 12.6522 82.6698 12.6522C81.9983 12.7266 81.5507 12.6522 81.1403 12.094C80.5807 11.4614 79.7973 11.2754 79.0512 11.5358C78.6781 11.6103 78.1931 11.7963 78.305 12.1684C78.417 12.615 78.8646 12.5405 79.3496 12.5405C79.8346 12.5405 80.2823 12.4661 80.7672 12.4661C81.1403 12.4661 81.5134 12.7266 81.6253 13.0987C81.7372 13.6569 81.8118 14.215 81.9237 14.7732C82.0356 15.5919 82.4087 16.2617 83.1548 16.6338C84.1994 17.192 85.0574 17.8245 85.7289 18.7548C84.3859 18.7548 83.0802 19.2014 83.0802 20.6154C83.0802 21.7317 84.5724 24.0016 84.8709 24.0016C82.8937 29.3973 82.0356 30.8857 80.2076 36.5046C79.275 39.5559 77.2978 43.2026 77.2232 46.3284C76.9247 58.0499 77.1113 63.8921 77.2232 75.6137H99.0098C103.188 75.6137 106.21 72.3763 106.21 68.3203C106.21 63.52 106.396 60.5803 106.322 56.0405C105.837 46.5145 104.233 40.7095 100.912 31.6671ZM103.113 65.0829V66.0132C103.113 69.0645 100.912 71.5576 97.8906 71.5576L80.1703 71.7437C80.0584 63.0735 80.3569 60.2082 80.3569 51.538C80.3569 48.9704 83.1175 46.7377 85.4678 48.1145C89.4595 50.4216 92.2948 50.0495 95.615 46.7377C97.0326 45.2493 99.6067 46.3656 101.957 45.9191C103.3 45.6586 103.076 46.8493 103.076 47.7796C103.113 52.8776 103.113 59.9105 103.113 65.0829Z" fill="white"/>
<path fill-rule="evenodd" clip-rule="evenodd" d="M93.8242 6.28887C93.2646 4.16783 92.1454 2.4189 90.6905 0.744387C90.6159 0.669964 90.4294 0.558331 90.1309 0.297852C90.0563 1.67467 89.4967 2.71659 88.6387 3.72129C88.3775 4.0934 88.0791 4.46552 87.8179 4.83763C87.1837 5.84233 86.8107 6.88425 87.1837 7.96338C87.9299 9.89836 90.1309 10.717 91.9962 9.71231C93.4884 9.04251 94.1226 7.66569 93.8242 6.28887ZM92.0708 8.52155C91.8097 8.7076 91.4366 8.78203 91.0636 8.7076C90.877 8.7076 90.6905 8.44712 90.6905 8.26107C90.6905 8.18665 90.7651 7.88896 90.9516 7.81453C91.3993 7.44242 91.9589 7.07031 92.4439 6.80983C92.7423 7.40521 92.7423 8.0378 92.0708 8.52155Z" fill="white"/>
</g>
<path d="M5.48351 100.22L10.3625 105.881V106H7.99951L3.30751 100.441V106H1.36951V94.984H3.30751V100.169L7.94851 94.984H10.1415V95.103L5.48351 100.22ZM16.6395 98.231C16.9568 98.231 17.2855 98.282 17.6255 98.384L17.3195 100.254C17.1382 100.186 16.9682 100.135 16.8095 100.101C16.6508 100.067 16.4752 100.05 16.2825 100.05C15.9538 100.05 15.6422 100.124 15.3475 100.271C15.0642 100.418 14.7808 100.696 14.4975 101.104V106H12.6615V98.469L14.4975 98.299V99.37C14.7695 98.996 15.0868 98.7127 15.4495 98.52C15.8235 98.3273 16.2202 98.231 16.6395 98.231ZM20.8741 97.109C20.6588 97.109 20.4548 97.058 20.2621 96.956C20.0808 96.8427 19.9334 96.6953 19.8201 96.514C19.7068 96.3213 19.6501 96.1173 19.6501 95.902C19.6501 95.6867 19.7068 95.4883 19.8201 95.307C19.9334 95.1143 20.0808 94.9613 20.2621 94.848C20.4548 94.7347 20.6588 94.678 20.8741 94.678C21.1008 94.678 21.3104 94.7347 21.5031 94.848C21.6958 94.9613 21.8488 95.1143 21.9621 95.307C22.0754 95.4883 22.1321 95.6867 22.1321 95.902C22.1321 96.1173 22.0754 96.3213 21.9621 96.514C21.8488 96.6953 21.6958 96.8427 21.5031 96.956C21.3104 97.058 21.1008 97.109 20.8741 97.109ZM19.9901 106V98.486L21.8261 98.299V106H19.9901ZM27.6275 106.221C26.9361 106.221 26.3128 106.136 25.7575 105.966C25.2135 105.796 24.7035 105.541 24.2275 105.201L25.0095 103.96C25.8141 104.538 26.6698 104.827 27.5765 104.827C28.0185 104.827 28.3528 104.753 28.5795 104.606C28.8175 104.459 28.9365 104.249 28.9365 103.977C28.9365 103.818 28.8911 103.682 28.8005 103.569C28.7211 103.444 28.5681 103.325 28.3415 103.212C28.1148 103.099 27.7918 102.985 27.3725 102.872L26.8625 102.736C26.0578 102.521 25.4741 102.237 25.1115 101.886C24.7488 101.535 24.5675 101.07 24.5675 100.492C24.5675 100.05 24.6921 99.659 24.9415 99.319C25.1908 98.979 25.5365 98.7127 25.9785 98.52C26.4318 98.3273 26.9418 98.231 27.5085 98.231C28.5851 98.231 29.5881 98.503 30.5175 99.047L29.8035 100.271C29.3275 100.022 28.9251 99.8517 28.5965 99.761C28.2678 99.6703 27.9165 99.625 27.5425 99.625C27.1911 99.625 26.9191 99.693 26.7265 99.829C26.5338 99.965 26.4375 100.146 26.4375 100.373C26.4375 100.509 26.4715 100.628 26.5395 100.73C26.6075 100.821 26.7265 100.906 26.8965 100.985C27.0665 101.053 27.3101 101.127 27.6275 101.206L28.1715 101.342C29.0895 101.591 29.7525 101.914 30.1605 102.311C30.5798 102.696 30.7895 103.195 30.7895 103.807C30.7895 104.272 30.6705 104.685 30.4325 105.048C30.1945 105.411 29.8375 105.7 29.3615 105.915C28.8855 106.119 28.3075 106.221 27.6275 106.221ZM37.823 98.231C38.5596 98.231 39.132 98.418 39.54 98.792C39.948 99.166 40.152 99.7497 40.152 100.543V106H38.316V101.172C38.316 100.798 38.2763 100.509 38.197 100.305C38.1176 100.09 37.9873 99.9367 37.806 99.846C37.636 99.7553 37.398 99.71 37.092 99.71C36.4913 99.71 35.8623 99.88 35.205 100.22V106H33.369V94.304L35.205 94.117V98.962C36.0776 98.4747 36.9503 98.231 37.823 98.231ZM47.8086 98.231C48.5453 98.231 49.1119 98.4237 49.5086 98.809C49.9166 99.183 50.1206 99.7723 50.1206 100.577V106H48.2846V101.172C48.2846 100.798 48.2449 100.509 48.1656 100.305C48.0976 100.09 47.9729 99.9367 47.7916 99.846C47.6216 99.7553 47.3836 99.71 47.0776 99.71C46.4996 99.71 45.8593 99.8857 45.1566 100.237V106H43.3206V98.486L45.1566 98.299V99.03C46.0746 98.4973 46.9586 98.231 47.8086 98.231ZM56.5184 98.231C57.4478 98.231 58.1448 98.4293 58.6094 98.826C59.0741 99.2227 59.3064 99.8573 59.3064 100.73V106H57.7084L57.5724 105.371C57.1531 105.677 56.7224 105.892 56.2804 106.017C55.8498 106.153 55.4021 106.221 54.9374 106.221C54.4841 106.221 54.0818 106.136 53.7304 105.966C53.3904 105.796 53.1241 105.558 52.9314 105.252C52.7388 104.935 52.6424 104.572 52.6424 104.164C52.6424 103.552 52.8578 103.042 53.2884 102.634C53.7191 102.215 54.2971 101.903 55.0224 101.699C55.7478 101.495 56.5638 101.382 57.4704 101.359V101.07C57.4704 100.583 57.3798 100.231 57.1984 100.016C57.0171 99.8007 56.6998 99.693 56.2464 99.693C55.4644 99.693 54.6258 99.982 53.7304 100.56L52.9824 99.387C53.5264 99.0017 54.0874 98.7127 54.6654 98.52C55.2434 98.3273 55.8611 98.231 56.5184 98.231ZM54.5634 103.96C54.5634 104.232 54.6428 104.442 54.8014 104.589C54.9714 104.725 55.2151 104.793 55.5324 104.793C56.1671 104.793 56.8131 104.6 57.4704 104.215V102.583C56.5638 102.628 55.8498 102.77 55.3284 103.008C54.8184 103.235 54.5634 103.552 54.5634 103.96ZM71.1362 94.984C73.0289 94.984 74.4852 95.4147 75.5052 96.276C76.5252 97.126 77.0352 98.5313 77.0352 100.492C77.0352 101.727 76.7689 102.759 76.2362 103.586C75.7149 104.402 74.9952 105.008 74.0772 105.405C73.1592 105.802 72.1165 106 70.9492 106H67.6682V94.984H71.1362ZM70.6602 104.351C71.6235 104.351 72.4112 104.243 73.0232 104.028C73.6465 103.813 74.1225 103.427 74.4512 102.872C74.7912 102.305 74.9612 101.512 74.9612 100.492C74.9612 99.132 74.6495 98.1517 74.0262 97.551C73.4142 96.939 72.4622 96.633 71.1702 96.633H69.6062V104.351H70.6602ZM83.0863 98.231C84.0156 98.231 84.7126 98.4293 85.1773 98.826C85.6419 99.2227 85.8743 99.8573 85.8743 100.73V106H84.2763L84.1403 105.371C83.7209 105.677 83.2903 105.892 82.8483 106.017C82.4176 106.153 81.9699 106.221 81.5053 106.221C81.0519 106.221 80.6496 106.136 80.2983 105.966C79.9583 105.796 79.6919 105.558 79.4993 105.252C79.3066 104.935 79.2103 104.572 79.2103 104.164C79.2103 103.552 79.4256 103.042 79.8563 102.634C80.2869 102.215 80.8649 101.903 81.5903 101.699C82.3156 101.495 83.1316 101.382 84.0383 101.359V101.07C84.0383 100.583 83.9476 100.231 83.7663 100.016C83.5849 99.8007 83.2676 99.693 82.8143 99.693C82.0323 99.693 81.1936 99.982 80.2983 100.56L79.5503 99.387C80.0943 99.0017 80.6553 98.7127 81.2333 98.52C81.8113 98.3273 82.4289 98.231 83.0863 98.231ZM81.1313 103.96C81.1313 104.232 81.2106 104.442 81.3693 104.589C81.5393 104.725 81.7829 104.793 82.1003 104.793C82.7349 104.793 83.3809 104.6 84.0383 104.215V102.583C83.1316 102.628 82.4176 102.77 81.8963 103.008C81.3863 103.235 81.1313 103.552 81.1313 103.96ZM89.9452 97.109C89.7299 97.109 89.5259 97.058 89.3332 96.956C89.1519 96.8427 89.0045 96.6953 88.8912 96.514C88.7779 96.3213 88.7212 96.1173 88.7212 95.902C88.7212 95.6867 88.7779 95.4883 88.8912 95.307C89.0045 95.1143 89.1519 94.9613 89.3332 94.848C89.5259 94.7347 89.7299 94.678 89.9452 94.678C90.1719 94.678 90.3816 94.7347 90.5742 94.848C90.7669 94.9613 90.9199 95.1143 91.0332 95.307C91.1466 95.4883 91.2032 95.6867 91.2032 95.902C91.2032 96.1173 91.1466 96.3213 91.0332 96.514C90.9199 96.6953 90.7669 96.8427 90.5742 96.956C90.3816 97.058 90.1719 97.109 89.9452 97.109ZM89.0612 106V98.486L90.8972 98.299V106H89.0612ZM98.1266 98.231C98.4439 98.231 98.7726 98.282 99.1126 98.384L98.8066 100.254C98.6253 100.186 98.4553 100.135 98.2966 100.101C98.1379 100.067 97.9623 100.05 97.7696 100.05C97.4409 100.05 97.1293 100.124 96.8346 100.271C96.5513 100.418 96.2679 100.696 95.9846 101.104V106H94.1486V98.469L95.9846 98.299V99.37C96.2566 98.996 96.5739 98.7127 96.9366 98.52C97.3106 98.3273 97.7073 98.231 98.1266 98.231ZM108.056 98.469V98.571L105.455 106.17C105.195 106.941 104.906 107.558 104.588 108.023C104.271 108.499 103.903 108.845 103.483 109.06C103.064 109.275 102.565 109.383 101.987 109.383C101.477 109.383 100.95 109.292 100.406 109.111L100.882 107.768C101.2 107.87 101.517 107.921 101.834 107.921C102.106 107.921 102.344 107.881 102.548 107.802C102.752 107.723 102.945 107.558 103.126 107.309C103.319 107.071 103.506 106.714 103.687 106.238L103.772 106H103.279L100.423 98.571V98.469H102.361L103.925 102.94C104.107 103.439 104.248 103.892 104.35 104.3C104.532 103.643 104.662 103.189 104.741 102.94L106.169 98.469H108.056ZM118.722 106.221C117.883 106.221 117.118 106.108 116.427 105.881C115.735 105.654 115.123 105.337 114.591 104.929L115.492 103.569C115.99 103.92 116.512 104.181 117.056 104.351C117.6 104.51 118.121 104.589 118.62 104.589C119.368 104.589 119.94 104.464 120.337 104.215C120.733 103.954 120.932 103.569 120.932 103.059C120.932 102.753 120.864 102.498 120.728 102.294C120.592 102.09 120.359 101.903 120.031 101.733C119.702 101.563 119.226 101.365 118.603 101.138L118.28 101.019C117.554 100.747 116.971 100.486 116.529 100.237C116.098 99.9877 115.747 99.6647 115.475 99.268C115.203 98.86 115.067 98.35 115.067 97.738C115.067 97.0807 115.248 96.531 115.611 96.089C115.985 95.6357 116.466 95.3013 117.056 95.086C117.645 94.8707 118.274 94.763 118.943 94.763C120.325 94.763 121.589 95.1483 122.734 95.919L121.85 97.279C121.34 96.9617 120.858 96.7293 120.405 96.582C119.963 96.4347 119.47 96.361 118.926 96.361C118.348 96.361 117.889 96.4743 117.549 96.701C117.209 96.9163 117.039 97.2393 117.039 97.67C117.039 97.908 117.101 98.1177 117.226 98.299C117.35 98.469 117.566 98.639 117.872 98.809C118.178 98.979 118.614 99.166 119.181 99.37L119.521 99.489C120.257 99.7497 120.852 100.005 121.306 100.254C121.759 100.492 122.144 100.832 122.462 101.274C122.779 101.705 122.938 102.266 122.938 102.957C122.938 103.66 122.756 104.26 122.394 104.759C122.042 105.246 121.549 105.615 120.915 105.864C120.291 106.102 119.56 106.221 118.722 106.221ZM128.933 106.221C128.117 106.221 127.431 106.045 126.876 105.694C126.321 105.331 125.901 104.85 125.618 104.249C125.346 103.637 125.21 102.957 125.21 102.209C125.21 101.268 125.386 100.503 125.737 99.914C126.1 99.3247 126.581 98.8997 127.182 98.639C127.783 98.367 128.457 98.231 129.205 98.231C130.032 98.231 130.724 98.4067 131.279 98.758C131.834 99.098 132.248 99.5683 132.52 100.169C132.803 100.77 132.945 101.455 132.945 102.226C132.945 103.155 132.764 103.92 132.401 104.521C132.05 105.11 131.574 105.541 130.973 105.813C130.372 106.085 129.692 106.221 128.933 106.221ZM129.069 104.793C129.772 104.793 130.27 104.566 130.565 104.113C130.871 103.648 131.024 103.014 131.024 102.209C131.024 101.404 130.865 100.781 130.548 100.339C130.242 99.8857 129.766 99.659 129.12 99.659C128.406 99.659 127.89 99.88 127.573 100.322C127.267 100.764 127.114 101.393 127.114 102.209C127.114 103.002 127.273 103.631 127.59 104.096C127.919 104.561 128.412 104.793 129.069 104.793ZM139.09 95.715C138.716 95.715 138.427 95.8453 138.223 96.106C138.019 96.3553 137.917 96.7067 137.917 97.16V98.469H140.076L139.889 99.914H137.917V106H136.081V99.914H134.823V98.469H136.081V97.194C136.081 96.6047 136.189 96.0833 136.404 95.63C136.631 95.1767 136.959 94.8253 137.39 94.576C137.821 94.3153 138.336 94.185 138.937 94.185C139.606 94.185 140.206 94.2927 140.739 94.508L140.28 95.953C139.895 95.7943 139.498 95.715 139.09 95.715ZM147.183 105.711C146.526 106.051 145.846 106.221 145.143 106.221C144.701 106.221 144.304 106.136 143.953 105.966C143.602 105.796 143.324 105.53 143.12 105.167C142.916 104.804 142.814 104.351 142.814 103.807V99.914H141.369V98.469H142.814V96.769L144.65 96.497V98.469H146.996L146.809 99.914H144.65V103.518C144.65 103.937 144.724 104.243 144.871 104.436C145.03 104.629 145.256 104.725 145.551 104.725C145.721 104.725 145.891 104.702 146.061 104.657C146.231 104.612 146.435 104.544 146.673 104.453L147.183 105.711ZM159.767 98.469V98.571L157.54 106H155.789L154.548 101.818C154.378 101.24 154.264 100.775 154.208 100.424C154.14 100.866 154.032 101.331 153.885 101.818L152.695 106.017H150.944L148.564 98.571V98.469H150.553L151.658 102.668C151.748 103.008 151.828 103.399 151.896 103.841C152.02 103.263 152.111 102.872 152.168 102.668L153.341 98.469H155.194L156.384 102.617C156.52 103.127 156.622 103.58 156.69 103.977C156.735 103.546 156.809 103.093 156.911 102.617L157.914 98.469H159.767ZM165.005 98.231C165.934 98.231 166.631 98.4293 167.096 98.826C167.561 99.2227 167.793 99.8573 167.793 100.73V106H166.195L166.059 105.371C165.64 105.677 165.209 105.892 164.767 106.017C164.336 106.153 163.889 106.221 163.424 106.221C162.971 106.221 162.568 106.136 162.217 105.966C161.877 105.796 161.611 105.558 161.418 105.252C161.225 104.935 161.129 104.572 161.129 104.164C161.129 103.552 161.344 103.042 161.775 102.634C162.206 102.215 162.784 101.903 163.509 101.699C164.234 101.495 165.05 101.382 165.957 101.359V101.07C165.957 100.583 165.866 100.231 165.685 100.016C165.504 99.8007 165.186 99.693 164.733 99.693C163.951 99.693 163.112 99.982 162.217 100.56L161.469 99.387C162.013 99.0017 162.574 98.7127 163.152 98.52C163.73 98.3273 164.348 98.231 165.005 98.231ZM163.05 103.96C163.05 104.232 163.129 104.442 163.288 104.589C163.458 104.725 163.702 104.793 164.019 104.793C164.654 104.793 165.3 104.6 165.957 104.215V102.583C165.05 102.628 164.336 102.77 163.815 103.008C163.305 103.235 163.05 103.552 163.05 103.96ZM174.958 98.231C175.275 98.231 175.604 98.282 175.944 98.384L175.638 100.254C175.457 100.186 175.287 100.135 175.128 100.101C174.969 100.067 174.794 100.05 174.601 100.05C174.272 100.05 173.961 100.124 173.666 100.271C173.383 100.418 173.099 100.696 172.816 101.104V106H170.98V98.469L172.816 98.299V99.37C173.088 98.996 173.405 98.7127 173.768 98.52C174.142 98.3273 174.539 98.231 174.958 98.231ZM184.386 101.461C184.386 101.812 184.369 102.192 184.335 102.6H179.269C179.314 103.348 179.524 103.898 179.898 104.249C180.283 104.6 180.759 104.776 181.326 104.776C181.734 104.776 182.102 104.725 182.431 104.623C182.759 104.51 183.133 104.334 183.553 104.096L184.199 105.286C183.791 105.569 183.332 105.796 182.822 105.966C182.323 106.136 181.779 106.221 181.19 106.221C180.464 106.221 179.818 106.091 179.252 105.83C178.696 105.569 178.254 105.15 177.926 104.572C177.597 103.994 177.433 103.246 177.433 102.328C177.433 101.535 177.574 100.832 177.858 100.22C178.141 99.5967 178.56 99.1093 179.116 98.758C179.671 98.4067 180.34 98.231 181.122 98.231C181.824 98.231 182.419 98.3727 182.907 98.656C183.394 98.928 183.762 99.3133 184.012 99.812C184.261 100.299 184.386 100.849 184.386 101.461ZM181.139 99.557C180.64 99.557 180.243 99.71 179.949 100.016C179.654 100.322 179.456 100.758 179.354 101.325H182.618V101.274C182.618 100.685 182.482 100.254 182.21 99.982C181.949 99.6987 181.592 99.557 181.139 99.557Z" fill="#325FAC"/>
<defs>
<clipPath id="clip0_1558_4126">
<rect width="185" height="87" fill="white"/>
</clipPath>
</defs>
</svg>
