<svg width="40" height="40" viewBox="0 0 40 40" fill="none" xmlns="http://www.w3.org/2000/svg">
<path d="M19.6954 39.9719C18.1529 40.0314 16.6539 39.7699 15.161 39.4078C14.0923 39.1486 13.0518 38.8147 12.0479 38.3763C10.8929 37.8716 9.80508 37.2389 8.74091 36.5604C7.76522 35.9383 6.90626 35.1745 6.07475 34.3885C5.35157 33.7054 4.70392 32.9385 4.09135 32.148C3.08668 30.8512 2.26356 29.4447 1.61057 27.9482C1.23677 27.0898 0.922478 26.2017 0.683707 25.2877C0.42739 24.3096 0.230575 23.3224 0.113096 22.3222C-0.0409989 21.0117 -0.0165878 19.6974 0.0619856 18.3786C0.130642 17.2229 0.351868 16.0984 0.622679 14.9823C0.903407 13.8274 1.31153 12.7151 1.82035 11.6357C2.29942 10.6195 2.83799 9.64442 3.47115 8.71665C4.48955 7.22322 5.66663 5.86473 7.05501 4.71436C8.41898 3.58457 9.90044 2.6263 11.5261 1.88454C13.321 1.06503 15.1786 0.49327 17.1238 0.195956C18.5725 -0.0251228 20.0372 -0.0380826 21.4896 0.0533985C22.9871 0.147166 24.4632 0.439143 25.9057 0.886638C27.9609 1.52396 29.8626 2.46697 31.608 3.71264C32.4395 4.3065 33.2154 4.9766 33.9576 5.68863C34.7967 6.4929 35.5672 7.35663 36.2431 8.2905C36.98 9.30899 37.5971 10.409 38.1479 11.5457C38.6453 12.5718 39.0214 13.646 39.325 14.7331C39.5569 15.5617 39.7461 16.4178 39.8285 17.2861C39.8712 17.7374 39.9254 18.188 39.975 18.6393C39.7903 18.669 39.7019 18.5242 39.6004 18.4205C38.7948 17.5964 37.9793 16.783 37.1791 15.9536C36.7145 15.4718 36.2843 14.9488 35.7358 14.5501C35.5176 14.3915 35.3918 14.1445 35.2026 13.957C33.4946 12.2554 31.8041 10.5364 30.0755 8.85463C29.7131 8.50701 29.3203 8.20817 28.8206 8.09077C28.5002 8.0153 28.4369 8.0679 28.4285 8.40257C28.4186 8.80889 28.4292 9.21522 28.4247 9.62155C28.4163 10.3313 27.9761 10.823 27.2697 10.8825C26.8143 10.9213 26.3543 10.9236 25.8989 10.8802C25.2718 10.8207 24.8606 10.3686 24.84 9.73895C24.8263 9.32042 24.8408 8.90114 24.8347 8.48185C24.8278 8.05265 24.7844 8.00462 24.345 8.0031C22.7186 7.99776 21.0914 8.00081 19.465 8.00081C18.2834 8.00081 17.1017 7.99852 15.9193 8.00157C15.4174 8.0031 15.3868 8.03664 15.3823 8.54741C15.3784 8.94078 15.3906 9.33491 15.3777 9.72828C15.3578 10.3328 14.994 10.7666 14.3944 10.8581C13.8779 10.9374 13.3523 10.9351 12.8359 10.8642C12.1791 10.7734 11.8076 10.3237 11.7938 9.66271C11.7854 9.24343 11.7992 8.82414 11.7885 8.40561C11.7801 8.07247 11.7229 8.03435 11.391 8.10373C10.4428 8.3027 9.76007 9.12679 9.741 10.1262C9.72269 11.0532 9.74024 11.9802 9.73566 12.9072C9.7143 13.1093 9.7532 13.3166 9.68379 13.5148C9.76922 14.0698 9.74405 14.6278 9.74405 15.1851C9.74481 19.6669 9.74786 24.1487 9.73947 28.6305C9.73871 29.0956 9.83788 29.4828 10.2437 29.7474C10.4192 30.0576 10.6579 30.3184 10.9066 30.5722C12.2279 31.9246 13.5217 33.3037 14.833 34.6652C15.9063 35.7798 16.9736 36.9004 18.0408 38.0211C18.5397 38.5448 19.0386 39.0678 19.5405 39.5877C19.6382 39.6891 19.793 39.7844 19.6954 39.9719Z" fill="#FBB540"/>
<path d="M30.2212 8.87305C31.9368 10.5784 33.6655 12.2716 35.362 13.996C35.9807 14.6249 36.6459 15.2081 37.2371 15.8622C38.0244 16.7336 38.8795 17.5386 39.6958 18.381C39.7835 18.4717 39.8811 18.5525 39.9742 18.6379C40.0902 21.2298 39.8232 23.7684 39.0145 26.2491C38.3112 28.4065 37.2722 30.3848 35.893 32.171C34.275 34.2651 32.316 35.9903 30.019 37.3305C27.9586 38.5327 25.741 39.2981 23.4082 39.722C22.1876 39.9438 20.945 40.0574 19.6962 39.9713C19.687 39.8607 19.6123 39.7913 19.5413 39.7182C18.5618 38.7111 17.5709 37.714 16.6051 36.6932C15.0146 35.0122 13.418 33.3374 11.816 31.6678C11.3438 31.1761 10.8472 30.7035 10.4139 30.1744C10.3605 30.1096 10.1682 30.0692 10.3063 29.9144C10.3811 29.8519 10.4695 29.855 10.5596 29.8557C14.6774 29.8916 18.7953 29.8687 22.9131 29.8626C23.4341 29.8618 23.7767 29.9853 24.0559 30.4709C24.5281 31.2912 25.3176 31.6808 26.2536 31.693C28.147 31.7174 30.0412 31.7181 31.9346 31.6945C33.3123 31.677 34.4245 30.5556 34.4382 29.1773C34.4573 27.234 34.4565 25.2908 34.4382 23.3476C34.426 22.0379 33.3039 20.9295 31.9933 20.8914C31.65 20.8815 31.3067 20.9005 30.9642 20.883C30.5858 20.8632 30.4928 20.7762 30.4836 20.3951C30.4661 19.6716 30.4813 18.9474 30.4768 18.2232C30.4684 16.6741 30.4966 15.1242 30.46 13.5752C30.4539 13.4151 30.4859 13.2573 30.4874 13.0972C30.4668 12.251 30.4745 11.4048 30.4813 10.5586C30.4851 10.0852 30.4584 9.62548 30.2365 9.19476C30.1861 9.09413 30.1358 8.98435 30.2212 8.87305Z" fill="#EFAD40"/>
<path d="M30.5148 13.5143C30.6574 13.634 30.601 13.7979 30.601 13.9428C30.6048 16.0377 30.6017 18.1326 30.6048 20.2268C30.6055 20.8282 30.5407 20.7627 31.1678 20.765C31.8383 20.768 32.5088 20.7185 33.1329 21.073C34.049 21.5944 34.5533 22.3644 34.564 23.4133C34.583 25.3177 34.5739 27.222 34.5685 29.1263C34.564 30.632 33.3754 31.8136 31.8658 31.8182C30.0365 31.8227 28.2071 31.8182 26.3778 31.8197C25.2244 31.8204 24.3403 31.3371 23.8093 30.3118C23.6598 30.0228 23.4912 29.9802 23.2189 29.9802C19.1155 29.9855 15.0122 29.9832 10.9088 29.9855C10.7044 29.9855 10.5037 29.9748 10.3077 29.9146C9.792 29.6744 9.60739 29.2803 9.60968 28.7063C9.62646 23.8166 9.61655 18.9277 9.62952 14.0381C9.63028 13.8665 9.47923 13.6859 9.63485 13.5166C9.85684 13.3382 10.1216 13.3992 10.3695 13.3992C16.2167 13.3954 22.0639 13.3962 27.9119 13.3962C28.5985 13.3962 29.2851 13.3931 29.9709 13.3985C30.157 13.4 30.3546 13.3733 30.5148 13.5143Z" fill="#FCFDFE"/>
<path d="M30.2213 8.87286C30.5974 9.47816 30.6302 10.1475 30.6111 10.8351C30.5898 11.6036 30.6005 12.3735 30.5966 13.1427C30.4975 13.2197 30.3815 13.206 30.2679 13.206C23.6692 13.1831 17.0714 13.2022 10.4727 13.1961C10.3072 13.1961 10.1416 13.1946 9.97763 13.2106C9.75564 13.2327 9.64961 13.129 9.62672 12.9186C9.62291 11.9413 9.59163 10.9632 9.62367 9.9874C9.658 8.92851 10.6039 8.00913 11.6658 7.91993C11.8588 7.90392 11.913 7.95805 11.9099 8.14025C11.9031 8.64797 11.9053 9.15569 11.9084 9.66341C11.9122 10.271 12.2395 10.6987 12.8398 10.7612C13.3792 10.8176 13.9315 10.8519 14.4693 10.7284C14.9895 10.6087 15.268 10.2481 15.2748 9.72287C15.2817 9.22811 15.2916 8.73183 15.2718 8.23783C15.2611 7.96338 15.3672 7.89096 15.6242 7.89096C18.6093 7.89706 21.595 7.89859 24.5801 7.88868C24.8768 7.88791 24.9485 8.00074 24.9401 8.26985C24.9249 8.73869 24.9645 9.21134 24.931 9.67865C24.8837 10.3396 25.4833 10.7658 25.9578 10.7787C26.3895 10.7909 26.8221 10.7962 27.2531 10.7818C27.7718 10.7642 28.3707 10.3 28.3142 9.66798C28.2707 9.17703 28.3142 8.67846 28.3028 8.1837C28.2974 7.93518 28.3897 7.88868 28.6239 7.92298C29.2914 8.02209 29.7964 8.37581 30.2213 8.87286Z" fill="#2867AA"/>
<path d="M9.62487 12.9185C9.70573 13.0099 9.72633 13.1815 9.9323 13.0877C10.0383 13.0389 10.1817 13.0686 10.3084 13.0686C16.8712 13.0679 23.4339 13.0686 29.996 13.0656C30.2012 13.0656 30.3995 13.0854 30.5948 13.1433C30.6162 13.2775 30.6192 13.4079 30.5132 13.5146C23.5529 13.5154 16.592 13.5161 9.63174 13.5169C9.59283 13.3172 9.60427 13.1182 9.62487 12.9185Z" fill="#2867AA"/>
<path d="M12.5096 7.98226C12.5096 7.4801 12.518 6.97726 12.5068 6.47577C12.4997 6.15933 12.6788 6.0239 12.973 6.01116C13.3346 5.99574 13.6983 5.99641 14.06 6.0125C14.3394 6.02457 14.5079 6.15664 14.5058 6.457C14.4988 7.48412 14.4995 8.51057 14.5044 9.53768C14.5058 9.83335 14.3429 9.97414 14.06 9.98688C13.6983 10.003 13.3346 10.005 12.973 9.98889C12.6802 9.97548 12.499 9.83938 12.5061 9.52293C12.5173 9.00937 12.5096 8.49582 12.5096 7.98226Z" fill="white"/>
<path d="M25.5037 7.98226C25.5037 7.4801 25.5121 6.97727 25.5009 6.47577C25.4939 6.15933 25.6729 6.0239 25.9671 6.01116C26.3288 5.99574 26.6925 5.99641 27.0541 6.0125C27.3336 6.02457 27.5021 6.15664 27.5 6.457C27.493 7.48412 27.4937 8.51057 27.4986 9.53768C27.5 9.83335 27.3371 9.97414 27.0541 9.98688C26.6925 10.003 26.3288 10.005 25.9671 9.98889C25.6743 9.97548 25.4932 9.83938 25.5002 9.52293C25.5114 9.00937 25.5037 8.49582 25.5037 7.98226Z" fill="white"/>
<path d="M33.9621 26.3C33.9621 27.1889 33.9644 28.0778 33.9613 28.9659C33.9575 30.2688 33.0322 31.2026 31.7369 31.2065C29.9579 31.211 28.1797 31.2126 26.4007 31.208C25.0436 31.2049 24.1214 30.2871 24.1191 28.94C24.1153 27.1752 24.1153 25.4104 24.1191 23.6455C24.1221 22.2962 25.0345 21.3768 26.3901 21.3715C28.1942 21.3639 29.9983 21.3646 31.8025 21.373C33.0314 21.3791 33.9568 22.3221 33.9621 23.5579C33.9659 24.4719 33.9621 25.386 33.9621 26.3Z" fill="#2867AA"/>
<path d="M17.6398 20.0161C18.0635 20.0161 18.4865 20.0101 18.9103 20.0176C19.2996 20.0251 19.5362 20.2549 19.5399 20.6455C19.5481 21.492 19.5481 22.3385 19.5406 23.185C19.5369 23.581 19.3108 23.8107 18.917 23.8152C18.0702 23.8242 17.2235 23.8249 16.3767 23.8167C15.9784 23.813 15.7486 23.5869 15.7426 23.1925C15.7314 22.346 15.7284 21.4995 15.7366 20.653C15.7404 20.2638 16.0076 20.0191 16.4067 20.0139C16.8177 20.0079 17.2287 20.0124 17.6398 20.0124C17.6398 20.0139 17.6398 20.0154 17.6398 20.0161Z" fill="#2867AA"/>
<path d="M22.5228 14.8691C22.9212 14.8691 23.3196 14.8654 23.718 14.8699C24.1612 14.8743 24.3982 15.0934 24.4019 15.5247C24.4087 16.3463 24.4087 17.1686 24.3974 17.9902C24.3915 18.4283 24.1299 18.6728 23.6918 18.675C22.9077 18.678 22.1229 18.6787 21.3388 18.6743C20.8492 18.6713 20.6003 18.4268 20.5966 17.9409C20.5906 17.144 20.5914 16.3471 20.5958 15.5502C20.5988 15.0964 20.7991 14.8856 21.2536 14.8729C21.6759 14.8594 22.0997 14.8691 22.5228 14.8691Z" fill="#EAE7E7"/>
<path d="M19.5268 26.864C19.5268 27.274 19.5328 27.684 19.5253 28.0933C19.5178 28.5085 19.2905 28.7348 18.8814 28.737C18.073 28.7408 17.2645 28.7423 16.4569 28.737C15.9334 28.734 15.7247 28.5339 15.7195 28.0216C15.712 27.2143 15.715 26.4077 15.7187 25.6004C15.721 25.2233 15.985 24.9432 16.3694 24.938C17.1778 24.9268 17.9862 24.9245 18.7939 24.938C19.2995 24.9462 19.5253 25.2009 19.5261 25.7087C19.5276 26.094 19.5268 26.4794 19.5268 26.864Z" fill="#EAE7E7"/>
<path d="M19.5253 16.7963C19.5253 17.1941 19.529 17.5928 19.5245 17.9907C19.5193 18.426 19.268 18.6743 18.8281 18.6758C18.0442 18.6788 17.2603 18.6788 16.4757 18.675C15.9678 18.6728 15.7232 18.429 15.7195 17.9174C15.7142 17.171 15.7127 16.4238 15.7187 15.6774C15.7232 15.1007 15.9641 14.8681 16.54 14.8674C17.2992 14.8666 18.0585 14.8652 18.8177 14.8674C19.3166 14.8689 19.5238 15.0731 19.5275 15.563C19.5305 15.9736 19.5283 16.3842 19.5283 16.7948C19.5268 16.7963 19.526 16.7963 19.5253 16.7963Z" fill="#EAE7E7"/>
<path d="M27.2816 14.869C27.7046 14.869 28.1276 14.8652 28.5506 14.8705C28.9175 14.8749 29.1148 15.0728 29.1574 15.4268C29.2665 16.3319 29.2022 17.2355 29.1514 18.1392C29.1298 18.5253 28.8368 18.6507 28.5364 18.6604C27.6911 18.6873 26.8444 18.6836 25.9984 18.6619C25.5881 18.6515 25.408 18.4252 25.4065 18.01C25.4028 17.1892 25.4013 16.3685 25.405 15.5478C25.4072 15.0825 25.6255 14.8705 26.0873 14.8682C26.4857 14.8675 26.8832 14.8682 27.2816 14.869Z" fill="#EAE7E7"/>
<path d="M14.7154 21.9013C14.7154 22.3234 14.7215 22.7463 14.7139 23.1685C14.7063 23.5936 14.4877 23.8111 14.0588 23.8141C13.2254 23.82 12.3927 23.82 11.5592 23.8141C11.1356 23.8111 10.9125 23.5869 10.9094 23.1625C10.9026 22.3175 10.9041 21.4724 10.9087 20.6281C10.911 20.2515 11.1288 20.0192 11.5083 20.0147C12.379 20.0042 13.2504 20.0042 14.1211 20.0147C14.4945 20.0192 14.7116 20.2583 14.7162 20.6348C14.7215 21.057 14.7177 21.4799 14.7177 21.902C14.717 21.9013 14.7162 21.9013 14.7154 21.9013Z" fill="#EAE7E7"/>
<path d="M14.7193 16.684C14.7193 17.1062 14.7254 17.5291 14.7178 17.9512C14.7102 18.3764 14.4916 18.5938 14.0627 18.5968C13.2293 18.6028 12.3966 18.6028 11.5631 18.5968C11.1395 18.5938 10.9164 18.3696 10.9133 17.9452C10.9065 17.1002 10.908 16.2551 10.9126 15.4108C10.9149 15.0342 11.1327 14.8019 11.5123 14.7974C12.3829 14.7869 13.2543 14.7869 14.125 14.7974C14.4984 14.8019 14.7155 15.041 14.7201 15.4175C14.7254 15.8397 14.7216 16.2626 14.7216 16.6848C14.7209 16.684 14.7201 16.684 14.7193 16.684Z" fill="#EAE7E7"/>
<path d="M10.9083 26.8865C10.9091 26.4637 10.903 26.0402 10.9106 25.6174C10.9182 25.1901 11.1339 24.9758 11.5674 24.972C12.3519 24.9653 13.1363 24.9623 13.9207 24.972C14.5494 24.9802 14.7211 25.1647 14.7203 25.7877C14.7203 26.572 14.7226 27.3556 14.7188 28.1399C14.7165 28.5373 14.4993 28.7651 14.0938 28.7703C13.2464 28.78 12.3982 28.7793 11.5507 28.7718C11.1255 28.7681 10.9129 28.5418 10.9091 28.119C10.9053 27.7082 10.9083 27.2973 10.9083 26.8865Z" fill="#EAE7E7"/>
<path d="M20.6045 21.9463C20.6045 21.5399 20.5992 21.1329 20.606 20.7265C20.6152 20.2325 20.8143 20.0183 21.2964 20.0122C22.1478 20.0023 22.9999 20.0153 23.852 20.0069C24.1594 20.0038 24.3631 20.1883 24.4226 20.4246C24.521 20.8165 24.6224 21.2297 24.2593 21.5918C23.7307 22.1193 23.5155 22.794 23.5102 23.5274C23.5079 23.8026 23.4477 23.9101 23.1509 23.8986C22.5544 23.8758 21.9563 23.8956 21.3582 23.8902C20.8067 23.8857 20.606 23.6791 20.6038 23.1264C20.603 22.7338 20.6045 22.3404 20.6045 21.9463Z" fill="#EAE7E7"/>
<path d="M23.5006 26.8708C23.5006 27.3918 23.4892 27.9135 23.5059 28.4338C23.5143 28.6876 23.4404 28.7846 23.1668 28.7771C22.5343 28.76 21.9003 28.7741 21.2671 28.7704C20.8564 28.7682 20.6201 28.5748 20.6118 28.1666C20.5935 27.2858 20.5988 26.405 20.6133 25.5242C20.6179 25.2301 20.9272 24.9771 21.2686 24.9718C21.927 24.9614 22.5862 24.9741 23.2445 24.9659C23.448 24.9636 23.5059 25.048 23.5036 25.2331C23.496 25.7787 23.5006 26.3251 23.5006 26.8708Z" fill="#EAE7E7"/>
<path d="M27.359 20.7124C26.8477 20.7486 26.2607 20.6563 25.6804 20.7614C25.5208 20.7905 25.4885 20.7167 25.4788 20.5889C25.4563 20.2993 25.6557 20.0366 26.0155 20.026C26.9369 19.9983 27.8598 20.0004 28.7811 20.021C29.0525 20.0274 29.2129 20.2538 29.2797 20.4881C29.3389 20.694 29.1605 20.711 29.0015 20.711C28.4783 20.7131 27.955 20.7124 27.359 20.7124Z" fill="#EAE7E7"/>
<path d="M27.648 25.2937C27.7976 25.1757 27.9444 25.06 28.0911 24.9443C28.2607 24.8106 28.4305 24.6773 28.599 24.5422C28.6154 24.5291 28.6326 24.5058 28.6328 24.487C28.6351 24.2687 28.6343 24.0504 28.6342 23.8321C28.6342 23.8272 28.6325 23.8224 28.6302 23.8096C28.6115 23.8096 28.5917 23.8096 28.5718 23.8096C28.4822 23.8096 28.3927 23.8105 28.3031 23.8091C28.238 23.8081 28.1987 23.7714 28.1981 23.7098C28.1969 23.5748 28.1949 23.4398 28.199 23.3049C28.2039 23.1414 28.3465 23.007 28.5173 23.0016C28.605 22.9988 28.693 23.0006 28.7808 23.0006C29.3303 23.0006 29.8799 23.0002 30.4295 23.001C30.5993 23.0012 30.731 23.1026 30.7662 23.2569C30.7702 23.2747 30.7726 23.2931 30.7727 23.3113C30.7733 23.4429 30.7737 23.5746 30.7728 23.7062C30.7724 23.7716 30.7347 23.8082 30.6667 23.8092C30.5742 23.8105 30.4816 23.8095 30.3823 23.8095C30.3823 23.8538 30.3823 23.8933 30.3823 23.9328C30.3825 24.1128 30.3816 24.2928 30.3844 24.4727C30.3847 24.4953 30.3984 24.5249 30.4162 24.5391C30.7193 24.7808 31.0242 25.0202 31.3279 25.261C31.3533 25.2812 31.3705 25.2856 31.3975 25.263C31.4443 25.2238 31.4949 25.1889 31.544 25.1522C32.0964 24.7393 32.8794 25.0362 32.9883 25.7034C33.0311 25.9661 32.956 26.2026 32.7742 26.4037C32.5484 26.6533 32.3207 26.9012 32.0928 27.1488C32.0694 27.1742 32.0593 27.1986 32.0612 27.2333C32.0926 27.8403 32.0771 28.4463 31.9989 29.0495C31.9619 29.3351 31.907 29.6186 31.8585 29.9028C31.8457 29.9772 31.8135 29.9999 31.7338 29.9999C30.2505 30 28.7673 30 27.2841 29.9999C27.2052 29.9999 27.1719 29.9771 27.1594 29.9023C27.1088 29.5999 27.0529 29.2981 27.0136 28.9943C26.9453 28.4658 26.9319 27.9345 26.9491 27.4025C26.9494 27.3942 26.948 27.3855 26.9499 27.3776C26.9837 27.2468 26.9243 27.1548 26.8333 27.0612C26.6281 26.8501 26.4318 26.6307 26.2362 26.4109C25.994 26.1389 25.9338 25.8284 26.0754 25.4977C26.2181 25.1641 26.492 24.9879 26.8636 24.9646C27.0832 24.9508 27.281 25.0191 27.4554 25.1492C27.5183 25.196 27.5807 25.2431 27.648 25.2937ZM31.8166 28.9356C31.8362 28.6578 31.8559 28.3802 31.8757 28.0992C31.7298 28.0992 31.599 28.0998 31.4682 28.0989C31.4017 28.0985 31.3595 28.0609 31.3581 28.0043C31.3565 27.9455 31.3993 27.905 31.468 27.9041C31.5644 27.9028 31.6609 27.9037 31.7575 27.9037C31.7947 27.9037 31.832 27.9037 31.8712 27.9037C31.8712 27.8361 31.8712 27.7755 31.8712 27.7117C31.7359 27.7117 31.6052 27.712 31.4743 27.7116C31.4006 27.7114 31.3572 27.6743 31.3581 27.6137C31.359 27.5551 31.4015 27.5194 31.4726 27.5191C31.5898 27.5186 31.7069 27.519 31.8241 27.5188C31.8388 27.5188 31.8534 27.5169 31.8648 27.5161C31.8648 27.4511 31.8648 27.3918 31.8648 27.3272C31.8406 27.3272 31.8221 27.3272 31.8035 27.3272C31.6897 27.3272 31.576 27.3283 31.4623 27.3266C31.3998 27.3257 31.359 27.2862 31.3581 27.2312C31.3571 27.1739 31.3986 27.134 31.4635 27.1319C31.5031 27.1306 31.5428 27.1315 31.5824 27.1315C31.6714 27.1315 31.7604 27.1315 31.8609 27.1315C31.8279 26.8302 31.7957 26.5364 31.7632 26.2408C31.6134 26.2408 31.4775 26.2408 31.3416 26.2408C30.0012 26.2408 28.6608 26.241 27.3204 26.2398C27.276 26.2398 27.2582 26.2494 27.2534 26.2953C27.2299 26.5156 27.2017 26.7356 27.1767 26.9557C27.1702 27.0127 27.1693 27.0703 27.1656 27.1315C27.2981 27.1315 27.4237 27.1311 27.5492 27.1317C27.6214 27.132 27.6675 27.1714 27.6669 27.2301C27.6663 27.2888 27.6204 27.3266 27.5475 27.3271C27.4578 27.3277 27.3683 27.3272 27.2787 27.3272C27.2382 27.3272 27.1976 27.3272 27.1526 27.3272C27.1526 27.3957 27.1526 27.4562 27.1526 27.519C27.1759 27.519 27.1947 27.519 27.2137 27.519C27.3274 27.519 27.4411 27.5186 27.5548 27.5192C27.6233 27.5196 27.6679 27.5591 27.667 27.6168C27.666 27.6725 27.6224 27.7106 27.557 27.7115C27.5053 27.7122 27.4536 27.7117 27.4019 27.7117C27.318 27.7117 27.234 27.7117 27.1474 27.7117C27.1474 27.778 27.1474 27.8385 27.1474 27.9036C27.1694 27.9036 27.1881 27.9036 27.2067 27.9036C27.3222 27.9036 27.4376 27.903 27.553 27.9039C27.6221 27.9044 27.6667 27.9436 27.6671 28.001C27.6675 28.0583 27.6225 28.0984 27.5543 28.0989C27.4491 28.0997 27.3441 28.0991 27.239 28.0991C27.2103 28.0991 27.1817 28.0991 27.1429 28.0991C27.1629 28.3822 27.1823 28.6575 27.2019 28.9354C28.7427 28.9356 30.2736 28.9356 31.8166 28.9356ZM28.8368 23.8122C28.8368 23.8339 28.8368 23.8519 28.8368 23.8699C28.8368 24.0865 28.8349 24.3031 28.8378 24.5197C28.8387 24.5825 28.8168 24.6251 28.7665 24.6645C28.3915 24.9578 28.0187 25.2535 27.6448 25.5481C27.4957 25.6656 27.3884 25.8116 27.3226 25.9863C27.3159 26.0042 27.3114 26.0228 27.3055 26.0424C28.7787 26.0424 30.2445 26.0424 31.7148 26.0424C31.6508 25.8395 31.5372 25.6769 31.3725 25.547C30.9947 25.2491 30.6175 24.9507 30.2391 24.6536C30.1995 24.6225 30.181 24.5876 30.182 24.538C30.1842 24.4164 30.1829 24.2948 30.183 24.1731C30.183 24.0537 30.183 23.9342 30.183 23.8122C29.7329 23.8122 29.2892 23.8122 28.8368 23.8122ZM31.789 29.134C30.2653 29.134 28.7519 29.134 27.2342 29.134C27.2361 29.1555 27.2364 29.1736 27.2393 29.1913C27.2695 29.3738 27.3024 29.5559 27.3294 29.7389C27.3376 29.7938 27.36 29.8064 27.4152 29.8064C28.8123 29.8048 30.2095 29.8051 31.6065 29.8051C31.6151 29.8051 31.6239 29.8042 31.6324 29.8052C31.6643 29.8092 31.6785 29.7962 31.6833 29.765C31.6939 29.6975 31.7093 29.6308 31.7204 29.5634C31.7437 29.4222 31.7656 29.2808 31.789 29.134ZM27.4816 25.4157C27.4228 25.3719 27.3633 25.3244 27.3005 25.2815C27.1504 25.179 26.9825 25.1376 26.8013 25.1658C26.5303 25.208 26.3398 25.3554 26.248 25.6051C26.1562 25.8549 26.2096 26.0848 26.3895 26.2845C26.5704 26.4854 26.7542 26.684 26.9365 26.8838C26.9475 26.8958 26.9554 26.9102 26.9648 26.9235C26.9783 26.9068 26.9796 26.8991 26.9805 26.8914C27.004 26.6929 27.0299 26.4946 27.0502 26.2959C27.085 25.9552 27.2095 25.6571 27.4796 25.4257C27.4796 25.4257 27.4803 25.4227 27.4816 25.4157ZM31.5298 25.4143C31.5316 25.4174 31.5326 25.4207 31.5349 25.4229C31.5447 25.4322 31.5549 25.4412 31.565 25.4502C31.7641 25.6301 31.891 25.8498 31.9371 26.1091C31.9692 26.2895 31.9896 26.4718 32.0136 26.6536C32.0245 26.7354 32.0314 26.8177 32.0405 26.9037C32.0506 26.8973 32.0556 26.8953 32.0587 26.8919C32.256 26.6759 32.4613 26.466 32.648 26.2418C32.8236 26.0308 32.8492 25.7872 32.7283 25.5416C32.6085 25.2982 32.3996 25.172 32.1209 25.1588C31.8799 25.1473 31.6983 25.2674 31.5298 25.4143ZM28.4017 23.6115C29.1254 23.6115 29.8463 23.6115 30.5667 23.6115C30.5695 23.6037 30.5725 23.5991 30.5725 23.5945C30.5731 23.5179 30.5737 23.4412 30.5737 23.3646C30.5737 23.2403 30.5281 23.1961 30.4 23.1961C29.7902 23.196 29.1803 23.196 28.5705 23.1961C28.5533 23.1961 28.536 23.1958 28.5189 23.1975C28.4586 23.2035 28.4066 23.2426 28.4033 23.3007C28.3973 23.403 28.4017 23.506 28.4017 23.6115Z" fill="white"/>
<path d="M30.3248 27.0076C30.4356 27.0226 30.5451 27.0318 30.6517 27.0539C30.7144 27.0669 30.7741 27.0975 30.8324 27.1256C30.8976 27.157 30.9145 27.2078 30.8823 27.2718C30.7819 27.4718 30.6113 27.5819 30.3891 27.6183C30.3346 27.6272 30.3075 27.6452 30.2897 27.697C30.2321 27.8644 30.1684 28.0299 30.1056 28.1956C30.0954 28.2226 30.0966 28.239 30.1214 28.259C30.177 28.3041 30.2036 28.3646 30.2042 28.4351C30.2046 28.4868 30.2053 28.5384 30.2041 28.5901C30.201 28.7217 30.0974 28.8266 29.9612 28.8276C29.6529 28.83 29.3446 28.8296 29.0362 28.8277C28.9046 28.8269 28.8019 28.7306 28.792 28.6016C28.7875 28.542 28.7886 28.4816 28.7919 28.4218C28.7957 28.354 28.8275 28.2983 28.8795 28.2518C28.8906 28.2418 28.8984 28.2168 28.8937 28.2031C28.8328 28.0227 28.7686 27.8433 28.7074 27.663C28.6978 27.6347 28.6809 27.6302 28.6549 27.627C28.4549 27.6023 28.2858 27.5231 28.1667 27.3602C28.145 27.3305 28.1261 27.2981 28.111 27.2648C28.0834 27.2044 28.1005 27.1589 28.161 27.1265C28.2979 27.0532 28.4436 27.0139 28.6012 27.0196C28.6234 27.0204 28.6456 27.0197 28.6755 27.0197C28.6692 27.0031 28.6641 26.9886 28.658 26.9744C28.5969 26.8313 28.5354 26.6883 28.4745 26.5452C28.4422 26.4692 28.4546 26.4103 28.5106 26.3704C28.5679 26.3295 28.632 26.3366 28.6976 26.392C28.8287 26.5027 28.9599 26.6131 29.0897 26.7251C29.1171 26.7488 29.1435 26.7576 29.1814 26.7571C29.3967 26.7544 29.612 26.7567 29.8273 26.7551C29.8504 26.7549 29.8782 26.7464 29.8954 26.7322C30.0315 26.6196 30.1655 26.5045 30.3003 26.3905C30.3632 26.3373 30.4262 26.33 30.4833 26.3687C30.5397 26.4069 30.5544 26.469 30.523 26.5426C30.4626 26.6842 30.4016 26.8255 30.3409 26.967C30.3337 26.9834 30.3276 27.0003 30.3248 27.0076ZM28.3422 27.2591C28.4315 27.3725 28.57 27.4325 28.7477 27.4391C28.825 27.442 28.8474 27.4575 28.8718 27.5273C28.9446 27.7354 29.018 27.9433 29.089 28.1521C29.1008 28.1867 29.1178 28.1976 29.155 28.1973C29.3841 28.1956 29.613 28.1957 29.8421 28.1973C29.8787 28.1975 29.8962 28.1874 29.9087 28.1529C29.9839 27.9455 30.0629 27.7395 30.138 27.5322C30.16 27.4713 30.1947 27.4399 30.2649 27.4378C30.3749 27.4345 30.4797 27.4071 30.5693 27.3414C30.5996 27.3192 30.6255 27.2916 30.6593 27.2613C30.5484 27.2175 30.446 27.2054 30.3399 27.2191C30.1917 27.2383 30.1924 27.238 30.1159 27.1158C30.0922 27.0781 30.0896 27.0423 30.1075 27.0022C30.1429 26.9227 30.1765 26.8425 30.2105 26.7624C30.2156 26.7502 30.2192 26.7373 30.2281 26.7111C30.1372 26.7882 30.0596 26.8567 29.9786 26.921C29.955 26.9397 29.9214 26.9571 29.8923 26.9572C29.7375 26.9579 29.5828 26.9521 29.428 26.9503C29.3351 26.9492 29.2413 26.9447 29.1494 26.9545C29.088 26.961 29.0438 26.9485 29.0001 26.9092C28.9275 26.8439 28.8517 26.7822 28.7771 26.719C28.8009 26.7974 28.8279 26.8725 28.8643 26.943C28.9029 27.0178 28.9084 27.0828 28.8577 27.1572C28.8076 27.2304 28.7872 27.2467 28.6999 27.2274C28.5788 27.2006 28.4616 27.2128 28.3422 27.2591ZM29.4962 28.6326C29.6424 28.6326 29.7886 28.6317 29.9347 28.6331C29.9826 28.6336 30.005 28.6146 30.004 28.5682C30.0032 28.5283 30.0041 28.4884 30.0036 28.4484C30.0031 28.4101 29.9833 28.3899 29.9429 28.3901C29.9154 28.3902 29.8879 28.3901 29.8604 28.3901C29.5957 28.3901 29.3308 28.39 29.0661 28.3903C29.0066 28.3904 28.9934 28.4036 28.9928 28.4608C28.9924 28.4957 28.9924 28.5307 28.9928 28.5656C28.9935 28.6215 29.0047 28.6324 29.063 28.6325C29.2074 28.6328 29.3518 28.6326 29.4962 28.6326Z" fill="white"/>
<path d="M29.8363 27.2305C29.9019 27.2296 29.9548 27.2795 29.955 27.3427C29.9552 27.4054 29.9018 27.4573 29.8375 27.4568C29.7751 27.4562 29.7225 27.4065 29.7208 27.3464C29.7189 27.2842 29.7715 27.2314 29.8363 27.2305Z" fill="white"/>
<path d="M29.2745 27.3432C29.2745 27.4065 29.2218 27.4575 29.1572 27.4566C29.0921 27.4557 29.0407 27.4041 29.042 27.3408C29.0433 27.2792 29.0934 27.2311 29.1571 27.2305C29.223 27.2299 29.2744 27.2792 29.2745 27.3432Z" fill="white"/>
<path d="M29.3708 28.4507C29.4086 28.4544 29.432 28.4741 29.4323 28.511C29.4326 28.5476 29.4113 28.5697 29.3723 28.5717C29.3356 28.5736 29.3044 28.5447 29.3073 28.5101C29.3104 28.4737 29.3327 28.4539 29.3708 28.4507Z" fill="white"/>
<path d="M29.7192 28.5137C29.7152 28.5498 29.6949 28.5715 29.6562 28.5712C29.6179 28.571 29.596 28.55 29.5943 28.5126C29.5927 28.4768 29.6224 28.4487 29.6591 28.4513C29.6977 28.4541 29.7169 28.4762 29.7192 28.5137Z" fill="white"/>
</svg>
