<svg width="20" height="20" viewBox="0 0 20 20" fill="none" xmlns="http://www.w3.org/2000/svg">
<g clip-path="url(#clip0_1019_4339)">
<path d="M0 11.679C0.0766913 11.3792 0.122471 11.0669 0.234769 10.781C0.794303 9.35585 1.84568 8.53115 3.36111 8.29057C3.3932 8.2855 3.42528 8.28043 3.45698 8.27263C3.46872 8.2699 3.47889 8.26015 3.51684 8.23793C2.74993 8.11315 2.13836 7.76143 1.70012 7.1434C1.2611 6.52458 1.11124 5.83402 1.26932 5.09276C1.54713 3.78767 2.73311 2.90721 4.0529 3.00781C5.34022 3.10608 6.3916 4.16512 6.47729 5.44097C6.55985 6.6708 5.75263 7.97862 4.19102 8.25313C4.86559 8.33736 5.48382 8.56469 6.0367 8.95891C6.59389 9.35624 7.01295 9.86627 7.30994 10.5054C5.85945 11.509 5.06241 12.8855 5.01115 14.6756H0C0 13.6767 0 12.678 0 11.679Z" fill="#0D4179"/>
<path d="M9.78236 10.8812C8.17771 10.6823 7.24881 9.35341 7.3748 7.97774C7.49336 6.68201 8.65351 5.62881 9.99913 5.63037C11.3318 5.63232 12.4775 6.65355 12.6152 7.94265C12.7624 9.3191 11.8511 10.6725 10.1963 10.8854C10.9476 10.9439 11.6057 11.1584 12.1841 11.5776C13.2515 12.3512 13.7871 13.4052 13.8032 14.7177C13.8118 15.4371 13.8051 16.1569 13.8044 16.8767C13.8044 16.9145 13.7977 16.9523 13.793 16.9999H6.20878C6.20252 16.9586 6.19078 16.9157 6.19117 16.8728C6.19548 16.0497 6.18335 15.2257 6.20995 14.403C6.26395 12.7318 7.7027 11.165 9.36799 10.9381C9.49672 10.9205 9.62507 10.9026 9.78275 10.8808L9.78236 10.8812Z" fill="#0D4179"/>
<path d="M19.9834 14.6706H14.984C14.9316 12.9003 14.1483 11.525 12.686 10.5092C12.9674 9.87951 13.3876 9.36753 13.9475 8.96707C14.5012 8.57129 15.1163 8.33266 15.8018 8.25428C15.0576 8.1143 14.4499 7.76765 14.0109 7.15702C13.5676 6.54055 13.417 5.85154 13.5652 5.1099C13.8243 3.81416 15.0079 2.9224 16.3351 3.00701C17.6228 3.0889 18.6926 4.15769 18.7783 5.44095C18.8628 6.70821 18.0149 7.99264 16.4928 8.25974C16.6106 8.28119 16.728 8.3038 16.8461 8.32408C18.5811 8.62471 19.9298 10.1447 19.985 11.8974C20.0132 12.7911 19.9928 13.6868 19.9936 14.5813C19.9936 14.6058 19.9881 14.6304 19.9834 14.6702V14.6706Z" fill="#0D4179"/>
</g>
<defs>
<clipPath id="clip0_1019_4339">
<rect width="20" height="14" fill="white" transform="translate(0 3)"/>
</clipPath>
</defs>
</svg>
