<svg width="20" height="20" viewBox="0 0 20 20" fill="none" xmlns="http://www.w3.org/2000/svg">
<path d="M9.99902 0C4.47902 0 -0.000976562 4.48 -0.000976562 10C-0.000976562 15.52 4.47902 20 9.99902 20C15.519 20 19.999 15.52 19.999 10C19.999 4.48 15.519 0 9.99902 0ZM9.99902 16.5C9.16902 16.5 8.49902 15.83 8.49902 15H11.499C11.499 15.83 10.829 16.5 9.99902 16.5ZM14.999 14H4.99902V13L5.99902 12V9.39C5.99902 7.27 7.02902 5.47 8.99902 5V4.5C8.99902 3.93 9.42902 3.5 9.99902 3.5C10.569 3.5 10.999 3.93 10.999 4.5V5C12.969 5.47 13.999 7.28 13.999 9.39V12L14.999 13V14Z" fill="white"/>
</svg>
