<svg width="36" height="25" viewBox="0 0 36 25" fill="none" xmlns="http://www.w3.org/2000/svg">
<g clip-path="url(#clip0_1019_4598)">
<path d="M21.038 15.6248C22.6663 14.5043 23.7455 12.5886 23.7455 10.4165C23.7455 6.96947 21.038 4.1665 17.7084 4.1665C14.3787 4.1665 11.6712 6.96947 11.6712 10.4165C11.6712 12.5886 12.7472 14.5043 14.3787 15.6248C10.6904 17.0345 8.04956 20.6984 8.04956 24.9998H9.65883C9.65883 20.406 13.271 16.6665 17.7084 16.6665C22.1458 16.6665 25.7579 20.406 25.7579 24.9998H27.3672C27.3672 20.6984 24.7263 17.0345 21.038 15.6248ZM13.2805 10.4165C13.2805 7.88956 15.2675 5.83251 17.7084 5.83251C20.1493 5.83251 22.1362 7.88956 22.1362 10.4165C22.1362 12.9434 20.1493 15.0005 17.7084 15.0005C15.2675 15.0005 13.2805 12.9434 13.2805 10.4165Z" fill="black"/>
<path d="M29.0874 11.4583C30.7157 10.3378 31.7949 8.42206 31.7949 6.25C31.7949 2.80297 29.0874 0 25.7578 0C24.1453 0 22.6821 0.660489 21.5965 1.73173C21.1966 2.12934 20.8474 2.57952 20.5649 3.079C21.0665 3.2893 21.5457 3.5489 21.9869 3.86107C22.2726 3.38131 22.6376 2.9607 23.0661 2.61895C23.8121 2.02419 24.7421 1.6693 25.7546 1.6693C28.1955 1.6693 30.1825 3.72634 30.1825 6.25329C30.1825 8.34976 28.8113 10.1209 26.9512 10.6631C26.5703 10.7748 26.1704 10.8373 25.7546 10.8373C25.6118 10.8373 25.4721 10.8274 25.3324 10.8143C25.3039 11.4156 25.2118 11.9972 25.0626 12.5526C25.2912 12.5329 25.5197 12.5 25.7546 12.5C26.0815 12.5 26.4021 12.5263 26.7195 12.5657C30.703 13.0619 33.8041 16.5779 33.8041 20.8333H35.4134C35.4134 16.5319 32.7725 12.868 29.0842 11.4583H29.0874Z" fill="black"/>
<path d="M9.6588 12.5C9.89369 12.5 10.1222 12.5296 10.3508 12.5526C10.1984 11.994 10.1095 11.4123 10.081 10.8143C9.9413 10.8274 9.80164 10.8373 9.6588 10.8373C9.24299 10.8373 8.84306 10.7748 8.46216 10.6631C6.60214 10.1209 5.23093 8.35305 5.23093 6.25329C5.23093 3.72634 7.21792 1.6693 9.6588 1.6693C10.6713 1.6693 11.6014 2.02747 12.3473 2.61895C12.7758 2.9607 13.144 3.38131 13.4265 3.86107C13.8708 3.5489 14.347 3.2893 14.8485 3.079C14.5628 2.58281 14.2168 2.12934 13.8169 1.73173C12.7345 0.660489 11.2681 0 9.65563 0C6.32917 0 3.62165 2.80297 3.62165 6.25C3.62165 8.42206 4.69768 10.3378 6.32917 11.4583C2.64086 12.868 0 16.5319 0 20.8333H1.60927C1.60927 16.5779 4.71037 13.0619 8.69387 12.5657C9.01128 12.5263 9.33187 12.5 9.6588 12.5Z" fill="black"/>
</g>
<defs>
<clipPath id="clip0_1019_4598">
<rect width="35.4167" height="25" fill="white"/>
</clipPath>
</defs>
</svg>
