<svg width="18" height="18" viewBox="0 0 18 18" fill="none" xmlns="http://www.w3.org/2000/svg">
<path d="M9 0C7.21997 0 5.47991 0.52784 3.99987 1.51677C2.51983 2.50571 1.36628 3.91131 0.685088 5.55585C0.0038996 7.20038 -0.17433 9.00998 0.172936 10.7558C0.520203 12.5016 1.37737 14.1053 2.63604 15.364C3.89471 16.6226 5.49836 17.4798 7.24419 17.8271C8.99002 18.1743 10.7996 17.9961 12.4442 17.3149C14.0887 16.6337 15.4943 15.4802 16.4832 14.0001C17.4722 12.5201 18 10.78 18 9C17.9974 6.61385 17.0484 4.32617 15.3611 2.63891C13.6738 0.951641 11.3862 0.00259689 9 0ZM10.8992 6.29976H12.0908C12.2579 6.29976 12.4181 6.36614 12.5363 6.48429C12.6545 6.60245 12.7208 6.76271 12.7208 6.92981C12.7208 7.09691 12.6545 7.25717 12.5363 7.37533C12.4181 7.49349 12.2579 7.55987 12.0908 7.55987H10.8992C10.6045 9.09001 9.27273 10.1701 7.67859 10.1701H7.49408L10.7632 13.2706C10.8848 13.3876 10.9556 13.5477 10.9603 13.7164C10.965 13.8851 10.9033 14.0489 10.7884 14.1725C10.7315 14.2326 10.6633 14.2809 10.5877 14.3146C10.5121 14.3483 10.4306 14.3667 10.3478 14.3688C10.2651 14.371 10.1828 14.3568 10.1055 14.327C10.0283 14.2973 9.95768 14.2526 9.89774 14.1955L5.47718 10.0154C5.38576 9.92727 5.32248 9.81405 5.29533 9.69002C5.26819 9.56598 5.27838 9.43669 5.32464 9.31844C5.37089 9.2002 5.45113 9.0983 5.55523 9.02561C5.65933 8.95292 5.78263 8.91268 5.90957 8.90999H7.67823C8.57309 8.90999 9.33348 8.36994 9.59901 7.55987H5.90957C5.74247 7.55987 5.58222 7.49349 5.46406 7.37533C5.3459 7.25717 5.27952 7.09691 5.27952 6.92981C5.27952 6.76271 5.3459 6.60245 5.46406 6.48429C5.58222 6.36614 5.74247 6.29976 5.90957 6.29976H9.59901C9.33357 5.48968 8.57291 4.85963 7.67823 4.85963H5.90957C5.74247 4.85963 5.58222 4.79325 5.46406 4.67509C5.3459 4.55693 5.27952 4.39667 5.27952 4.22957C5.27952 4.06247 5.3459 3.90221 5.46406 3.78405C5.58222 3.66589 5.74247 3.59951 5.90957 3.59951H12.0904C12.2575 3.59951 12.4178 3.66589 12.5359 3.78405C12.6541 3.90221 12.7205 4.06247 12.7205 4.22957C12.7205 4.39667 12.6541 4.55693 12.5359 4.67509C12.4178 4.79325 12.2575 4.85963 12.0904 4.85963H10.2606C10.5765 5.28703 10.7945 5.77869 10.8992 6.29976Z" fill="#0D4179"/>
</svg>
