<svg width="26" height="20" viewBox="0 0 26 20" fill="none" xmlns="http://www.w3.org/2000/svg">
<path d="M2.62854 9.58476C2.63071 7.23471 2.63288 4.88466 2.63433 2.53461C2.63577 1.09307 3.76594 0.00827631 5.26923 0.00827631C9.88609 0.00827631 14.503 0.00897036 19.1198 0.00341797C19.2666 0.00341797 19.4105 0.0811514 19.558 0.0166049C20.8588 0.0971145 21.8097 1.35889 21.8075 2.48395C21.8032 4.87564 21.8068 7.26802 21.8053 9.65971C21.8053 9.77146 21.8147 9.88597 21.7547 9.99008C21.6202 10.1157 21.4496 10.0748 21.2919 10.0754C18.8197 10.0782 16.3475 10.0935 13.876 10.0657C13.2969 10.0595 12.8572 10.2191 12.4516 10.5988C11.5036 11.4871 10.4956 12.3151 9.53467 13.1917C9.43561 13.282 9.33004 13.3625 9.19266 13.393C8.76026 13.4319 8.32713 13.4083 7.89401 13.4104C7.02776 13.4145 6.16078 13.4124 5.29453 13.4117C3.71533 13.4104 2.55768 12.3027 2.55479 10.791C2.55479 10.6612 2.55262 10.5314 2.55623 10.401C2.57214 10.1275 2.48392 9.84641 2.62854 9.58476Z" fill="white"/>
<path d="M9.21169 13.3419C9.72797 12.897 10.2464 12.4542 10.7598 12.0065C11.4272 11.4242 12.091 10.8384 12.7541 10.2506C12.95 10.0771 13.1713 10 13.4395 10.0007C16.0925 10.0049 18.7455 10.0035 21.3985 10.0028C21.5069 10.0028 21.6147 9.99726 21.7231 9.99449C21.7889 9.94313 21.8663 9.92508 21.948 9.92369C22.3768 9.91606 22.8063 9.91606 23.2351 9.92369C23.3168 9.92508 23.3949 9.94243 23.46 9.99449C23.533 10 23.6068 10.0056 23.6798 10.0111C24.1368 10.0993 24.3747 10.3616 24.4072 10.8142C24.413 10.8919 24.4115 10.9703 24.4115 11.0481C24.4115 13.6827 24.4115 16.3173 24.4115 18.9519C24.4115 19.0296 24.4123 19.108 24.4065 19.1858C24.3739 19.6383 24.1361 19.9006 23.6791 19.9881C23.4448 19.9909 23.2105 19.9964 22.9755 19.9964C19.807 19.9971 16.6392 19.995 13.4706 19.9999C13.1821 20.0006 12.9471 19.9208 12.7367 19.7355C11.2349 18.4105 9.73014 17.089 8.22758 15.7655C8.1155 15.6669 7.9933 15.5732 7.94847 15.4233C8.00342 15.3546 8.08441 15.3414 8.16467 15.3407C8.5385 15.338 8.91306 15.313 9.28617 15.356C9.44018 15.3963 9.50526 15.5288 9.59348 15.6357C9.90006 16.0063 10.3072 16.1056 10.7584 15.9876C11.1503 15.8849 11.4164 15.6191 11.4952 15.2297C11.5856 14.7841 11.446 14.4093 11.0461 14.1393C10.6036 13.8402 9.97888 13.9297 9.60866 14.3476C9.51683 14.4517 9.45537 14.5863 9.30641 14.637C8.8798 14.6786 8.45318 14.6765 8.02656 14.6398C7.8523 14.5683 7.92316 14.4655 8.00053 14.3767C8.13864 14.2199 8.28398 14.0637 8.45318 13.9408C8.71494 13.7514 8.90149 13.4744 9.21169 13.3419Z" fill="#2867AA"/>
<path d="M23.7061 19.9921C24.1548 19.8159 24.3371 19.4946 24.335 19.0129C24.3232 16.3684 24.3232 13.7233 24.335 11.0789C24.3371 10.5972 23.8848 10.1862 23.436 10.0094C23.914 9.82588 24.6619 10.0908 25.1566 10.1011C25.6192 10.1108 25.9942 10.463 25.997 10.935C26.0026 11.8454 25.9991 12.7558 25.9991 13.6669C25.9991 15.4622 25.9998 17.2575 25.9991 19.0528C25.9991 19.6817 25.6749 19.9996 25.0342 19.9996C24.5917 19.9996 24.1486 19.9948 23.7061 19.9921Z" fill="#66819D"/>
<path d="M23.4594 9.99453C22.8802 9.99453 22.301 9.99453 21.7225 9.99453C21.7232 7.52233 21.724 5.04944 21.724 2.57724C21.724 1.33767 20.9344 0.368084 19.6791 0.0627024C19.6372 0.0522917 19.5981 0.0328583 19.5576 0.0175892C20.1346 0.0175892 20.7138 -0.0393227 21.2872 0.0515976C22.5533 0.252178 23.4521 1.26132 23.4565 2.50645C23.4644 5.00224 23.4586 7.49804 23.4594 9.99453Z" fill="#898989"/>
<path d="M7.94827 14.5763C8.42044 14.5756 8.89261 14.5749 9.36478 14.5742C9.76899 14.4479 10.1811 14.4867 10.5875 14.5423C10.8109 14.5728 10.9476 14.7845 10.9476 14.9996C10.9476 15.2155 10.8109 15.4265 10.5875 15.457C10.1811 15.5125 9.76899 15.5514 9.36478 15.4251C8.89261 15.4244 8.42044 15.4237 7.94827 15.423C6.20565 15.4202 4.46375 15.4195 2.72113 15.4154C1.32848 15.4119 0.268444 14.5749 0.068874 13.2569C-0.0251264 12.6357 -0.0424803 11.9937 0.142628 11.3739C0.457891 10.3218 1.42176 9.63326 2.62785 9.58398C2.62785 9.86299 2.62785 10.142 2.62785 10.421C2.54398 10.4974 2.43262 10.5064 2.3285 10.5293C1.49623 10.7118 0.995139 11.3024 0.979231 12.1263C0.97417 12.3685 0.975616 12.6114 0.979231 12.8536C0.993693 13.8295 1.6893 14.4985 2.71173 14.5041C4.03786 14.5117 5.36471 14.5055 6.69084 14.5062C7.0155 14.5062 7.34089 14.5048 7.66555 14.5076C7.76461 14.5103 7.86512 14.5103 7.94827 14.5763Z" fill="#898989"/>
<path d="M10.4376 7.13523C10.4397 7.66409 10.4448 8.19296 10.4419 8.72182C10.4412 8.96127 10.2308 9.1681 9.98419 9.16879C8.41221 9.17157 6.84024 9.17018 5.26754 9.17018C5.01519 9.17018 4.81851 9.05983 4.81417 8.81899C4.80477 8.2582 4.75416 7.69463 4.85032 7.13523C4.81923 6.71811 5.07448 6.43702 5.36443 6.18577C5.58787 5.99213 5.85974 5.8672 6.15621 5.80682C6.30155 5.77698 6.36807 5.74366 6.26539 5.59097C6.08896 5.32932 6.0275 5.03296 6.02967 4.72341C6.03184 4.41178 6.02316 4.09946 6.03256 3.78783C6.04919 3.22496 6.42302 2.86614 7.00944 2.85365C7.41581 2.84532 7.82218 2.84601 8.22783 2.85365C8.82726 2.86475 9.20037 3.22566 9.21339 3.80519C9.22062 4.12584 9.21339 4.44649 9.21556 4.76714C9.21773 5.05239 9.14253 5.32029 8.99285 5.56043C8.88945 5.72631 8.90246 5.77489 9.10926 5.82278C9.64 5.94702 10.0637 6.21978 10.3067 6.71394C10.3739 6.85136 10.3963 6.99503 10.4376 7.13523Z" fill="#FCB22E"/>
<path d="M10.4375 7.13502C10.3609 7.08713 10.3659 7.00038 10.337 6.93097C10.0695 6.28343 9.60598 5.95792 8.7231 5.81702C9.337 5.1549 9.13381 4.35744 9.11646 3.60232C9.10778 3.22267 8.7137 2.93672 8.31022 2.92701C7.85035 2.9159 7.38902 2.91521 6.92914 2.9277C6.52494 2.93811 6.15906 3.22614 6.12435 3.60856C6.08025 4.09023 6.07229 4.57815 6.13448 5.06051C6.17063 5.3416 6.31959 5.58035 6.52928 5.81702C5.66375 5.91697 5.07227 6.31535 4.85101 7.13572C4.76352 7.0677 4.80546 6.974 4.80546 6.89349C4.80256 5.47208 4.80257 4.05067 4.80401 2.62926C4.80401 2.23365 4.9479 2.09207 5.35211 2.09137C6.86913 2.08999 8.38615 2.08999 9.90317 2.09137C10.2719 2.09137 10.4419 2.23365 10.4419 2.55847C10.4433 4.08399 10.439 5.6095 10.4375 7.13502Z" fill="#D6E5E5"/>
<path d="M16.0822 7.08763C14.999 7.08763 13.9159 7.08763 12.8327 7.08763C12.7604 7.08763 12.6881 7.0911 12.6158 7.08624C12.3562 7.06889 12.1841 6.90579 12.1812 6.67675C12.1783 6.44772 12.3489 6.27698 12.6049 6.25755C12.6765 6.252 12.7495 6.25547 12.8218 6.25547C14.9976 6.25547 17.1726 6.25547 19.3484 6.25547C19.4026 6.25547 19.4568 6.25408 19.511 6.25616C19.8061 6.26657 19.9919 6.43245 19.9868 6.67953C19.9818 6.91689 19.8024 7.07514 19.5219 7.08763C19.459 7.09041 19.3954 7.08832 19.3324 7.08832C18.2485 7.08763 17.1654 7.08763 16.0822 7.08763Z" fill="#D6E5E5"/>
<path d="M13.9216 4.17779C13.9194 4.43806 13.9201 4.69833 13.9136 4.9579C13.9064 5.25496 13.7509 5.4125 13.4508 5.42014C13.1797 5.42708 12.9085 5.42777 12.6381 5.42014C12.3489 5.41181 12.184 5.25773 12.1826 4.97872C12.1768 4.16391 12.1768 3.3484 12.1826 2.53359C12.1847 2.25458 12.3489 2.1012 12.6388 2.09287C12.91 2.08524 13.1811 2.08593 13.4516 2.09287C13.7524 2.10051 13.9071 2.25805 13.9143 2.55511C13.9208 2.81538 13.9201 3.07495 13.9223 3.33522C14.0416 3.61631 14.0416 3.8967 13.9216 4.17779Z" fill="#3C3C3C"/>
<path d="M13.9209 4.17754C13.9209 3.89645 13.9209 3.61605 13.9209 3.33496C15.7373 3.33635 17.5537 3.33843 19.37 3.33982C19.451 3.33982 19.5349 3.33149 19.6137 3.34537C19.848 3.38632 19.9846 3.52444 19.9846 3.75625C19.9846 3.98806 19.848 4.12687 19.6137 4.16712C19.5262 4.18239 19.4337 4.17268 19.3433 4.17268C17.5356 4.17476 15.7286 4.17615 13.9209 4.17754Z" fill="#A45528"/>
<path d="M14.341 9.16993C13.7907 9.16993 13.2405 9.17201 12.6902 9.16924C12.3699 9.16716 12.1804 9.00891 12.1812 8.75281C12.1812 8.4974 12.3706 8.33846 12.6916 8.33777C13.8009 8.33569 14.9101 8.33499 16.02 8.33777C16.323 8.33846 16.5081 8.49532 16.516 8.74032C16.524 8.99503 16.3316 9.16646 16.0193 9.16854C15.4596 9.17271 14.8999 9.16993 14.341 9.16993Z" fill="#D6E5E5"/>
<path d="M6.75463 10.4192C7.23259 10.4192 7.71054 10.4171 8.1885 10.4199C8.51171 10.422 8.70188 10.574 8.70622 10.828C8.71128 11.0904 8.51533 11.2507 8.17693 11.2514C7.23042 11.2535 6.28318 11.2535 5.33667 11.2514C4.99538 11.2507 4.80232 11.0938 4.80521 10.8301C4.80882 10.5684 5.00189 10.4206 5.34752 10.4199C5.8168 10.4178 6.28608 10.4192 6.75463 10.4192Z" fill="#D6E5E5"/>
<path d="M16.7289 13.6219C16.7304 13.9849 16.9589 14.257 17.366 14.359C17.8714 14.486 18.3783 14.6089 18.8866 14.7255C19.7138 14.9149 20.2091 15.5701 20.1903 16.3322C20.1708 17.1241 19.5388 17.7543 18.6849 17.8501C18.4831 17.873 18.4499 17.9444 18.46 18.1075C18.4708 18.2804 18.4694 18.4546 18.46 18.6274C18.4448 18.9189 18.2503 19.1167 18.0008 19.1084C17.7521 19.1 17.5995 18.9182 17.5952 18.6205C17.5923 18.4469 17.5844 18.2727 17.5974 18.1006C17.6111 17.9278 17.5576 17.8695 17.3638 17.8521C16.4708 17.7723 15.8446 17.0894 15.8598 16.2392C15.8649 15.965 16.0167 15.7943 16.2655 15.7818C16.4947 15.7707 16.6819 15.9317 16.7232 16.176C16.841 16.8777 17.0276 17.029 17.7731 17.029C18.0081 17.029 18.2431 17.0325 18.4781 17.0283C18.9416 17.02 19.2785 16.7431 19.3234 16.3384C19.3631 15.9817 19.0819 15.6298 18.6682 15.5278C18.1621 15.4028 17.6538 15.2855 17.1476 15.1613C16.2698 14.9469 15.7868 14.2785 15.867 13.3957C15.9314 12.687 16.5872 12.1047 17.4115 12.0367C17.5511 12.0249 17.6024 11.9853 17.5966 11.8514C17.5887 11.6439 17.5916 11.435 17.5959 11.2268C17.6017 10.9575 17.7658 10.7874 18.016 10.7833C18.2445 10.7798 18.4369 10.9471 18.4564 11.1927C18.473 11.3996 18.4687 11.6092 18.46 11.8167C18.4542 11.9631 18.4904 12.0242 18.6639 12.0388C19.5099 12.1082 20.1462 12.7502 20.1954 13.5615C20.2135 13.8565 20.0363 14.0897 19.7803 14.1105C19.5287 14.1307 19.3675 13.9634 19.3284 13.64C19.2641 13.1132 18.9813 12.8668 18.4354 12.8647C18.1194 12.8633 17.8027 12.8592 17.4867 12.8668C17.0493 12.8772 16.7275 13.2034 16.7289 13.6219Z" fill="white"/>
<path d="M9.36377 15.4261C9.69783 15.4226 10.0312 15.4212 10.3652 15.4164C10.6863 15.4115 10.8757 15.256 10.875 14.9999C10.875 14.7438 10.6863 14.5884 10.3652 14.5842C10.0312 14.5793 9.69783 14.5772 9.36377 14.5745C9.69783 13.9942 10.2322 13.7666 10.8237 13.9526C11.366 14.1226 11.6776 14.6529 11.5771 15.2338C11.4954 15.7058 11.0015 16.0785 10.4788 16.0972C9.93862 16.1173 9.606 15.8487 9.36377 15.4261Z" fill="#3C3C3C"/>
<path d="M13.0548 2.92348C13.01 2.92348 12.9651 2.9221 12.9203 2.92348C12.7605 2.92834 12.6173 2.89017 12.6217 2.70972C12.626 2.52926 12.775 2.5015 12.9312 2.50636C13.0208 2.50914 13.1105 2.50775 13.1994 2.50705C13.3534 2.50497 13.4764 2.55703 13.472 2.72013C13.4677 2.88184 13.3397 2.92834 13.1886 2.92348C13.1445 2.92279 13.0996 2.92348 13.0548 2.92348Z" fill="#818686"/>
</svg>
