<svg width="20" height="20" viewBox="0 0 20 20" fill="none" xmlns="http://www.w3.org/2000/svg">
<g clip-path="url(#clip0_1019_4065)">
<path d="M9.99975 20C8.02183 20.0002 6.08829 19.4138 4.44367 18.3149C2.79905 17.2161 1.51721 15.6543 0.760273 13.827C0.0033372 11.9996 -0.194697 9.98882 0.191215 8.04892C0.577127 6.10901 1.52965 4.32712 2.92832 2.92859C4.80378 1.05313 7.34745 -0.000488281 9.99975 -0.000488281C12.6521 -0.000488281 15.1957 1.05313 17.0712 2.92859C18.9466 4.80405 20.0003 7.34772 20.0003 10C20.0003 12.6523 18.9466 15.196 17.0712 17.0714C16.1447 18.0029 15.0426 18.7413 13.8288 19.244C12.615 19.7467 11.3135 20.0037 9.99975 20ZM4.66332 6.95038C4.46087 6.95057 4.26678 7.03115 4.12373 7.1744C3.98068 7.31766 3.90037 7.51186 3.90046 7.71431V11.5243C3.90103 11.7263 3.98163 11.9199 4.12461 12.0626C4.26759 12.2053 4.4613 12.2855 4.66332 12.2857H6.94904V15.3354H13.049V12.2857H15.3347C15.5369 12.2855 15.7307 12.205 15.8736 12.0619C16.0165 11.9189 16.0968 11.725 16.0969 11.5229V7.71431C16.0968 7.51214 16.0165 7.31826 15.8736 7.17524C15.7307 7.03222 15.5369 6.95173 15.3347 6.95145L4.66332 6.95038ZM6.94904 4.66466V6.18931H13.049V4.66359L6.94904 4.66466ZM12.2855 14.5739H7.71404V10.7625H12.2855V14.5739ZM5.42511 9.23788C5.27433 9.23781 5.12696 9.19304 5.00162 9.10923C4.87628 9.02541 4.77861 8.90632 4.72094 8.76701C4.66327 8.6277 4.6482 8.47441 4.67763 8.32653C4.70707 8.17866 4.77968 8.04283 4.8863 7.93621C4.99291 7.82959 5.12874 7.75698 5.27662 7.72755C5.4245 7.69811 5.57778 7.71318 5.7171 7.77085C5.85641 7.82852 5.9755 7.9262 6.05931 8.05153C6.14312 8.17687 6.18789 8.32424 6.18796 8.47502C6.18787 8.67731 6.10747 8.8713 5.96442 9.01434C5.82138 9.15738 5.6274 9.23778 5.42511 9.23788V9.23788Z" fill="white"/>
</g>
<defs>
<clipPath id="clip0_1019_4065">
<rect width="20" height="20" fill="white"/>
</clipPath>
</defs>
</svg>
