<svg width="17" height="20" viewBox="0 0 17 20" fill="none" xmlns="http://www.w3.org/2000/svg">
<path d="M14.53 4.0724H15.765C16.43 4.0724 17 4.61539 17 5.24887V18.8235C17 19.457 16.43 20 15.765 20H5.7C5.035 20 4.465 19.457 4.465 18.8235V17.6471H13.295C13.96 17.6471 14.53 17.1041 14.53 16.4706V4.0724ZM1.235 0H11.3C11.965 0 12.535 0.542987 12.535 1.17647V14.7511C12.535 15.3846 11.965 15.9276 11.3 15.9276H1.235C0.57 15.9276 0 15.3846 0 14.7511V1.17647C0 0.542987 0.57 0 1.235 0ZM3.705 3.25792C3.135 3.25792 2.66 3.71041 2.66 4.25339C2.66 4.79638 3.135 5.24887 3.705 5.24887H8.925C9.495 5.24887 9.97 4.79638 9.97 4.25339C9.97 3.71041 9.495 3.25792 8.925 3.25792H3.705ZM3.705 7.14932C3.135 7.14932 2.66 7.60181 2.66 8.1448C2.66 8.68778 3.135 9.14027 3.705 9.14027H8.925C9.495 9.14027 9.97 8.68778 9.97 8.1448C9.97 7.60181 9.495 7.14932 8.925 7.14932H3.705ZM3.705 10.9502C3.135 10.9502 2.66 11.4027 2.66 11.9457C2.66 12.4887 3.135 12.9412 3.705 12.9412H8.925C9.495 12.9412 9.97 12.4887 9.97 11.9457C9.97 11.4027 9.495 10.9502 8.925 10.9502H3.705Z" fill="#0D4179"/>
</svg>
