<svg width="15" height="18" viewBox="0 0 15 18" fill="none" xmlns="http://www.w3.org/2000/svg">
<mask id="path-1-inside-1_1019_3947" fill="white">
<path d="M14.998 4.79334C15.0039 4.7548 14.9941 4.71242 14.9686 4.67389C14.9666 4.67196 14.9647 4.66811 14.9627 4.66618C14.9607 4.66426 14.9588 4.6604 14.9568 4.65848C14.9549 4.65655 14.9529 4.6527 14.9509 4.65077L14.945 4.64499C14.945 4.64499 14.945 4.64306 14.9431 4.64306L14.3679 4.07858C13.9243 3.64125 13.4787 3.20585 13.0351 2.77044C12.5345 2.27917 12.0359 1.78982 11.5373 1.29855L10.4655 0.24664C10.4027 0.18499 10.3418 0.119487 10.2751 0.0597636C10.1986 -0.00959277 10.1141 0.00196663 10.0219 0.00196663H1.51237C1.18259 0.00196663 0.850843 -0.0269319 0.550507 0.136826C0.208948 0.32563 0.0047984 0.685898 0.000872435 1.06736V16.8421C0.000872435 16.8748 -0.00109054 16.9057 0.000872435 16.9384C0.00676137 17.4682 0.409172 17.919 0.945066 17.9865C1.12566 18.0096 1.31411 17.9961 1.49666 17.9961H13.5513C13.779 17.9961 14.0303 18.0173 14.2482 17.946C14.6938 17.8015 14.9941 17.395 15 16.9346V4.79334H14.998ZM12.0379 14.6246H2.96105C2.74119 14.6246 2.57826 14.4474 2.56845 14.2393C2.55863 14.0312 2.75493 13.854 2.96105 13.854H3.5735V10.2551C3.5735 10.1492 3.55975 10.0201 3.61079 9.92185C3.7325 9.68489 4.03283 9.73112 4.25661 9.73112H5.08695C5.17136 9.73112 5.25773 9.73305 5.34214 9.73498C5.35195 9.73498 5.36373 9.73498 5.37355 9.7369C5.37944 9.7369 5.38533 9.73883 5.39121 9.73883C5.3971 9.73883 5.40299 9.74076 5.40888 9.74076C5.41281 9.74076 5.41673 9.74268 5.42066 9.74268C5.43047 9.74461 5.44029 9.74654 5.4501 9.75039H5.45207C5.46581 9.75424 5.47955 9.76002 5.49329 9.7658C5.59144 9.80818 5.66014 9.89103 5.68959 10.0008C5.69548 10.0182 5.70529 10.0394 5.70725 10.0606C5.70725 10.0644 5.70922 10.0663 5.70922 10.0683V10.0702C5.70922 10.076 5.70922 10.0818 5.71118 10.0895C5.71118 10.0914 5.70922 10.0933 5.70922 10.0952V13.852H6.51404V13.8309C6.51404 13.7981 6.51796 13.7634 6.51796 13.7307C6.51796 13.696 6.51993 13.6613 6.51993 13.6266C6.52189 13.5226 6.52582 13.4186 6.52778 13.3165C6.52778 13.2876 6.52974 13.2567 6.52974 13.2278C6.52974 13.2028 6.52974 13.1797 6.53171 13.1546V7.95098C6.53171 7.90281 6.52778 7.85657 6.52778 7.80841C6.52778 7.79107 6.52974 7.77181 6.53171 7.75447C6.53367 7.74291 6.53563 7.73327 6.53759 7.72364L6.54937 7.68318C6.55134 7.67933 6.5533 7.67355 6.55526 7.6697L6.56115 7.65814L6.57882 7.62346C6.58078 7.62153 6.58078 7.61768 6.58274 7.61575C6.58667 7.60997 6.5906 7.60227 6.59648 7.59649C6.64948 7.52328 6.73193 7.47319 6.834 7.4597C6.84382 7.45778 6.8556 7.45778 6.86737 7.45585C6.90271 7.45392 6.94001 7.452 6.97534 7.452H7.00086C7.19912 7.44814 7.39738 7.45392 7.59564 7.45778H8.22576C8.2552 7.45778 8.28268 7.45392 8.31213 7.45585C8.34943 7.45778 8.38476 7.46355 8.41617 7.47511C8.41813 7.47511 8.42205 7.47704 8.42402 7.47704C8.44954 7.48475 8.47113 7.49631 8.49272 7.50979C8.50057 7.51557 8.50843 7.51943 8.51432 7.52521C8.52217 7.53098 8.52806 7.53676 8.53591 7.54254L8.54572 7.55218L8.55554 7.56181C8.56732 7.5753 8.57909 7.58878 8.58891 7.60419C8.59087 7.60805 8.5948 7.6119 8.59676 7.61575C8.60461 7.62731 8.6105 7.63887 8.61639 7.65236C8.61835 7.65621 8.62032 7.66006 8.62228 7.66584C8.63013 7.68318 8.63602 7.70052 8.63995 7.71979C8.64191 7.72557 8.64387 7.73327 8.64583 7.73905C8.6478 7.74291 8.6478 7.74869 8.64976 7.75254C8.65172 7.7641 8.65369 7.77566 8.65369 7.78914V13.854H9.48599C9.48599 13.6074 9.49777 13.3608 9.49777 13.1142V8.82756C9.49777 8.7794 9.49384 8.73316 9.50758 8.685C9.56058 8.49619 9.73136 8.44032 9.90803 8.44032H11.2291C11.3469 8.44032 11.449 8.475 11.5196 8.54436C11.5295 8.55399 11.5393 8.56555 11.5491 8.57711C11.5628 8.59445 11.5746 8.61372 11.5844 8.63491C11.5942 8.6561 11.6021 8.67922 11.6099 8.70234C11.6158 8.71775 11.6178 8.73316 11.6197 8.7505V13.854H12.0359C12.2558 13.854 12.4187 14.0312 12.4285 14.2393C12.4383 14.4474 12.242 14.6246 12.0379 14.6246ZM11.0623 4.58719H10.8031C10.7874 4.58719 10.7698 4.58527 10.7541 4.58527C10.7305 4.57949 10.707 4.57563 10.6834 4.56985C10.6638 4.56407 10.5774 4.54673 10.6324 4.55444C10.6383 4.55444 10.6441 4.55637 10.6481 4.55637C10.6402 4.55444 10.6284 4.55059 10.6206 4.54673C10.601 4.5371 10.5833 4.52747 10.5637 4.51591L10.5342 4.49664C10.5303 4.49086 10.4812 4.45233 10.4714 4.44463C10.4675 4.44077 10.4498 4.42536 10.4341 4.40995C10.4321 4.4061 10.4302 4.40224 10.4263 4.39839L10.4204 4.38683C10.4125 4.3772 10.4066 4.36564 10.3988 4.356C10.3948 4.35022 10.3791 4.32518 10.3674 4.30399C10.3654 4.30013 10.3634 4.29435 10.3615 4.28665C10.3595 4.27702 10.3556 4.26931 10.3517 4.25968C10.3497 4.25582 10.3497 4.2539 10.3477 4.25004C10.3399 4.22692 10.3477 4.20381 10.3281 4.18069V4.15564C10.3261 4.14601 10.3242 4.14023 10.3242 4.13638C10.3242 4.1383 10.3261 4.14601 10.3281 4.15179C10.3281 4.1383 10.3261 4.12674 10.3261 4.11904C10.3261 4.08629 10.3261 4.05546 10.3281 4.02271V2.10192C10.3281 1.84184 10.332 1.58175 10.334 1.32166L11.2448 2.21559L13.6612 4.58719H11.0623Z"/>
</mask>
<path d="M14.998 4.79334C15.0039 4.7548 14.9941 4.71242 14.9686 4.67389C14.9666 4.67196 14.9647 4.66811 14.9627 4.66618C14.9607 4.66426 14.9588 4.6604 14.9568 4.65848C14.9549 4.65655 14.9529 4.6527 14.9509 4.65077L14.945 4.64499C14.945 4.64499 14.945 4.64306 14.9431 4.64306L14.3679 4.07858C13.9243 3.64125 13.4787 3.20585 13.0351 2.77044C12.5345 2.27917 12.0359 1.78982 11.5373 1.29855L10.4655 0.24664C10.4027 0.18499 10.3418 0.119487 10.2751 0.0597636C10.1986 -0.00959277 10.1141 0.00196663 10.0219 0.00196663H1.51237C1.18259 0.00196663 0.850843 -0.0269319 0.550507 0.136826C0.208948 0.32563 0.0047984 0.685898 0.000872435 1.06736V16.8421C0.000872435 16.8748 -0.00109054 16.9057 0.000872435 16.9384C0.00676137 17.4682 0.409172 17.919 0.945066 17.9865C1.12566 18.0096 1.31411 17.9961 1.49666 17.9961H13.5513C13.779 17.9961 14.0303 18.0173 14.2482 17.946C14.6938 17.8015 14.9941 17.395 15 16.9346V4.79334H14.998ZM12.0379 14.6246H2.96105C2.74119 14.6246 2.57826 14.4474 2.56845 14.2393C2.55863 14.0312 2.75493 13.854 2.96105 13.854H3.5735V10.2551C3.5735 10.1492 3.55975 10.0201 3.61079 9.92185C3.7325 9.68489 4.03283 9.73112 4.25661 9.73112H5.08695C5.17136 9.73112 5.25773 9.73305 5.34214 9.73498C5.35195 9.73498 5.36373 9.73498 5.37355 9.7369C5.37944 9.7369 5.38533 9.73883 5.39121 9.73883C5.3971 9.73883 5.40299 9.74076 5.40888 9.74076C5.41281 9.74076 5.41673 9.74268 5.42066 9.74268C5.43047 9.74461 5.44029 9.74654 5.4501 9.75039H5.45207C5.46581 9.75424 5.47955 9.76002 5.49329 9.7658C5.59144 9.80818 5.66014 9.89103 5.68959 10.0008C5.69548 10.0182 5.70529 10.0394 5.70725 10.0606C5.70725 10.0644 5.70922 10.0663 5.70922 10.0683V10.0702C5.70922 10.076 5.70922 10.0818 5.71118 10.0895C5.71118 10.0914 5.70922 10.0933 5.70922 10.0952V13.852H6.51404V13.8309C6.51404 13.7981 6.51796 13.7634 6.51796 13.7307C6.51796 13.696 6.51993 13.6613 6.51993 13.6266C6.52189 13.5226 6.52582 13.4186 6.52778 13.3165C6.52778 13.2876 6.52974 13.2567 6.52974 13.2278C6.52974 13.2028 6.52974 13.1797 6.53171 13.1546V7.95098C6.53171 7.90281 6.52778 7.85657 6.52778 7.80841C6.52778 7.79107 6.52974 7.77181 6.53171 7.75447C6.53367 7.74291 6.53563 7.73327 6.53759 7.72364L6.54937 7.68318C6.55134 7.67933 6.5533 7.67355 6.55526 7.6697L6.56115 7.65814L6.57882 7.62346C6.58078 7.62153 6.58078 7.61768 6.58274 7.61575C6.58667 7.60997 6.5906 7.60227 6.59648 7.59649C6.64948 7.52328 6.73193 7.47319 6.834 7.4597C6.84382 7.45778 6.8556 7.45778 6.86737 7.45585C6.90271 7.45392 6.94001 7.452 6.97534 7.452H7.00086C7.19912 7.44814 7.39738 7.45392 7.59564 7.45778H8.22576C8.2552 7.45778 8.28268 7.45392 8.31213 7.45585C8.34943 7.45778 8.38476 7.46355 8.41617 7.47511C8.41813 7.47511 8.42205 7.47704 8.42402 7.47704C8.44954 7.48475 8.47113 7.49631 8.49272 7.50979C8.50057 7.51557 8.50843 7.51943 8.51432 7.52521C8.52217 7.53098 8.52806 7.53676 8.53591 7.54254L8.54572 7.55218L8.55554 7.56181C8.56732 7.5753 8.57909 7.58878 8.58891 7.60419C8.59087 7.60805 8.5948 7.6119 8.59676 7.61575C8.60461 7.62731 8.6105 7.63887 8.61639 7.65236C8.61835 7.65621 8.62032 7.66006 8.62228 7.66584C8.63013 7.68318 8.63602 7.70052 8.63995 7.71979C8.64191 7.72557 8.64387 7.73327 8.64583 7.73905C8.6478 7.74291 8.6478 7.74869 8.64976 7.75254C8.65172 7.7641 8.65369 7.77566 8.65369 7.78914V13.854H9.48599C9.48599 13.6074 9.49777 13.3608 9.49777 13.1142V8.82756C9.49777 8.7794 9.49384 8.73316 9.50758 8.685C9.56058 8.49619 9.73136 8.44032 9.90803 8.44032H11.2291C11.3469 8.44032 11.449 8.475 11.5196 8.54436C11.5295 8.55399 11.5393 8.56555 11.5491 8.57711C11.5628 8.59445 11.5746 8.61372 11.5844 8.63491C11.5942 8.6561 11.6021 8.67922 11.6099 8.70234C11.6158 8.71775 11.6178 8.73316 11.6197 8.7505V13.854H12.0359C12.2558 13.854 12.4187 14.0312 12.4285 14.2393C12.4383 14.4474 12.242 14.6246 12.0379 14.6246ZM11.0623 4.58719H10.8031C10.7874 4.58719 10.7698 4.58527 10.7541 4.58527C10.7305 4.57949 10.707 4.57563 10.6834 4.56985C10.6638 4.56407 10.5774 4.54673 10.6324 4.55444C10.6383 4.55444 10.6441 4.55637 10.6481 4.55637C10.6402 4.55444 10.6284 4.55059 10.6206 4.54673C10.601 4.5371 10.5833 4.52747 10.5637 4.51591L10.5342 4.49664C10.5303 4.49086 10.4812 4.45233 10.4714 4.44463C10.4675 4.44077 10.4498 4.42536 10.4341 4.40995C10.4321 4.4061 10.4302 4.40224 10.4263 4.39839L10.4204 4.38683C10.4125 4.3772 10.4066 4.36564 10.3988 4.356C10.3948 4.35022 10.3791 4.32518 10.3674 4.30399C10.3654 4.30013 10.3634 4.29435 10.3615 4.28665C10.3595 4.27702 10.3556 4.26931 10.3517 4.25968C10.3497 4.25582 10.3497 4.2539 10.3477 4.25004C10.3399 4.22692 10.3477 4.20381 10.3281 4.18069V4.15564C10.3261 4.14601 10.3242 4.14023 10.3242 4.13638C10.3242 4.1383 10.3261 4.14601 10.3281 4.15179C10.3281 4.1383 10.3261 4.12674 10.3261 4.11904C10.3261 4.08629 10.3261 4.05546 10.3281 4.02271V2.10192C10.3281 1.84184 10.332 1.58175 10.334 1.32166L11.2448 2.21559L13.6612 4.58719H11.0623Z" fill="#7C7C7C" stroke="#7C7C7C" stroke-width="2" mask="url(#path-1-inside-1_1019_3947)"/>
</svg>
