<svg width="20" height="20" viewBox="0 0 20 20" fill="none" xmlns="http://www.w3.org/2000/svg">
<path d="M12.4883 19.1965L12.5923 17.0451C12.5843 16.9731 12.5923 16.8931 12.6083 16.8291C13.0961 16.6452 13.56 16.4053 13.9919 16.1253C14.1518 16.0774 14.3358 16.1013 14.4717 16.2133L16.3912 17.197C16.5912 17.349 16.8791 17.309 17.031 17.1091L18.3507 15.3815C18.5026 15.1816 18.4626 14.8937 18.2627 14.7417L16.8071 13.1502C16.7431 13.1022 16.7031 13.0462 16.6631 12.9822C16.8711 12.5103 17.031 12.0145 17.143 11.5026C17.223 11.3587 17.367 11.2467 17.5429 11.2227L19.5983 10.5589C19.8463 10.5269 20.0222 10.295 19.9902 10.047L19.7023 7.89562C19.6703 7.64769 19.4384 7.47174 19.1904 7.50373L17.039 7.39975C16.9671 7.40775 16.8871 7.39976 16.8231 7.38376C16.6392 6.8959 16.3992 6.43202 16.1193 6.00014C16.0713 5.84019 16.0953 5.65624 16.2073 5.52028L17.191 3.60081C17.343 3.40086 17.303 3.11294 17.103 2.96098L15.3755 1.64135C15.1756 1.48939 14.8876 1.52938 14.7357 1.72932L13.1441 3.18492C13.0961 3.24891 13.0401 3.28889 12.9762 3.32888C12.5043 3.12094 12.0084 2.96098 11.5046 2.84902C11.3606 2.76904 11.2486 2.62508 11.2246 2.44913L10.5608 0.393695C10.5288 0.145764 10.2969 -0.0301887 10.049 0.00180248L7.89757 0.289723C7.64964 0.321714 7.47369 0.55365 7.50568 0.801581L7.40171 2.95299C7.40971 3.02497 7.40171 3.10495 7.38571 3.16893C6.89785 3.35288 6.43398 3.59281 6.0021 3.87273C5.84214 3.92072 5.65819 3.89673 5.52223 3.78476L3.60276 2.80103C3.40281 2.64907 3.1149 2.68906 2.96294 2.889L1.6433 4.61653C1.49134 4.81647 1.53133 5.10439 1.73128 5.25635L3.18687 6.84791C3.25086 6.8959 3.29085 6.95188 3.33083 7.01586C3.12289 7.48773 2.96294 7.98359 2.85097 8.49545C2.77099 8.63941 2.62703 8.75138 2.45108 8.77537L0.395648 9.43919C0.147717 9.47118 -0.0282355 9.70312 0.00375561 9.95105L0.291676 12.1025C0.323668 12.3504 0.555603 12.5263 0.803534 12.4943L2.95494 12.5983C3.02692 12.5903 3.1069 12.5983 3.17088 12.6143C3.35483 13.1022 3.59476 13.566 3.87468 13.9979C3.92267 14.1579 3.89868 14.3418 3.78671 14.4778L2.80298 16.3973C2.65102 16.5972 2.69101 16.8851 2.89096 17.0371L4.61848 18.3567C4.81842 18.5087 5.10634 18.4687 5.2583 18.2687L6.84986 16.8132C6.89785 16.7492 6.95383 16.7092 7.01781 16.6692C7.48968 16.8771 7.98555 17.0371 8.48941 17.1491C8.63337 17.229 8.74534 17.373 8.76933 17.5489L9.43315 19.6044C9.46514 19.8523 9.69707 20.0283 9.945 19.9963L12.0964 19.7083C12.3443 19.6764 12.5203 19.4444 12.4883 19.1965ZM6.89785 10.4069C6.66591 8.6954 7.86558 7.12783 9.57711 6.8959C11.2886 6.66396 12.8562 7.86363 13.0881 9.57515C13.3201 11.2867 12.1204 12.8542 10.4089 13.0862C8.69735 13.3181 7.12978 12.1185 6.89785 10.4069Z" fill="#0D4179"/>
</svg>
