<svg width="18" height="18" viewBox="0 0 18 18" fill="none" xmlns="http://www.w3.org/2000/svg">
<path d="M15.9942 10.456L15.9942 10.456L15.9884 10.4515L14.728 9.46358C14.7417 9.31221 14.75 9.15708 14.75 9C14.75 8.84437 14.7419 8.69052 14.7284 8.54117L15.9884 7.55353L15.9885 7.55357L15.9942 7.54897C16.3091 7.29457 16.4114 6.83364 16.1913 6.46203L14.793 4.04001L14.7931 4.03997L14.7887 4.03275C14.5727 3.67268 14.1369 3.52841 13.7544 3.67184L13.7544 3.6717L13.7434 3.67613L12.2608 4.27256C12.0084 4.09692 11.7421 3.93991 11.4617 3.80601L11.2402 2.2256L11.2402 2.22559L11.2388 2.21643C11.207 2.01693 11.1053 1.83525 10.9518 1.70397C10.7982 1.57269 10.6029 1.50038 10.4009 1.5H10.4L7.6 1.5L7.59907 1.5C7.39706 1.50038 7.20179 1.57269 7.04825 1.70397C6.89472 1.83525 6.79296 2.01693 6.76121 2.21643L6.76113 2.21642L6.75984 2.2256L6.53815 3.8073C6.25657 3.94261 5.99047 4.09919 5.73982 4.27282L4.25661 3.67613L4.25667 3.676L4.24556 3.67184C3.86308 3.52841 3.4273 3.67268 3.21125 4.03275L3.21119 4.03272L3.20698 4.04001L1.80814 6.46301C1.70587 6.6371 1.66925 6.84208 1.70499 7.04087C1.74094 7.24085 1.84771 7.4212 2.00574 7.5489L2.0057 7.54896L2.01238 7.55417L3.27191 8.53712C3.25827 8.68826 3.25 8.84316 3.25 9C3.25 9.15948 3.25823 9.31331 3.2718 9.46298L2.01238 10.4458L2.01234 10.4458L2.00583 10.451C1.69089 10.7054 1.58866 11.1663 1.80862 11.5378L3.20698 13.96L3.20692 13.96L3.21125 13.9672C3.42729 14.3273 3.86308 14.4716 4.24556 14.3282L4.24561 14.3283L4.25661 14.3239L5.73916 13.7274C5.99155 13.9031 6.25792 14.0601 6.53833 14.194L6.75984 15.7744L6.75976 15.7744L6.76121 15.7836C6.79296 15.9831 6.89472 16.1647 7.04825 16.296C7.20178 16.4273 7.39706 16.4996 7.59907 16.5H7.6H10.4C10.821 16.5 11.1821 16.1889 11.2357 15.7709L11.4568 14.1932C11.7374 14.0592 12.004 13.9042 12.2565 13.7282L13.7427 14.3286L13.7426 14.3287L13.7544 14.3332C14.1282 14.4733 14.5789 14.3405 14.7938 13.9636C14.7942 13.9629 14.7946 13.9622 14.795 13.9615L16.1913 11.5429C16.4114 11.1713 16.3091 10.7104 15.9942 10.456ZM7.5 9C7.5 8.17114 8.17114 7.5 9 7.5C9.82886 7.5 10.5 8.17114 10.5 9C10.5 9.82886 9.82886 10.5 9 10.5C8.17114 10.5 7.5 9.82886 7.5 9ZM2 0.5H16C16.8289 0.5 17.5 1.17114 17.5 2V16C17.5 16.8289 16.8289 17.5 16 17.5H2C1.17114 17.5 0.5 16.8289 0.5 16V2C0.5 1.17114 1.17114 0.5 2 0.5Z" fill="#7C7C7C" stroke="#7C7C7C"/>
</svg>
