<svg width="20" height="20" viewBox="0 0 20 20" fill="none" xmlns="http://www.w3.org/2000/svg">
<g clip-path="url(#clip0_1019_4063)">
<path d="M10 19.9999C7.69281 19.9988 5.45695 19.2001 3.67124 17.7391C1.88553 16.2782 0.659768 14.2449 0.201635 11.9836C-0.256499 9.72237 0.0811659 7.37227 1.15742 5.33149C2.23367 3.29071 3.98234 1.68473 6.10714 0.785654C8.55092 -0.246796 11.3047 -0.266171 13.7628 0.73179C16.2209 1.72975 18.1818 3.6633 19.2143 6.10708C20.2467 8.55086 20.2661 11.3047 19.2681 13.7628C18.2702 16.2208 16.3366 18.1818 13.8929 19.2142C12.6613 19.7354 11.3373 20.0026 10 19.9999V19.9999ZM8.56285 11.5824L10.7221 12.9321C10.6901 13.0762 10.674 13.2234 10.6743 13.371C10.6743 13.7711 10.7929 14.1622 11.0152 14.4949C11.2375 14.8275 11.5534 15.0868 11.923 15.2399C12.2927 15.393 12.6994 15.4331 13.0918 15.355C13.4842 15.2769 13.8446 15.0843 14.1275 14.8014C14.4104 14.5185 14.6031 14.158 14.6811 13.7657C14.7592 13.3733 14.7191 12.9665 14.566 12.5969C14.4129 12.2273 14.1536 11.9113 13.821 11.6891C13.4883 11.4668 13.0972 11.3482 12.6971 11.3482C12.2391 11.3463 11.7943 11.5018 11.4371 11.7885L9.27785 10.4389C9.34138 10.1496 9.34138 9.84995 9.27785 9.56065L11.4371 8.21101C11.7943 8.49775 12.2391 8.6532 12.6971 8.65137C13.1156 8.65099 13.5236 8.52073 13.8649 8.27858C14.2061 8.03642 14.4638 7.69431 14.6024 7.29947C14.7409 6.90462 14.7535 6.4765 14.6384 6.0742C14.5232 5.6719 14.286 5.31526 13.9596 5.0535C13.6331 4.79174 13.2334 4.63776 12.8157 4.61282C12.398 4.58788 11.9829 4.69321 11.6276 4.91427C11.2723 5.13533 10.9944 5.46122 10.8322 5.84696C10.67 6.2327 10.6316 6.65927 10.7221 7.0678L8.56285 8.41744C8.20567 8.1307 7.76089 7.97526 7.30285 7.97708C6.77106 7.98415 6.26344 8.20036 5.88988 8.57892C5.51632 8.95748 5.30687 9.46792 5.30687 9.99976C5.30687 10.5316 5.51632 11.042 5.88988 11.4206C6.26344 11.7992 6.77106 12.0154 7.30285 12.0224C7.76073 12.024 8.20529 11.8685 8.5625 11.5821L8.56285 11.5824Z" fill="white"/>
</g>
<defs>
<clipPath id="clip0_1019_4063">
<rect width="20" height="20" fill="white"/>
</clipPath>
</defs>
</svg>
