<svg width="19" height="24" viewBox="0 0 19 24" fill="none" xmlns="http://www.w3.org/2000/svg">
<path d="M2.65726 1.52588e-05C3.80869 0.00338143 4.96097 0.0101136 6.1124 0.0109551C8.75064 0.0126382 11.388 0.0126383 14.0263 0.0101137C14.3055 0.0101137 14.5795 0.0218952 14.8302 0.159908C14.9763 0.324851 14.9875 0.524297 14.9875 0.728792C14.9893 1.56865 14.9832 2.40935 14.9901 3.24922C14.9936 3.69187 15.0593 3.75498 15.5131 3.75835C16.3758 3.76508 17.2394 3.75919 18.1021 3.76087C18.3121 3.76087 18.517 3.77181 18.6864 3.91404C18.8135 4.13704 18.8403 4.37857 18.8412 4.62851C18.8412 5.42376 18.8472 6.21902 18.8515 7.01428C18.97 7.18932 18.9994 7.38456 18.9994 7.59074C19.0002 10.7953 19.0002 14.0008 18.9994 17.2054C18.9994 17.4116 18.97 17.6068 18.8507 17.7818C18.8507 19.1965 18.8507 20.6103 18.8507 22.0249C18.8463 22.4171 18.8472 22.8084 18.8377 23.2005C18.8273 23.6339 18.6225 23.8359 18.1747 23.8409C17.2204 23.8502 16.2652 23.8502 15.31 23.8544C15.0411 23.9672 14.7602 24.0008 14.4689 24C10.6515 23.9983 6.8342 23.9983 3.016 24C2.72469 24 2.44375 23.9672 2.17491 23.8544C1.73837 23.851 1.30183 23.8494 0.865296 23.8426C0.376027 23.8351 0.178073 23.6415 0.167699 23.1677C0.163377 22.9893 0.15992 22.8101 0.156462 22.6316C0.00345752 22.4549 0.011237 22.2403 0.00950815 22.0291C0.00345712 21.1505 0.0172886 20.272 0 19.3925C0.0803922 19.1712 0.006051 18.9474 0.006051 18.7252C0.00864429 14.5082 0.00864429 10.2921 0.006051 6.07512C0.006051 5.85295 0.082121 5.6291 0 5.40777C0.0190175 4.52836 0.00259269 3.64811 0.00950815 2.76785C0.011237 2.55578 0.00345752 2.34119 0.156462 2.16447C0.15992 1.67216 0.161649 1.17986 0.168564 0.687556C0.175479 0.212084 0.375163 0.0168459 0.864432 0.0109551C1.46175 0.00506429 2.05994 0.00338143 2.65726 1.52588e-05Z" fill="#EBEFF0"/>
<path d="M18.687 3.91477C17.5243 3.91477 16.3608 3.90804 15.1981 3.9215C14.912 3.92487 14.8204 3.83567 14.8238 3.55712C14.8368 2.42524 14.8299 1.29252 14.8299 0.160645C15.0685 0.237225 15.2388 0.406375 15.4099 0.571318C16.3625 1.49617 17.3143 2.42271 18.2651 3.3501C18.4346 3.51588 18.6083 3.68251 18.687 3.91477Z" fill="#BCC2C6"/>
<path d="M13.1687 8.07288C13.1687 6.89556 13.1756 5.71825 13.1627 4.54093C13.1601 4.30024 13.2335 4.24134 13.4721 4.24639C14.1628 4.26153 14.8544 4.25817 15.545 4.24807C15.7361 4.24554 15.8009 4.29435 15.8009 4.48959C15.7949 6.88883 15.7949 9.28892 15.8009 11.6882C15.8018 11.8834 15.7369 11.933 15.545 11.9305C14.8544 11.9204 14.1628 11.9171 13.4721 11.9322C13.2344 11.9373 13.1601 11.8792 13.1627 11.6385C13.1756 10.4502 13.1687 9.26114 13.1687 8.07288Z" fill="#00BC9B"/>
<path d="M5.83826 9.06748C5.83826 9.91912 5.82702 10.7716 5.84517 11.6232C5.85123 11.8841 5.76565 11.9388 5.51583 11.9329C4.83725 11.9161 4.15694 11.9195 3.47836 11.9321C3.2683 11.9363 3.2052 11.8808 3.20606 11.6704C3.21471 9.91071 3.21471 8.15104 3.20606 6.39137C3.2052 6.17593 3.27781 6.13049 3.48182 6.13386C4.1725 6.1448 4.86318 6.14648 5.55386 6.13302C5.77775 6.12881 5.8469 6.18856 5.84345 6.41157C5.83048 7.29603 5.83826 8.18218 5.83826 9.06748Z" fill="#E84B35"/>
<path d="M4.5682 21.3902C3.4064 20.5537 2.91886 18.9784 3.39603 17.6016C3.88097 16.203 5.27876 15.2142 6.73706 15.2377C6.90476 15.3522 6.89352 15.528 6.89265 15.693C6.88487 16.6978 6.93588 17.7034 6.85981 18.7074C6.86932 18.7646 6.8745 18.8227 6.85894 18.8799C6.27891 19.7055 5.56316 20.425 4.92175 21.2034C4.83012 21.3137 4.70737 21.3667 4.5682 21.3902Z" fill="#00BC9B"/>
<path d="M6.7145 18.9215C6.7266 18.8828 6.73957 18.8449 6.75167 18.8062C6.93061 18.239 7.4121 17.8822 7.76306 17.4345C8.06042 17.0549 8.3915 16.7006 8.70183 16.3304C8.80383 16.2075 8.90756 16.0872 9.09342 16.0989C10.1212 16.8723 10.5742 18.3341 10.193 19.6503C9.76767 21.1204 8.2748 22.1993 6.73611 22.148C6.59348 22.052 6.5857 21.9039 6.58311 21.7575C6.57187 20.9849 6.57706 20.2124 6.57965 19.439C6.58138 19.2539 6.65831 19.0915 6.7145 18.9215Z" fill="#E84B35"/>
<path d="M9.15799 9.63822C9.15799 10.2997 9.14934 10.962 9.16317 11.6234C9.1675 11.8473 9.11909 11.939 8.86408 11.9331C8.18464 11.9163 7.50433 11.9205 6.82489 11.9314C6.61137 11.9348 6.5232 11.8902 6.52493 11.6579C6.53616 10.3123 6.53357 8.96582 6.52666 7.6202C6.52579 7.42664 6.56556 7.34164 6.79031 7.34585C7.49309 7.35932 8.19588 7.35932 8.89866 7.34585C9.12255 7.34164 9.1649 7.42664 9.16231 7.6202C9.15194 8.29175 9.15799 8.96498 9.15799 9.63822Z" fill="#F3CB20"/>
<path d="M9.48465 13.6101C7.52671 13.6101 5.56791 13.611 3.60997 13.6076C3.48117 13.6076 3.29704 13.6716 3.24258 13.5108C3.17516 13.3097 3.17257 13.0842 3.2495 12.883C3.29618 12.7619 3.45178 12.8039 3.56242 12.8039C4.32226 12.8014 5.08296 12.8023 5.8428 12.8023C9.01094 12.8023 12.1782 12.8023 15.3464 12.8023C15.7457 12.8023 15.9722 13.1818 15.7717 13.515C15.6818 13.6632 15.5244 13.6068 15.3948 13.6068C13.7126 13.611 12.0313 13.6093 10.3491 13.6093C10.0604 13.6101 9.7725 13.6101 9.48465 13.6101Z" fill="#BCC2C6"/>
<path d="M7.22597 3.78072C5.36139 3.78072 3.49595 3.77483 1.63137 3.78662C1.35735 3.7883 1.24843 3.7437 1.26658 3.44747C1.29424 2.97368 1.27263 2.972 1.76017 2.972C5.43228 2.972 9.10525 2.97116 12.7774 2.97537C12.9053 2.97537 13.1153 2.90047 13.1473 3.03848C13.1983 3.26065 13.1793 3.50722 13.1396 3.73528C13.124 3.82617 12.9537 3.7782 12.856 3.7782C10.9793 3.78157 9.10266 3.78072 7.22597 3.78072Z" fill="#2B3E51"/>
<path d="M9.84938 10.2112C9.84938 9.7189 9.85802 9.22575 9.84506 8.73429C9.83987 8.54579 9.89433 8.48604 10.0931 8.4894C10.8054 8.50119 11.5186 8.50034 12.2318 8.4894C12.4271 8.48604 12.4842 8.5399 12.4824 8.73177C12.4729 9.71637 12.4729 10.7018 12.4824 11.6864C12.4842 11.8749 12.4332 11.9347 12.2343 11.9313C11.5221 11.9195 10.8089 11.9204 10.0957 11.9313C9.90038 11.9347 9.83987 11.8808 9.84506 11.689C9.85802 11.1966 9.84938 10.7043 9.84938 10.2112Z" fill="#2B3E51"/>
<path d="M3.64367 2.0304C2.96423 2.0304 2.28565 2.02199 1.60621 2.03461C1.34774 2.03966 1.27167 1.94793 1.26908 1.7022C1.2613 0.885904 1.25266 0.885904 2.10585 0.885904C3.29099 0.885904 4.47699 0.895161 5.66212 0.880013C5.96986 0.875806 6.0563 0.972583 6.05198 1.2646C6.04074 2.0304 6.05371 2.0304 5.26621 2.0304C4.72508 2.0304 4.18394 2.0304 3.64367 2.0304Z" fill="#BCC2C6"/>
<path d="M9.09277 16.0997C8.31219 17.0018 7.53161 17.9039 6.75102 18.8069C6.74584 17.6178 6.74151 16.4279 6.73633 15.2388C7.63015 15.2463 8.42889 15.4988 9.09277 16.0997Z" fill="#F3CB20"/>
<path d="M9.8369 2.16524C8.91628 2.16524 7.99566 2.16524 7.07504 2.1644C6.9713 2.1644 6.86757 2.16356 6.76557 2.15009C6.67826 2.13915 6.61516 2.08445 6.61775 1.99272C6.62035 1.90099 6.68604 1.85218 6.77335 1.8404C6.85288 1.82946 6.93413 1.82778 7.01453 1.82778C8.87911 1.82694 10.7428 1.82694 12.6074 1.82778C12.699 1.82778 12.7915 1.83115 12.8814 1.84629C12.9532 1.85808 13.0059 1.90688 13.012 1.98262C13.0197 2.07772 12.9592 2.13326 12.8736 2.14672C12.7725 2.16271 12.6679 2.16271 12.5642 2.16271C11.6548 2.16608 10.7454 2.16524 9.8369 2.16524Z" fill="#BCC2C6"/>
<path d="M9.5606 0.683804C10.3775 0.683804 11.1944 0.682963 12.0113 0.684646C12.1141 0.684646 12.2196 0.684646 12.3207 0.700635C12.4055 0.7141 12.4668 0.769642 12.459 0.864736C12.453 0.941317 12.4003 0.990968 12.3285 1.00107C12.2265 1.01621 12.1228 1.01958 12.0199 1.01958C10.3628 1.02042 8.70655 1.02042 7.04943 1.02042C6.99151 1.02042 6.93446 1.02126 6.87654 1.01874C6.75898 1.01285 6.62413 1.00443 6.62067 0.855479C6.61721 0.705684 6.74947 0.68717 6.86876 0.686329C7.22577 0.682962 7.58192 0.683804 7.93893 0.683804C8.47834 0.683804 9.01947 0.683804 9.5606 0.683804Z" fill="#BCC2C6"/>
<path d="M8.95217 1.62693C8.29693 1.62693 7.64083 1.62946 6.98559 1.62441C6.84555 1.62357 6.63722 1.67238 6.62599 1.46788C6.61388 1.25329 6.82481 1.29284 6.96398 1.292C8.28656 1.28863 9.60914 1.28863 10.9317 1.292C11.0718 1.292 11.2818 1.25245 11.2749 1.46367C11.268 1.66901 11.0588 1.62273 10.9188 1.62357C10.2635 1.62946 9.60828 1.62693 8.95217 1.62693Z" fill="#BCC2C6"/>
<path d="M15.2096 16.7745C14.7618 16.7745 14.3131 16.777 13.8654 16.7728C13.7331 16.7719 13.549 16.8022 13.5395 16.6154C13.5291 16.4219 13.7124 16.4404 13.8455 16.4404C14.7531 16.4378 15.6617 16.4378 16.5693 16.4404C16.7024 16.4404 16.8866 16.421 16.8788 16.6137C16.871 16.8006 16.6869 16.7719 16.5546 16.7736C16.106 16.777 15.6582 16.7745 15.2096 16.7745Z" fill="#BCC2C6"/>
<path d="M14.9599 17.7862C15.3272 17.7862 15.6946 17.7845 16.062 17.787C16.1778 17.7879 16.317 17.7912 16.3265 17.9385C16.3378 18.1136 16.1865 18.1186 16.0594 18.1194C15.3013 18.122 14.5432 18.1211 13.786 18.1194C13.6667 18.1194 13.5353 18.1009 13.5361 17.952C13.537 17.8039 13.6701 17.7887 13.7886 17.7879C14.1784 17.7845 14.5691 17.7862 14.9599 17.7862Z" fill="#BCC2C6"/>
<path d="M12.3446 17.196C12.0404 17.1985 11.7888 16.9603 11.7905 16.6708C11.7923 16.394 12.0274 16.1609 12.3161 16.1508C12.6213 16.1398 12.878 16.3687 12.8866 16.6599C12.8953 16.9486 12.6481 17.1934 12.3446 17.196Z" fill="#F3CB21"/>
<path d="M12.8874 18.0046C12.8969 18.2933 12.6488 18.5407 12.3454 18.5441C12.0411 18.5474 11.7878 18.3076 11.7896 18.0181C11.7904 17.7421 12.0273 17.5064 12.3151 17.4955C12.6194 17.4846 12.8779 17.7143 12.8874 18.0046Z" fill="#02BD9C"/>
</svg>
